<?xml version="1.0" encoding="utf-8"?>
<!-- Generator: Adobe Illustrator 23.0.1, SVG Export Plug-In . SVG Version: 6.00 Build 0)  -->
<svg version="1.1" id="Warstwa_1" xmlns="http://www.w3.org/2000/svg" xmlns:xlink="http://www.w3.org/1999/xlink" x="0px" y="0px"
	 viewBox="0 0 50 50" style="enable-background:new 0 0 50 50;" xml:space="preserve">
<style type="text/css">
	.st0{stroke:#FFFFFF;stroke-miterlimit:10;}
	.st1{enable-background:new    ;}
	.st2{fill:#413B3B;}
</style>
<g>
	<path class="st2" d="M35.67,39.65l-24.7-24.7c-1.11-1.11-1.11-2.92,0-4.03l0,0c1.11-1.11,2.92-1.11,4.03,0l24.7,24.7
		c1.11,1.11,1.11,2.92,0,4.03l0,0C38.59,40.76,36.78,40.76,35.67,39.65z"/>
	<path class="st2" d="M39.7,14.95L15,39.65c-1.11,1.11-2.92,1.11-4.03,0l0,0c-1.11-1.11-1.11-2.92,0-4.03l24.7-24.7
		c1.11-1.11,2.92-1.11,4.03,0l0,0C40.81,12.03,40.81,13.84,39.7,14.95z"/>
</g>
</svg>
