<?xml version="1.0" encoding="utf-8"?>
<!-- Generator: Adobe Illustrator 23.0.1, SVG Export Plug-In . SVG Version: 6.00 Build 0)  -->
<svg version="1.1" id="Warstwa_1" xmlns="http://www.w3.org/2000/svg" xmlns:xlink="http://www.w3.org/1999/xlink" x="0px" y="0px"
	 viewBox="0 0 653.9 683.6" style="enable-background:new 0 0 653.9 683.6;" xml:space="preserve">
<style type="text/css">
	.st0{fill:#EDFFC9;}
	.st1{fill:none;stroke:#FFE221;stroke-width:5;stroke-miterlimit:10;}
</style>
<g id="Component_1_1" transform="translate(0 2.56)">
	<path id="Path_431" class="st0" d="M0,423c0,0,104,70,140,150c-8-4,36-108,72-112c0,4,32,76,16,128c0-8,48-148,148-166
		c0,18-12,182-56,190c12,0,56-12,56,68c4-4-376,0-376,0V423z"/>
	<g id="Group_40" transform="translate(-38.768 -164.198)">
		<path id="Path_363" class="st1" d="M259.1,681.2c7.1-26,16.2-51.4,27.2-76c3.7-8.2,7.9-16.8,15.5-21.7c8-5.2,18.1-5.4,27.7-5.5
			l136.1-0.6l-67.9,191.9h-84.4"/>
		<path id="Path_364" class="st1" d="M285.4,600.6l-46.7-32.4l229.4-4.3"/>
		<path id="Path_365" class="st1" d="M238.7,568.2l6-36.1l233-8.9c0,0,162.8,146.6,212.9,195.5"/>
		<path id="Path_366" class="st1" d="M468.1,564c59.2,60.2,138.1,126,203.1,179.9"/>
		<path id="Path_367" class="st1" d="M397.6,769.3c10.2-1.1,21.6-0.5,31.8-1.6l54.3-142.1c2.9-7.6,5.9-15.8,4.2-23.7
			c-2.4-11.4-13.2-18.5-23-24.4"/>
		<path id="Path_368" class="st1" d="M690.7,718.7c0,0-17.5,22.6-19.5,25.2"/>
		<path id="Path_369" class="st1" d="M671.2,743.8H514l-59.5-41.7"/>
		<path id="Path_370" class="st1" d="M272.5,702.1c4.7-6.7,12.1-2.3,20-0.3c7.9,2.1,14.3,8.5,17.1,16.1c2.8,7.6,2.3,16.3-0.5,23.9
			c7.4,0.1,13.4,6.3,13.2,13.7c-0.1,6-4.1,11.2-9.9,12.7"/>
		<path id="Path_371" class="st1" d="M492.7,537.2c-17-16.3-20.5-40.1-15-63.1c5.9-23.3,23.4-41.9,46.4-49.2
			c-8.4-50.9,26-98.9,76.9-107.4c1.8-0.3,3.5-0.5,5.3-0.7c-9.3-49.7,23.5-97.5,73.2-106.7c2.9-0.5,5.8-0.9,8.7-1.2v504.7"/>
		<path id="Path_372" class="st1" d="M223.6,577.7c-15,6.7-34.8-1.8-40.3-17.3c-5.5-15.5,4.6-34.6,20.4-38.8
			c-16.1-29.2-6.2-70,21.6-88.5c13.1-8.8,30.1-12.6,45.1-7.6c15,5,26.8,20.1,25.5,35.8c13.2-6.8,31.1-2.3,39.5,10s6.1,30.6-5,40.5"
			/>
		<path id="Path_373" class="st1" d="M302.9,398.3c-15.3,7.8-35.6,4.3-47.4-8.1c-11.8-12.5-14.3-32.9-5.7-47.8"/>
		<path id="Path_374" class="st1" d="M249.8,341.2c-7.7-2.4-13.5-9.2-16.4-16.7s-3.4-15.8-3.2-23.9c0.5-18.9,4.8-38.7,17.3-52.9
			c12.5-14.2,34.8-21,51.2-11.5"/>
		<path id="Path_375" class="st1" d="M300,235.9c1.1-30.4,23.5-58.2,52.4-67.7c28.8-9.5,62.2-1.4,85,18.7s34.9,51,34.2,81.4
			c-0.4,17.2-5.1,35.1-17.6,47c9.7,0.4,14.8,11.8,15.9,21.4c4.8,39.7-22.2,80.9-60.5,92.4c20.7,28.8,16.2,72.7-9.8,96.8"/>
		<path id="Path_376" class="st1" d="M294,402.8c-1.4,12.9,7.9,24.5,20.9,25.9c1.8,0.2,3.7,0.2,5.5-0.1"/>
		<path id="Path_377" class="st1" d="M307.8,426.9c-9.1,4-14.5,13.4-13.4,23.2"/>
		<path id="Path_378" class="st1" d="M223.1,576.9c5.4,15.2,22,23.1,37.2,17.7c3.3-1.2,6.4-2.9,9.1-5.2"/>
		<path id="Path_379" class="st1" d="M323.9,519.8"/>
		<path id="Path_380" class="st1" d="M391.6,342.5c8.1-16.9,25.1-27.7,43.9-28"/>
		<path id="Path_381" class="st1" d="M245.4,303c18.7-8.6,40.9-0.5,49.5,18.2c0.4,0.9,0.8,1.8,1.1,2.7"/>
		<path id="Path_382" class="st1" d="M278.4,302.8c2.7-6.7,8.9-11.2,16.1-11.8"/>
		<path id="Path_383" class="st1" d="M351.6,434.1c15.6-0.3,30.8,10.7,35.3,25.7"/>
		<path id="Path_384" class="st1" d="M376.6,441.2c2.7-7.3,8.6-12.9,16-15.2"/>
		<path id="Path_385" class="st1" d="M464.1,747.4c4.6,5.1,7.9,11.2,9.8,17.9"/>
		<path id="Path_386" class="st1" d="M479.3,757.3v8"/>
		<path id="Path_387" class="st1" d="M469.2,248.8c20.4-8.3,43.6,1.5,51.9,21.9c1.2,3,2.1,6.1,2.5,9.3c0.9,6.4,0.4,13.4,4.1,18.6
			c2.4,3.4,6.1,5.5,9.1,8.4c9.9,9.5,9.9,24.9,9.3,38.6"/>
		<path id="Path_388" class="st1" d="M488.9,365.1c15.6-9.9,30.5-20.9,44.6-33l-0.8,1"/>
		<path id="Path_389" class="st1" d="M424.8,435.9c7.6,5.6,16.5,9.3,25.9,10.8"/>
		<path id="Path_390" class="st1" d="M472.9,386.8c-6.2,46.1-14.4,91.8-24.8,137.2"/>
		<path id="Path_391" class="st1" d="M242.6,470.7c0.8,19.9,17.7,35.3,37.6,34.5c0.3,0,0.6,0,1-0.1"/>
		<path id="Path_392" class="st1" d="M229.3,502.8c8.2,3.7,17.8,2,24.3-4.2"/>
		<path id="Path_393" class="st1" d="M153.7,494.4c-5.7,35,0.5,70.9,17.8,101.9c17.2,30.6,44.4,54.2,77.1,66.9"/>
		<path id="Path_394" class="st1" d="M151.5,495.1c16.8,6.1,30.6,18.5,38.6,34.5"/>
		<path id="Path_395" class="st1" d="M219.2,581.6c19,18.8,31.7,43,36.4,69.3"/>
		<path id="Path_396" class="st1" d="M167.8,537.3c12.4,43.4,38.8,81.5,75.1,108.4"/>
		<path id="Path_397" class="st1" d="M213.2,598.3c3.4,7.9,4.9,16.4,4.5,25"/>
		<path id="Path_398" class="st1" d="M257.5,679.1c-7.9-7.5-8.1-20-0.6-27.9c2.3-2.4,5.1-4.1,8.2-5.1"/>
		<path id="Path_399" class="st1" d="M152.2,349.8c8.5-6,19.9-6.2,30-3.5s19.3,7.7,28.9,11.6s20.3,6.6,30.4,4.2"/>
		<path id="Path_400" class="st1" d="M152.4,405.3c16.3-7.7,35.5-7.4,53-2.7s33.5,13.3,49.4,21.9"/>
		<path id="Path_401" class="st1" d="M152.4,302.8c12-0.1,33.1,0.3,45,2.2s23.6,6.2,32.9,13.8"/>
		<path id="Path_402_2_" class="st1" d="M304.8,213.5H151.6v558.9l25,0.9c-13.6-2.2-22.8-15.1-20.6-28.7c0.8-4.8,3-9.3,6.3-12.9
			c3.1-3.4,7.3-6,8.9-10.3c1.6-4.1,0.5-8.7-0.1-13.1c-1.8-12.3,1-25.5,8.7-35.1s20.9-15.2,33.1-12.6s22.1,14.2,21.6,26.6
			c8.2-8.1,23-8.2,31.3-0.2s8.9,22.7,1.1,31.3c10.4,6.2,15.4,20.1,11.3,31.5s-16.9,18.9-28.9,16.9"/>
		<path id="Path_404" class="st1" d="M386.4,205.8c6.9-17,24.8-26.9,43-23.7"/>
		<path id="Path_405" class="st1" d="M553.1,415.4c1.5-12.2,4.5-24.4,10.8-35c6.2-10.6,15.8-19.6,27.5-23.3
			c11.7-3.8,25.5-1.8,34.6,6.5c2.6-7,9.9-11,17.3-9.5"/>
		<path id="Path_406" class="st1" d="M590.2,533.4c-9.5-12-7.5-29.4,4.4-38.9c3.2-2.5,6.9-4.3,10.9-5.3c6-1.4,13.1-1.1,17.4-5.6
			c2.9-3.1,3.6-7.6,4.6-11.8c6.7-26.4,33-42.8,59.6-37.3"/>
		<path id="Path_407" class="st1" d="M639,536.1c21.1,12.2,34.9,33.9,37,58.2"/>
		<path id="Path_408" class="st1" d="M656.7,528.1c5.9,7,15.3,9.9,24.1,7.2"/>
		<path id="Path_409" class="st1" d="M681.7,535.4l-3.7,31.4"/>
		<path id="Path_410" class="st1" d="M546.2,558.8c3.7-9.2,14.8-14.7,24.4-12.1c9.6,2.7,16.3,13.1,14.7,22.9
			c7.6-3,16.8,1.8,20.1,9.3c3.3,7.5,1.3,16.5-3.6,23.1c-4.9,6.6-12.2,10.9-19.8,13.8"/>
		<path id="Path_411" class="st1" d="M534.9,772.8c5.2-7.9,14.4-12.2,23.8-11.1c4.2,0.6,8.7,2.2,12.7,0.7c2.3-0.8,4.1-2.6,6-4.1
			c18.2-14.8,44.9-12.1,59.7,6.1c0,0,0.1,0.1,0.1,0.1"/>
	</g>
</g>
</svg>
