<svg xmlns="http://www.w3.org/2000/svg" width="716.096" height="667.846" viewBox="0 0 716.096 667.846">
  <path id="Path_2025" data-name="Path 2025" d="M3259,1838.439s34.375-108.264,78.629-139.874c1.581,3.161-15.8-50.576,36.352-53.737,6.322,0,0-58.478,45.834-44.253s23.707,44.253,23.707,44.253,42.673-18.966,58.479,18.966-14.225,53.737-14.225,53.737,75.864-20.546,93.25,33.191c-1.581-1.581,18.966-23.708,47.415-11.064,1.581,1.581,14.225-49,56.9-22.127,3.161-4.741,7.9-41.093,52.156-28.449,4.742-3.161,17.385-82.186,72.7-67.961,3.161,4.741,14.225-7.9,14.225-7.9l-72.7-96.41,17.385-31.61-55.317-28.449-15.805-17.385V1412.5s-34.771-42.673-82.186-26.868c-1.58-1.581-50.576-47.415,0-55.317,0-4.741-30.029-69.542,49-96.41,4.741-1.581,33.191-60.059,72.7-26.868-3.161-6.322-4.742-55.317,31.61-28.449-1.581-1.581,22.127,34.771,17.385,64.8,1.581,0,37.932-61.639,64.8-36.352s-26.868,110.635-26.868,110.635,36.352-22.127,45.834-12.644-18.966,53.737-60.059,53.737c0-4.741,9.483,28.449,49,42.673s60.059,71.122,60.059,71.122,18.966,104.313,53.737,105.893c4.742-3.161,0,259.991,0,259.991Z" transform="translate(-3259 -1170.594)" fill="#e2fff3"/>
</svg>
