<svg xmlns="http://www.w3.org/2000/svg" width="1127.841" height="811.838" viewBox="0 0 1127.841 811.838">
  <g id="Group_103" data-name="Group 103" transform="translate(-171.057 -382.065)">
    <path id="Path_694" data-name="Path 694" d="M364.348,436.014c.581,21.483,31.919,32.953,41.158,29.626s16.01-11.284,21.281-19.569a118.884,118.884,0,0,0,15.742-38.027" transform="translate(753.964 92.603)" fill="none" stroke="#ffe221" stroke-miterlimit="10" stroke-width="6"/>
    <path id="Path_695" data-name="Path 695" d="M362.214,400.786a18.819,18.819,0,0,1,11.34,17.807" transform="translate(745.324 63.217)" fill="none" stroke="#ffe221" stroke-miterlimit="10" stroke-width="6"/>
    <path id="Path_696" data-name="Path 696" d="M364.348,404.53l13.511,7.169" transform="translate(753.964 78.375)" fill="none" stroke="#ffe221" stroke-miterlimit="10" stroke-width="6"/>
    <path id="Path_697" data-name="Path 697" d="M367.422,409.44c2.58-5.155,9.936-4.867,15.565-3.635a278.565,278.565,0,0,1,46.378,14.475" transform="translate(766.41 80.487)" fill="none" stroke="#ffe221" stroke-miterlimit="10" stroke-width="6"/>
    <path id="Path_698" data-name="Path 698" d="M376.1,400.532A32.6,32.6,0,0,0,359.234,410.8" transform="translate(733.258 62.188)" fill="none" stroke="#ffe221" stroke-miterlimit="10" stroke-width="6"/>
    <path id="Path_699" data-name="Path 699" d="M361.4,463.3c-8.916-26.471,5.665-58.127,30.889-70.128s57.783-4.281,76.323,16.611,22.659,52.841,11.759,78.559" transform="translate(731.353 9.376)" fill="none" stroke="#ffe221" stroke-miterlimit="10" stroke-width="6"/>
    <path id="Path_700" data-name="Path 700" d="M380.054,409.457a18.478,18.478,0,0,0,12.657-1.545" transform="translate(817.554 92.068)" fill="none" stroke="#ffe221" stroke-miterlimit="10" stroke-width="6"/>
    <path id="Path_701" data-name="Path 701" d="M372.331,401.267a17.555,17.555,0,0,0,3.564,33.968" transform="translate(738.837 65.164)" fill="none" stroke="#ffe221" stroke-miterlimit="10" stroke-width="6"/>
    <path id="Path_702" data-name="Path 702" d="M363.746,402.566a83.25,83.25,0,0,0-3.564,50.362c2.292,9.355,6.573,18.736,14.4,24.351s20.21,8.1,26.88,1.146" transform="translate(727.631 70.423)" fill="none" stroke="#ffe221" stroke-miterlimit="10" stroke-width="6"/>
    <path id="Path_703" data-name="Path 703" d="M328.412,428.906c11.077-4.923,23.527-13.016,32.166-21.523" transform="translate(608.466 89.926)" fill="none" stroke="#ffe221" stroke-miterlimit="10" stroke-width="6"/>
    <path id="Path_704" data-name="Path 704" d="M334.783,443.146a123.433,123.433,0,0,1,78.1-44.6" transform="translate(634.261 54.163)" fill="none" stroke="#ffe221" stroke-miterlimit="10" stroke-width="6"/>
    <path id="Path_705" data-name="Path 705" d="M350.1,398.461l44.222,12.112" transform="translate(696.285 53.803)" fill="none" stroke="#ffe221" stroke-miterlimit="10" stroke-width="6"/>
    <path id="Path_706" data-name="Path 706" d="M328.177,412.425c8.775,9.224,17.358,18.792,23.694,29.833S362.7,460.8,361.62,473.48" transform="translate(607.515 110.34)" fill="none" stroke="#ffe221" stroke-miterlimit="10" stroke-width="6"/>
    <path id="Path_707" data-name="Path 707" d="M334.8,435.6c11.274-5.64,22.366-8.179,33.645-13.819" transform="translate(634.334 148.221)" fill="none" stroke="#ffe221" stroke-miterlimit="10" stroke-width="6"/>
    <path id="Path_708" data-name="Path 708" d="M375.852,419.091l-9.305,39.517" transform="translate(762.867 137.33)" fill="none" stroke="#ffe221" stroke-miterlimit="10" stroke-width="6"/>
    <path id="Path_709" data-name="Path 709" d="M366.484,428.853l11.774-2.287" transform="translate(762.612 167.595)" fill="none" stroke="#ffe221" stroke-miterlimit="10" stroke-width="6"/>
    <path id="Path_710" data-name="Path 710" d="M369.113,453.235a166.641,166.641,0,0,1,7.74-33.7l-.212,2.353" transform="translate(773.256 139.123)" fill="none" stroke="#ffe221" stroke-miterlimit="10" stroke-width="6"/>
    <path id="Path_711" data-name="Path 711" d="M376.82,416.29a31.97,31.97,0,0,0,5.584,15.985" transform="translate(804.461 125.989)" fill="none" stroke="#ffe221" stroke-miterlimit="10" stroke-width="6"/>
    <path id="Path_712" data-name="Path 712" d="M369.31,452.2c8.871,6.023,21.6,2.853,29.45-4.463s11.875-17.752,15.318-27.91" transform="translate(774.054 140.322)" fill="none" stroke="#ffe221" stroke-miterlimit="10" stroke-width="6"/>
    <path id="Path_713" data-name="Path 713" d="M377.912,420.119c7.129-1.192,14.49,5.337,14.157,12.556" transform="translate(808.882 140.921)" fill="none" stroke="#ffe221" stroke-miterlimit="10" stroke-width="6"/>
    <path id="Path_714" data-name="Path 714" d="M369.551,426.592c-.7,8.229,6.286,16.328,14.525,16.838" transform="translate(774.833 167.7)" fill="none" stroke="#ffe221" stroke-miterlimit="10" stroke-width="6"/>
    <path id="Path_715" data-name="Path 715" d="M372.454,459.246a121.279,121.279,0,0,0,39.775-36.568" transform="translate(786.784 151.853)" fill="none" stroke="#ffe221" stroke-miterlimit="10" stroke-width="6"/>
    <path id="Path_716" data-name="Path 716" d="M372.2,430.159a31.686,31.686,0,0,0,23.315,27.435" transform="translate(785.763 182.142)" fill="none" stroke="#ffe221" stroke-miterlimit="10" stroke-width="6"/>
    <path id="Path_717" data-name="Path 717" d="M379.078,462.953c-5.594-9.3-3.191-22.588,5.311-29.338s21.982-6.089,29.778,1.469" transform="translate(801.37 177.262)" fill="none" stroke="#ffe221" stroke-miterlimit="10" stroke-width="6"/>
    <path id="Path_718" data-name="Path 718" d="M395.718,460.1A39.125,39.125,0,0,0,380.9,422.55" transform="translate(820.979 151.335)" fill="none" stroke="#ffe221" stroke-miterlimit="10" stroke-width="6"/>
    <path id="Path_719" data-name="Path 719" d="M383.876,429.76l12.98,26.355" transform="translate(833.029 180.526)" fill="none" stroke="#ffe221" stroke-miterlimit="10" stroke-width="6"/>
    <path id="Path_720" data-name="Path 720" d="M376.447,435.585l31.6,15.071" transform="translate(802.95 204.111)" fill="none" stroke="#ffe221" stroke-miterlimit="10" stroke-width="6"/>
    <path id="Path_721" data-name="Path 721" d="M383.532,438.71l-.838,12.6" transform="translate(828.243 216.763)" fill="none" stroke="#ffe221" stroke-miterlimit="10" stroke-width="6"/>
    <path id="Path_722" data-name="Path 722" d="M382.678,446.853c2.146-3.262,5.205-6.144,9-7.053s8.336.682,9.926,4.246-1.085,8.568-4.988,8.467" transform="translate(828.178 220.167)" fill="none" stroke="#ffe221" stroke-miterlimit="10" stroke-width="6"/>
    <path id="Path_723" data-name="Path 723" d="M385.342,440.3c5.024-3.413,13.061-.262,14.424,5.655s-4.478,12.274-10.491,11.405" transform="translate(838.964 217.489)" fill="none" stroke="#ffe221" stroke-miterlimit="10" stroke-width="6"/>
    <path id="Path_724" data-name="Path 724" d="M386.447,434.98c10.391,9.916,23.719,16.979,38.053,17.953" transform="translate(843.438 201.661)" fill="none" stroke="#ffe221" stroke-miterlimit="10" stroke-width="6"/>
    <path id="Path_725" data-name="Path 725" d="M394.535,438.536l-.687,21.6" transform="translate(873.404 216.059)" fill="none" stroke="#ffe221" stroke-miterlimit="10" stroke-width="6"/>
    <path id="Path_726" data-name="Path 726" d="M387.028,449.078a36.247,36.247,0,0,0,34.216-6.584" transform="translate(845.791 232.084)" fill="none" stroke="#ffe221" stroke-miterlimit="10" stroke-width="6"/>
    <path id="Path_727" data-name="Path 727" d="M384.349,443.811l17.873,5.786" transform="translate(834.944 237.416)" fill="none" stroke="#ffe221" stroke-miterlimit="10" stroke-width="6"/>
    <path id="Path_728" data-name="Path 728" d="M382.2,466.128a40.165,40.165,0,0,1,9.7-22.629" transform="translate(826.235 236.153)" fill="none" stroke="#ffe221" stroke-miterlimit="10" stroke-width="6"/>
    <path id="Path_729" data-name="Path 729" d="M389.293,441.381A26.082,26.082,0,0,0,381.24,463" transform="translate(821.765 227.577)" fill="none" stroke="#ffe221" stroke-miterlimit="10" stroke-width="6"/>
    <path id="Path_730" data-name="Path 730" d="M367.739,443.652l67.669,7.25" transform="translate(767.693 236.772)" fill="none" stroke="#ffe221" stroke-miterlimit="10" stroke-width="6"/>
    <path id="Path_731" data-name="Path 731" d="M370.2,443.724c-5.973,27.622-2.333,58.329,6.73,85.1" transform="translate(765.802 237.064)" fill="none" stroke="#ffe221" stroke-miterlimit="10" stroke-width="6"/>
    <path id="Path_732" data-name="Path 732" d="M369.184,460.579l68.321,6.927" transform="translate(773.544 305.307)" fill="none" stroke="#ffe221" stroke-miterlimit="10" stroke-width="6"/>
    <path id="Path_733" data-name="Path 733" d="M389.22,527.192a253.288,253.288,0,0,1-7.169-81.72" transform="translate(822.742 244.141)" fill="none" stroke="#ffe221" stroke-miterlimit="10" stroke-width="6"/>
    <path id="Path_734" data-name="Path 734" d="M362.05,444.732q5.074,29.695,13.041,58.793c1.7,6.18,3.549,12.47,7.321,17.645s9.875,9.108,16.257,8.583" transform="translate(744.66 241.145)" fill="none" stroke="#ffe221" stroke-miterlimit="10" stroke-width="6"/>
    <path id="Path_735" data-name="Path 735" d="M364.248,445.7c4.226,15.889,12.516,32.817,16.742,48.706" transform="translate(753.559 245.044)" fill="none" stroke="#ffe221" stroke-miterlimit="10" stroke-width="6"/>
    <path id="Path_736" data-name="Path 736" d="M363.841,443.473l18.8,3.251" transform="translate(751.911 236.048)" fill="none" stroke="#ffe221" stroke-miterlimit="10" stroke-width="6"/>
    <path id="Path_737" data-name="Path 737" d="M360.451,441.706a16.5,16.5,0,0,1,18.075,8.82" transform="translate(738.185 227.404)" fill="none" stroke="#ffe221" stroke-miterlimit="10" stroke-width="6"/>
    <path id="Path_738" data-name="Path 738" d="M360.261,439.261a10.969,10.969,0,0,0,2.247,10.976" transform="translate(734.938 218.994)" fill="none" stroke="#ffe221" stroke-miterlimit="10" stroke-width="6"/>
    <path id="Path_739" data-name="Path 739" d="M356.228,438.529c3.64.707,14.248,2.989,17.883,3.7" transform="translate(721.088 216.03)" fill="none" stroke="#ffe221" stroke-miterlimit="10" stroke-width="6"/>
    <path id="Path_740" data-name="Path 740" d="M356.168,435.328c17.009-.045,34.645,13.713,35.468,34.17" transform="translate(720.845 203.07)" fill="none" stroke="#ffe221" stroke-miterlimit="10" stroke-width="6"/>
    <path id="Path_741" data-name="Path 741" d="M355.444,432.467c3.014,15.591,4.377,40.724,7.391,56.319" transform="translate(717.913 191.487)" fill="none" stroke="#ffe221" stroke-miterlimit="10" stroke-width="6"/>
    <path id="Path_742" data-name="Path 742" d="M354.931,436.748c-1.141,7.215-2.267,14.722-.192,21.725s8.341,13.349,15.636,12.981" transform="translate(710.373 208.819)" fill="none" stroke="#ffe221" stroke-miterlimit="10" stroke-width="6"/>
    <path id="Path_743" data-name="Path 743" d="M346.318,438.793a45.55,45.55,0,0,0,20.953,6.589" transform="translate(680.964 217.099)" fill="none" stroke="#ffe221" stroke-miterlimit="10" stroke-width="6"/>
    <path id="Path_744" data-name="Path 744" d="M349.96,440.663a19.3,19.3,0,0,0,17.7,4.039" transform="translate(695.71 224.67)" fill="none" stroke="#ffe221" stroke-miterlimit="10" stroke-width="6"/>
    <path id="Path_745" data-name="Path 745" d="M352.778,454.267a10.8,10.8,0,0,0-7.9-19.958" transform="translate(675.15 197.591)" fill="none" stroke="#ffe221" stroke-miterlimit="10" stroke-width="6"/>
    <path id="Path_746" data-name="Path 746" d="M345.716,435.19c-3.292.656-4.988,5.261-2.908,7.9s6.947,2.06,8.356-.989-1.318-7.129-4.67-7" transform="translate(663.062 202.132)" fill="none" stroke="#ffe221" stroke-miterlimit="10" stroke-width="6"/>
    <path id="Path_747" data-name="Path 747" d="M343.337,437.276a30.346,30.346,0,0,1,14.394,1.8" transform="translate(668.894 210.114)" fill="none" stroke="#ffe221" stroke-miterlimit="10" stroke-width="6"/>
    <path id="Path_748" data-name="Path 748" d="M342.648,439.239l10.865-5.261" transform="translate(666.105 197.604)" fill="none" stroke="#ffe221" stroke-miterlimit="10" stroke-width="6"/>
    <path id="Path_749" data-name="Path 749" d="M338.082,427.344a488.054,488.054,0,0,0,87.657,25.865" transform="translate(647.618 170.744)" fill="none" stroke="#ffe221" stroke-miterlimit="10" stroke-width="6"/>
    <path id="Path_750" data-name="Path 750" d="M333.865,460a78.876,78.876,0,0,1,18.923-32.181" transform="translate(630.544 172.68)" fill="none" stroke="#ffe221" stroke-miterlimit="10" stroke-width="6"/>
    <path id="Path_751" data-name="Path 751" d="M333.918,434.614l42.132,6.452" transform="translate(630.759 200.179)" fill="none" stroke="#ffe221" stroke-miterlimit="10" stroke-width="6"/>
    <path id="Path_752" data-name="Path 752" d="M318.161,427.24c2.545,10.7,11.34,19.044,21.255,23.79s20.978,6.442,31.853,8.078l23.83,3.59" transform="translate(566.962 170.323)" fill="none" stroke="#ffe221" stroke-miterlimit="10" stroke-width="6"/>
    <path id="Path_753" data-name="Path 753" d="M326.98,419.566a190.023,190.023,0,0,1,52.331,39.6" transform="translate(602.668 139.253)" fill="none" stroke="#ffe221" stroke-miterlimit="10" stroke-width="6"/>
    <path id="Path_754" data-name="Path 754" d="M318.04,454.306a42.141,42.141,0,0,1,17.11-24.047c8.351-5.6,18.06-11.88,28.026-10.547" transform="translate(566.472 139.108)" fill="none" stroke="#ffe221" stroke-miterlimit="10" stroke-width="6"/>
    <path id="Path_755" data-name="Path 755" d="M323.733,417.72a22.569,22.569,0,0,1,20.72,11.633" transform="translate(589.522 131.643)" fill="none" stroke="#ffe221" stroke-miterlimit="10" stroke-width="6"/>
    <path id="Path_756" data-name="Path 756" d="M328.8,488.09c-9.345-2.752-14.647-13.647-13.268-23.29s8.088-17.827,16.01-23.5,17.1-9.265,25.941-13.354,17.656-8.891,23.977-16.3" transform="translate(555.423 107.186)" fill="none" stroke="#ffe221" stroke-miterlimit="10" stroke-width="6"/>
    <path id="Path_757" data-name="Path 757" d="M309.418,419.887c-3.347,6.993-1.414,15.762,3.524,21.74s12.395,9.436,20,10.966,15.429,1.313,23.179,1.091" transform="translate(524.793 140.553)" fill="none" stroke="#ffe221" stroke-miterlimit="10" stroke-width="6"/>
    <path id="Path_758" data-name="Path 758" d="M308.413,447.813c13.748,1.288,24.416-11.294,37.089-16.772,6.831-2.948,14.339-3.817,21.644-5.236a140.384,140.384,0,0,0,37.8-13.182" transform="translate(527.494 111.142)" fill="none" stroke="#ffe221" stroke-miterlimit="10" stroke-width="6"/>
    <path id="Path_759" data-name="Path 759" d="M317.753,423.995c-15.217,23.628-14.965,55.2-3.317,80.781s33.433,45.545,57.9,59.379,56.087,31.378,83.275,38.512" transform="translate(517.674 157.185)" fill="none" stroke="#ffe221" stroke-miterlimit="10" stroke-width="6"/>
    <path id="Path_760" data-name="Path 760" d="M330.407,512.146c-3.655-14.455,2.287-30.247,12.107-40.936,14.389-15.656,22.8-17.328,35.8-22.937,9.648-4.165,21.356-7.7,29.843-1.267" transform="translate(612.141 236.049)" fill="none" stroke="#ffe221" stroke-miterlimit="10" stroke-width="6"/>
    <path id="Path_761" data-name="Path 761" d="M334.883,435.466a182.255,182.255,0,0,1,54.774,46.873" transform="translate(634.666 203.629)" fill="none" stroke="#ffe221" stroke-miterlimit="10" stroke-width="6"/>
    <path id="Path_762" data-name="Path 762" d="M351.194,441.561c1.464,5.912,3.706,12.718,9.472,14.687,1.944.666,4.12.677,5.912,1.686,2.772,1.565,3.8,4.983,4.589,8.068l13.041,51.165" transform="translate(700.706 228.306)" fill="none" stroke="#ffe221" stroke-miterlimit="10" stroke-width="6"/>
    <path id="Path_763" data-name="Path 763" d="M348.483,465.793a74,74,0,0,1,45.944-8.421" transform="translate(689.73 289.368)" fill="none" stroke="#ffe221" stroke-miterlimit="10" stroke-width="6"/>
    <path id="Path_764" data-name="Path 764" d="M372.083,444.945c14.253,3.009,22.952,18.625,23.048,33.191s-6.321,28.288-12.6,41.436L339.054,610.6" transform="translate(651.553 242.008)" fill="none" stroke="#ffe221" stroke-miterlimit="10" stroke-width="6"/>
    <path id="Path_765" data-name="Path 765" d="M328.918,542.8c-1.424-16.257,3.923-32.535,12.147-46.626s19.226-26.335,30.146-38.457" transform="translate(609.586 293.723)" fill="none" stroke="#ffe221" stroke-miterlimit="10" stroke-width="6"/>
    <path id="Path_766" data-name="Path 766" d="M328.8,474.58a122.562,122.562,0,0,0,52.644,17.282" transform="translate(610.049 361.993)" fill="none" stroke="#ffe221" stroke-miterlimit="10" stroke-width="6"/>
    <path id="Path_767" data-name="Path 767" d="M338.878,474.739a403.758,403.758,0,0,0-12.319,70.941" transform="translate(600.964 362.638)" fill="none" stroke="#ffe221" stroke-miterlimit="10" stroke-width="6"/>
    <path id="Path_768" data-name="Path 768" d="M335.687,488.96a101.112,101.112,0,0,0-11.6,36.942" transform="translate(590.967 420.215)" fill="none" stroke="#ffe221" stroke-miterlimit="10" stroke-width="6"/>
    <path id="Path_769" data-name="Path 769" d="M323.676,502.665a76.186,76.186,0,0,1,21.008-7.432" transform="translate(589.291 445.613)" fill="none" stroke="#ffe221" stroke-miterlimit="10" stroke-width="6"/>
    <path id="Path_770" data-name="Path 770" d="M328.174,512.334c.787-7.366,4.508-14.6,10.713-18.645s14.929-4.377,20.882.035,8.022,13.667,3.756,19.721" transform="translate(607.503 426.579)" fill="none" stroke="#ffe221" stroke-miterlimit="10" stroke-width="6"/>
    <path id="Path_771" data-name="Path 771" d="M335.628,495.224c-2.59,10.289,4.594,22,14.944,24.355" transform="translate(635.531 445.577)" fill="none" stroke="#ffe221" stroke-miterlimit="10" stroke-width="6"/>
    <path id="Path_772" data-name="Path 772" d="M328.564,495.056a58.187,58.187,0,0,0,43.056,22.351" transform="translate(609.081 444.897)" fill="none" stroke="#ffe221" stroke-miterlimit="10" stroke-width="6"/>
    <path id="Path_773" data-name="Path 773" d="M322.294,526.268c-1.853-9.421,1.989-23.5,9.022-30.03" transform="translate(581.818 449.683)" fill="none" stroke="#ffe221" stroke-miterlimit="10" stroke-width="6"/>
    <path id="Path_774" data-name="Path 774" d="M321.594,502.341l108.872,1.035" transform="translate(580.861 474.393)" fill="none" stroke="#ffe221" stroke-miterlimit="10" stroke-width="6"/>
    <path id="Path_775" data-name="Path 775" d="M338.168,500.2A110.386,110.386,0,0,0,363.361,511" transform="translate(647.966 465.716)" fill="none" stroke="#ffe221" stroke-miterlimit="10" stroke-width="6"/>
    <path id="Path_776" data-name="Path 776" d="M366.458,456.536c4.706,4.65,9.456,9.355,12.92,14.99a41.953,41.953,0,0,1,4.115,34.382c-3.665,11.334-16.914,29.207-27.915,33.776" transform="translate(718.456 288.937)" fill="none" stroke="#ffe221" stroke-miterlimit="10" stroke-width="6"/>
    <path id="Path_777" data-name="Path 777" d="M340.728,493.06,464.555,471.3" transform="translate(658.331 348.734)" fill="none" stroke="#ffe221" stroke-miterlimit="10" stroke-width="6"/>
    <path id="Path_778" data-name="Path 778" d="M338.315,500.789q69.136-14.253,138.827-25.6" transform="translate(648.561 364.472)" fill="none" stroke="#ffe221" stroke-miterlimit="10" stroke-width="6"/>
    <path id="Path_779" data-name="Path 779" d="M351.911,478.216a154.706,154.706,0,0,0-16.176,69.593" transform="translate(638.105 376.715)" fill="none" stroke="#ffe221" stroke-miterlimit="10" stroke-width="6"/>
    <path id="Path_780" data-name="Path 780" d="M324.659,504.833c-.48,3.262,3.07,10.709,6.069,12.092s6.412,1.414,9.709,1.424c3.388.01,6.927-.015,9.941-1.57s5.246-5.17,4.095-8.356" transform="translate(593.094 484.482)" fill="none" stroke="#ffe221" stroke-miterlimit="10" stroke-width="6"/>
    <path id="Path_781" data-name="Path 781" d="M294.116,502.186c45.949,7.684,110.735,18.468,157.129,22.714" transform="translate(469.608 473.765)" fill="none" stroke="#ffe221" stroke-miterlimit="10" stroke-width="6"/>
    <path id="Path_782" data-name="Path 782" d="M295.031,498.958a9.245,9.245,0,0,0,4.493,16.015" transform="translate(460.792 460.696)" fill="none" stroke="#ffe221" stroke-miterlimit="10" stroke-width="6"/>
    <path id="Path_783" data-name="Path 783" d="M292.635,506.76a13.324,13.324,0,0,1,13.031-10.421" transform="translate(463.612 450.071)" fill="none" stroke="#ffe221" stroke-miterlimit="10" stroke-width="6"/>
    <path id="Path_784" data-name="Path 784" d="M295.766,566.209a1316.481,1316.481,0,0,1,136.944-87.1" transform="translate(476.289 380.343)" fill="none" stroke="#ffe221" stroke-miterlimit="10" stroke-width="6"/>
    <path id="Path_785" data-name="Path 785" d="M322.89,486.3c8.447-4.509,17.63-9.8,27.486-8.856" transform="translate(586.109 373.153)" fill="none" stroke="#ffe221" stroke-miterlimit="10" stroke-width="6"/>
    <path id="Path_786" data-name="Path 786" d="M297.886,559.078,421.6,481.867" transform="translate(484.872 391.497)" fill="none" stroke="#ffe221" stroke-miterlimit="10" stroke-width="6"/>
    <path id="Path_787" data-name="Path 787" d="M322.529,482.188a404.175,404.175,0,0,1,9.426,57.657" transform="translate(584.647 392.797)" fill="none" stroke="#ffe221" stroke-miterlimit="10" stroke-width="6"/>
    <path id="Path_788" data-name="Path 788" d="M325.785,482.036l4.9,26.016" transform="translate(597.83 392.181)" fill="none" stroke="#ffe221" stroke-miterlimit="10" stroke-width="6"/>
    <path id="Path_789" data-name="Path 789" d="M326.045,482.517l4.5-.873" transform="translate(598.883 390.594)" fill="none" stroke="#ffe221" stroke-miterlimit="10" stroke-width="6"/>
    <path id="Path_790" data-name="Path 790" d="M295.755,499.992l116.95-1.237" transform="translate(476.244 459.873)" fill="none" stroke="#ffe221" stroke-miterlimit="10" stroke-width="6"/>
    <path id="Path_791" data-name="Path 791" d="M326.288,536.664a23.843,23.843,0,0,1,14.667-41.011" transform="translate(570.326 447.314)" fill="none" stroke="#ffe221" stroke-miterlimit="10" stroke-width="6"/>
    <path id="Path_792" data-name="Path 792" d="M296.289,502.106q58.026,1.613,116.082,0" transform="translate(478.406 473.441)" fill="none" stroke="#ffe221" stroke-miterlimit="10" stroke-width="6"/>
    <path id="Path_793" data-name="Path 793" d="M299.7,503.19a748.5,748.5,0,0,1,120.424-7.846" transform="translate(492.221 445.694)" fill="none" stroke="#ffe221" stroke-miterlimit="10" stroke-width="6"/>
    <path id="Path_794" data-name="Path 794" d="M321.4,481.42l18.918-5.311" transform="translate(580.088 368.184)" fill="none" stroke="#ffe221" stroke-miterlimit="10" stroke-width="6"/>
    <path id="Path_795" data-name="Path 795" d="M322.485,475.769c3.3-.3,10.956-.57,14.258-.873" transform="translate(584.469 363.273)" fill="none" stroke="#ffe221" stroke-miterlimit="10" stroke-width="6"/>
    <path id="Path_796" data-name="Path 796" d="M322.513,470.614a37.155,37.155,0,0,0,3.559,20.705" transform="translate(583.557 345.936)" fill="none" stroke="#ffe221" stroke-miterlimit="10" stroke-width="6"/>
    <path id="Path_797" data-name="Path 797" d="M324.41,470.264l4.539,23.386" transform="translate(592.263 344.519)" fill="none" stroke="#ffe221" stroke-miterlimit="10" stroke-width="6"/>
    <path id="Path_798" data-name="Path 798" d="M339.477,474.629a43.309,43.309,0,0,1-21.634-4.988" transform="translate(565.674 341.996)" fill="none" stroke="#ffe221" stroke-miterlimit="10" stroke-width="6"/>
    <path id="Path_799" data-name="Path 799" d="M318.373,483.137c3.544-2.54,16.56-16.171,23.9-17.2" transform="translate(567.82 327.016)" fill="none" stroke="#ffe221" stroke-miterlimit="10" stroke-width="6"/>
    <path id="Path_800" data-name="Path 800" d="M351.228,499.612c-10.017,3.888-21.9,5.15-31.111-.368s-13.43-19.544-6.19-27.481c5.231-5.73,13.869-6.407,21.624-6.69,29.253-1.065,62.959-2.136,92.211-3.2" transform="translate(534.965 310.541)" fill="none" stroke="#ffe221" stroke-miterlimit="10" stroke-width="6"/>
    <path id="Path_801" data-name="Path 801" d="M326.035,468.733l27.607-4" transform="translate(598.842 322.129)" fill="none" stroke="#ffe221" stroke-miterlimit="10" stroke-width="6"/>
    <path id="Path_802" data-name="Path 802" d="M324.375,490.183a126.78,126.78,0,0,1,24.972-25.133" transform="translate(592.121 323.408)" fill="none" stroke="#ffe221" stroke-miterlimit="10" stroke-width="6"/>
    <path id="Path_803" data-name="Path 803" d="M317.843,496.895a56.822,56.822,0,0,1,27.031-11.673" transform="translate(565.674 405.081)" fill="none" stroke="#ffe221" stroke-miterlimit="10" stroke-width="6"/>
    <path id="Path_804" data-name="Path 804" d="M318.066,488.075c5.861,14.131,8.744,35.205,6.9,50.4" transform="translate(566.577 416.632)" fill="none" stroke="#ffe221" stroke-miterlimit="10" stroke-width="6"/>
    <path id="Path_805" data-name="Path 805" d="M284.878,499.139l19.791,6.311" transform="translate(432.206 461.428)" fill="none" stroke="#ffe221" stroke-miterlimit="10" stroke-width="6"/>
    <path id="Path_806" data-name="Path 806" d="M288.6,487.728l11.284,42.4" transform="translate(447.287 415.227)" fill="none" stroke="#ffe221" stroke-miterlimit="10" stroke-width="6"/>
    <path id="Path_807" data-name="Path 807" d="M305.336,484.144l-11.36,48.67" transform="translate(469.042 400.716)" fill="none" stroke="#ffe221" stroke-miterlimit="10" stroke-width="6"/>
    <path id="Path_808" data-name="Path 808" d="M315.278,483.977,298.92,523.5" transform="translate(489.059 400.04)" fill="none" stroke="#ffe221" stroke-miterlimit="10" stroke-width="6"/>
    <path id="Path_809" data-name="Path 809" d="M288.268,551.275a165.14,165.14,0,0,1,14.389-47.691" transform="translate(445.931 479.425)" fill="none" stroke="#ffe221" stroke-miterlimit="10" stroke-width="6"/>
    <path id="Path_810" data-name="Path 810" d="M285.594,513.464a30.179,30.179,0,0,1,12.6-8.1" transform="translate(435.105 486.64)" fill="none" stroke="#ffe221" stroke-miterlimit="10" stroke-width="6"/>
    <path id="Path_811" data-name="Path 811" d="M293.63,505.008a201.932,201.932,0,0,0,18.383,63.671" transform="translate(467.641 485.191)" fill="none" stroke="#ffe221" stroke-miterlimit="10" stroke-width="6"/>
    <path id="Path_812" data-name="Path 812" d="M292.488,535.914l6.806-22.336" transform="translate(463.017 519.889)" fill="none" stroke="#ffe221" stroke-miterlimit="10" stroke-width="6"/>
    <path id="Path_813" data-name="Path 813" d="M291.644,525.008l3.923-12.5" transform="translate(459.6 515.573)" fill="none" stroke="#ffe221" stroke-miterlimit="10" stroke-width="6"/>
    <path id="Path_814" data-name="Path 814" d="M298.244,505.688l11.168,56.072" transform="translate(486.322 487.944)" fill="none" stroke="#ffe221" stroke-miterlimit="10" stroke-width="6"/>
    <path id="Path_815" data-name="Path 815" d="M300.341,509.693l25.375,23.194" transform="translate(494.812 504.159)" fill="none" stroke="#ffe221" stroke-miterlimit="10" stroke-width="6"/>
    <path id="Path_816" data-name="Path 816" d="M300.018,504.667a194.4,194.4,0,0,0,36.18,25.789" transform="translate(493.504 483.81)" fill="none" stroke="#ffe221" stroke-miterlimit="10" stroke-width="6"/>
    <path id="Path_817" data-name="Path 817" d="M305.2,505.366a56.125,56.125,0,0,0,15.3,15.3" transform="translate(514.477 486.64)" fill="none" stroke="#ffe221" stroke-miterlimit="10" stroke-width="6"/>
    <path id="Path_818" data-name="Path 818" d="M302.235,507.347,316.4,485.6" transform="translate(502.481 406.599)" fill="none" stroke="#ffe221" stroke-miterlimit="10" stroke-width="6"/>
    <path id="Path_819" data-name="Path 819" d="M330.682,507.73c8.331,9.5,24.593,8.144,31.51-2.631" transform="translate(617.657 485.563)" fill="none" stroke="#ffe221" stroke-miterlimit="10" stroke-width="6"/>
    <path id="Path_820" data-name="Path 820" d="M335.846,569.6l157.26-89.662" transform="translate(638.565 383.675)" fill="none" stroke="#ffe221" stroke-miterlimit="10" stroke-width="6"/>
    <path id="Path_821" data-name="Path 821" d="M335.561,562.713l154.054-86.031" transform="translate(637.411 370.5)" fill="none" stroke="#ffe221" stroke-miterlimit="10" stroke-width="6"/>
    <path id="Path_822" data-name="Path 822" d="M365.97,475.248v6.3" transform="translate(760.531 364.698)" fill="none" stroke="#ffe221" stroke-miterlimit="10" stroke-width="6"/>
    <path id="Path_823" data-name="Path 823" d="M365.577,474.209a75.9,75.9,0,0,1,26.284-5.705" transform="translate(758.94 337.393)" fill="none" stroke="#ffe221" stroke-miterlimit="10" stroke-width="6"/>
    <path id="Path_824" data-name="Path 824" d="M365.749,467.866c7.8-.6,18.57-.2,26.37-.8" transform="translate(759.636 331.559)" fill="none" stroke="#ffe221" stroke-miterlimit="10" stroke-width="6"/>
    <path id="Path_825" data-name="Path 825" d="M365.749,474.074a24.23,24.23,0,0,1,20.852-8.411" transform="translate(759.636 325.351)" fill="none" stroke="#ffe221" stroke-miterlimit="10" stroke-width="6"/>
    <path id="Path_826" data-name="Path 826" d="M370.148,473.581c3.852-8.639,13.834-10.825,23.174-9.36" transform="translate(777.447 318.351)" fill="none" stroke="#ffe221" stroke-miterlimit="10" stroke-width="6"/>
    <path id="Path_827" data-name="Path 827" d="M370.972,479.934l19.014-16.05" transform="translate(780.783 318.688)" fill="none" stroke="#ffe221" stroke-miterlimit="10" stroke-width="6"/>
    <path id="Path_828" data-name="Path 828" d="M374.23,461.091l2.216,15.01" transform="translate(793.974 307.379)" fill="none" stroke="#ffe221" stroke-miterlimit="10" stroke-width="6"/>
    <path id="Path_829" data-name="Path 829" d="M371.8,468.5c-1.394,17.974-2.06,40.426.268,58.3" transform="translate(779.003 337.393)" fill="none" stroke="#ffe221" stroke-miterlimit="10" stroke-width="6"/>
    <path id="Path_830" data-name="Path 830" d="M366.858,483.69a48.17,48.17,0,0,1,22.508-2.63" transform="translate(764.126 386.796)" fill="none" stroke="#ffe221" stroke-miterlimit="10" stroke-width="6"/>
    <path id="Path_831" data-name="Path 831" d="M370.96,481.485v8.1" transform="translate(780.734 389.951)" fill="none" stroke="#ffe221" stroke-miterlimit="10" stroke-width="6"/>
    <path id="Path_832" data-name="Path 832" d="M370.948,483.46c5.286,4.362,9.32,8.023,11.158,14.621" transform="translate(780.686 397.947)" fill="none" stroke="#ffe221" stroke-miterlimit="10" stroke-width="6"/>
    <path id="Path_833" data-name="Path 833" d="M356.165,464.785c23.189-.545,45.348-16.015,53.845-37.6" transform="translate(720.833 170.109)" fill="none" stroke="#ffe221" stroke-miterlimit="10" stroke-width="6"/>
    <path id="Path_834" data-name="Path 834" d="M342.6,442.852a33.514,33.514,0,0,1,18.1-4.276" transform="translate(665.918 216.044)" fill="none" stroke="#ffe221" stroke-miterlimit="10" stroke-width="6"/>
    <path id="Path_835" data-name="Path 835" d="M381.531,481.354a309.506,309.506,0,0,0-10.072,174.158" transform="translate(750.332 389.42)" fill="none" stroke="#ffe221" stroke-miterlimit="10" stroke-width="6"/>
    <path id="Path_836" data-name="Path 836" d="M365.115,516.194a8.378,8.378,0,0,0,9.154.823" transform="translate(757.069 530.48)" fill="none" stroke="#ffe221" stroke-miterlimit="10" stroke-width="6"/>
    <path id="Path_837" data-name="Path 837" d="M367.446,541.324a11.464,11.464,0,0,0,22.432,3.534c2.015-6.654-2.272-13.551-7.154-18.494s-10.779-9.37-13.243-15.868" transform="translate(766.502 507.41)" fill="none" stroke="#ffe221" stroke-miterlimit="10" stroke-width="6"/>
    <path id="Path_838" data-name="Path 838" d="M367.188,510.714l.894,18.9" transform="translate(765.462 508.293)" fill="none" stroke="#ffe221" stroke-miterlimit="10" stroke-width="6"/>
    <path id="Path_839" data-name="Path 839" d="M370.886,606.093a422.112,422.112,0,0,1-2.181-99.33c.742-7.689,2.7-16.747,9.86-19.635" transform="translate(763.734 412.798)" fill="none" stroke="#ffe221" stroke-miterlimit="10" stroke-width="6"/>
    <path id="Path_840" data-name="Path 840" d="M296.644,482.644h0" transform="translate(479.844 392.391)" fill="none" stroke="#ffe221" stroke-miterlimit="10" stroke-width="6"/>
    <path id="Path_841" data-name="Path 841" d="M399.445,496c-26.951,19.549-40.194,52.9-44,85.981-3.807,33.155.757,71.425,20.145,98.6A81.568,81.568,0,0,0,498.437,692.09" transform="translate(712.954 448.719)" fill="none" stroke="#ffe221" stroke-miterlimit="10" stroke-width="6"/>
    <path id="Path_842" data-name="Path 842" d="M367.111,503.824c18.5-12.243,43.854-11.637,63.352-1.05s33.3,30,40.047,51.139,6.922,43.919,3.852,65.9c-2.969,21.255-9.164,42.592-22.048,59.758S419,709.179,397.555,708.528" transform="translate(765.151 443.606)" fill="none" stroke="#ffe221" stroke-miterlimit="10" stroke-width="6"/>
    <path id="Path_843" data-name="Path 843" d="M371.641,495.733l6.139,93.59" transform="translate(783.492 447.638)" fill="none" stroke="#ffe221" stroke-miterlimit="10" stroke-width="6"/>
    <path id="Path_844" data-name="Path 844" d="M373.836,540.671c4.645,4.721,12.768,5.347,18.236,1.606a15.851,15.851,0,0,0,5.781-17.6,17.185,17.185,0,0,0-14.9-11.35" transform="translate(792.379 518.893)" fill="none" stroke="#ffe221" stroke-miterlimit="10" stroke-width="6"/>
    <path id="Path_845" data-name="Path 845" d="M381.839,585.762a483.431,483.431,0,0,1-7.8-90.732" transform="translate(793.146 444.792)" fill="none" stroke="#ffe221" stroke-miterlimit="10" stroke-width="6"/>
    <path id="Path_846" data-name="Path 846" d="M367.756,503.4l15.3,33.292" transform="translate(767.762 478.696)" fill="none" stroke="#ffe221" stroke-miterlimit="10" stroke-width="6"/>
    <path id="Path_847" data-name="Path 847" d="M376.2,546.621a160.152,160.152,0,0,1,13.723-46.989" transform="translate(801.934 463.424)" fill="none" stroke="#ffe221" stroke-miterlimit="10" stroke-width="6"/>
    <path id="Path_848" data-name="Path 848" d="M377.331,540.449A342.165,342.165,0,0,0,417,505.516" transform="translate(806.529 487.247)" fill="none" stroke="#ffe221" stroke-miterlimit="10" stroke-width="6"/>
    <path id="Path_849" data-name="Path 849" d="M382.13,520.559l9.719-18.095" transform="translate(825.96 474.89)" fill="none" stroke="#ffe221" stroke-miterlimit="10" stroke-width="6"/>
    <path id="Path_850" data-name="Path 850" d="M379.663,528.507l37.119-14.727" transform="translate(815.971 520.707)" fill="none" stroke="#ffe221" stroke-miterlimit="10" stroke-width="6"/>
    <path id="Path_851" data-name="Path 851" d="M378.457,519.619a410.526,410.526,0,0,0,25.36,52.982" transform="translate(811.088 544.348)" fill="none" stroke="#ffe221" stroke-miterlimit="10" stroke-width="6"/>
    <path id="Path_852" data-name="Path 852" d="M380.069,519.423a94,94,0,0,0,27.7,16.565" transform="translate(817.615 543.554)" fill="none" stroke="#ffe221" stroke-miterlimit="10" stroke-width="6"/>
    <path id="Path_853" data-name="Path 853" d="M374.346,521.763l23.7,55.653" transform="translate(794.444 553.028)" fill="none" stroke="#ffe221" stroke-miterlimit="10" stroke-width="6"/>
    <path id="Path_854" data-name="Path 854" d="M369.792,521.208l18.019,70.406" transform="translate(776.005 550.781)" fill="none" stroke="#ffe221" stroke-miterlimit="10" stroke-width="6"/>
    <path id="Path_855" data-name="Path 855" d="M374.168,540.783l4.5-13.5" transform="translate(793.723 575.394)" fill="none" stroke="#ffe221" stroke-miterlimit="10" stroke-width="6"/>
    <path id="Path_856" data-name="Path 856" d="M363.532,587.377a286.248,286.248,0,0,0,22.028-67.225" transform="translate(750.66 546.505)" fill="none" stroke="#ffe221" stroke-miterlimit="10" stroke-width="6"/>
    <path id="Path_857" data-name="Path 857" d="M359.417,545.914l34.958-25.38" transform="translate(733.999 548.052)" fill="none" stroke="#ffe221" stroke-miterlimit="10" stroke-width="6"/>
    <path id="Path_858" data-name="Path 858" d="M357.939,521.553a172.157,172.157,0,0,1,36.947-2.312" transform="translate(728.015 542.101)" fill="none" stroke="#ffe221" stroke-miterlimit="10" stroke-width="6"/>
    <path id="Path_859" data-name="Path 859" d="M358.133,516.029l26.082,3.7" transform="translate(728.801 529.813)" fill="none" stroke="#ffe221" stroke-miterlimit="10" stroke-width="6"/>
    <path id="Path_860" data-name="Path 860" d="M359.733,512.851h16.2" transform="translate(735.279 516.945)" fill="none" stroke="#ffe221" stroke-miterlimit="10" stroke-width="6"/>
    <path id="Path_861" data-name="Path 861" d="M361.162,506.972a5.1,5.1,0,0,1,5.407,1.717" transform="translate(741.064 492.299)" fill="none" stroke="#ffe221" stroke-miterlimit="10" stroke-width="6"/>
    <path id="Path_862" data-name="Path 862" d="M387.4,500.55c-29.919,35.387-38.583,87.471-21.735,130.638,7.71,19.741,21.463,38.406,41.309,45.833" transform="translate(724.859 467.141)" fill="none" stroke="#ffe221" stroke-miterlimit="10" stroke-width="6"/>
    <path id="Path_863" data-name="Path 863" d="M372.8,450.852a81.325,81.325,0,0,0,43.844,3.777" transform="translate(788.192 265.924)" fill="none" stroke="#ffe221" stroke-miterlimit="10" stroke-width="6"/>
    <path id="Path_864" data-name="Path 864" d="M322.842,476.851" transform="translate(585.914 371.189)" fill="none" stroke="#ffe221" stroke-miterlimit="10" stroke-width="6"/>
    <path id="Path_865" data-name="Path 865" d="M322.862,476.851a11.381,11.381,0,0,0,2.7,8.1" transform="translate(585.895 371.188)" fill="none" stroke="#ffe221" stroke-miterlimit="10" stroke-width="6"/>
    <path id="Path_866" data-name="Path 866" d="M365.852,489.653a29.9,29.9,0,0,1,16.974-27.96" transform="translate(759.917 309.817)" fill="none" stroke="#ffe221" stroke-miterlimit="10" stroke-width="6"/>
    <path id="Path_867" data-name="Path 867" d="M356.868,442.768a20.238,20.238,0,0,0,12.536,6.811c2.449.328,4.938.2,7.386.55a9.826,9.826,0,0,1,6.478,3.2" transform="translate(723.679 233.193)" fill="none" stroke="#ffe221" stroke-miterlimit="10" stroke-width="6"/>
    <path id="Path_868" data-name="Path 868" d="M364.188,478.657a11.522,11.522,0,0,0,6.962-8.992" transform="translate(753.316 342.094)" fill="none" stroke="#ffe221" stroke-miterlimit="10" stroke-width="6"/>
    <path id="Path_869" data-name="Path 869" d="M366.973,479.881a21.051,21.051,0,0,0,.6,6.9" transform="translate(764.33 383.457)" fill="none" stroke="#ffe221" stroke-miterlimit="10" stroke-width="6"/>
    <path id="Path_870" data-name="Path 870" d="M369.766,471.864a193.822,193.822,0,0,0-.283,28.8" transform="translate(773.119 350.997)" fill="none" stroke="#ffe221" stroke-miterlimit="10" stroke-width="6"/>
    <path id="Path_871" data-name="Path 871" d="M321.594,503.878v10.8l117.576,2.963c2.726-6.922-3.443-15.646-10.88-15.384" transform="translate(580.861 474.031)" fill="none" stroke="#ffe221" stroke-miterlimit="10" stroke-width="6"/>
    <path id="Path_872" data-name="Path 872" d="M330.18,479.3a67.807,67.807,0,0,0,35.831,11.006" transform="translate(615.624 381.1)" fill="none" stroke="#ffe221" stroke-miterlimit="10" stroke-width="6"/>
    <path id="Path_873" data-name="Path 873" d="M329.8,482.01l20.417,7.1" transform="translate(614.066 392.076)" fill="none" stroke="#ffe221" stroke-miterlimit="10" stroke-width="6"/>
    <path id="Path_874" data-name="Path 874" d="M327.281,485.24a31.433,31.433,0,0,0,26.173,12.511" transform="translate(603.887 405.154)" fill="none" stroke="#ffe221" stroke-miterlimit="10" stroke-width="6"/>
    <path id="Path_875" data-name="Path 875" d="M252.071,450.464c18.125-27.228,50.619-44.268,83.32-43.692s64.579,18.741,81.735,46.59,19.054,64.488,4.862,93.958" transform="translate(299.377 87.393)" fill="none" stroke="#ffe221" stroke-miterlimit="10" stroke-width="6"/>
    <path id="Path_876" data-name="Path 876" d="M282.643,447.44c5.316-9.355,16.959-13.91,27.677-12.915s20.5,6.7,28.6,13.8c25.986,22.8,36.306,61.843,24.971,94.5" transform="translate(423.156 199.274)" fill="none" stroke="#ffe221" stroke-miterlimit="10" stroke-width="6"/>
    <path id="Path_877" data-name="Path 877" d="M295.017,457.806a48.626,48.626,0,0,1,55.825,61.752" transform="translate(473.256 290.671)" fill="none" stroke="#ffe221" stroke-miterlimit="10" stroke-width="6"/>
    <path id="Path_878" data-name="Path 878" d="M305.377,468.653l12.6,30.6" transform="translate(515.202 337.996)" fill="none" stroke="#ffe221" stroke-miterlimit="10" stroke-width="6"/>
    <path id="Path_879" data-name="Path 879" d="M237,480.455c-2.12-12.607,3.62-25.562,12.395-34.852s20.291-15.485,31.848-20.953c10.931-5.17,22.684-9.941,34.721-8.79,17.322,1.656,31.515,15.6,38.517,31.535s8.154,33.731,9.2,51.1" transform="translate(236.561 123.55)" fill="none" stroke="#ffe221" stroke-miterlimit="10" stroke-width="6"/>
    <path id="Path_880" data-name="Path 880" d="M231.172,443.735c15.424-16.388,43.258-19.12,61.575-6.038s24.769,40.289,14.278,60.2" transform="translate(214.761 179.153)" fill="none" stroke="#ffe221" stroke-miterlimit="10" stroke-width="6"/>
    <path id="Path_881" data-name="Path 881" d="M250.378,470.11c6.26-16.616,27.465-25.724,43.829-18.822s24.633,28.445,17.1,44.526" transform="translate(292.522 258.278)" fill="none" stroke="#ffe221" stroke-miterlimit="10" stroke-width="6"/>
    <path id="Path_882" data-name="Path 882" d="M265.086,546.376c-10.133-14.96-14.207-34.544-8.265-51.609s22.856-30.439,40.915-29.823,34.807,17.1,33.5,35.119" transform="translate(307.445 322.898)" fill="none" stroke="#ffe221" stroke-miterlimit="10" stroke-width="6"/>
    <path id="Path_883" data-name="Path 883" d="M265.527,488.919a16.171,16.171,0,0,1,29.328-9.658" transform="translate(353.852 353.749)" fill="none" stroke="#ffe221" stroke-miterlimit="10" stroke-width="6"/>
    <path id="Path_884" data-name="Path 884" d="M247.465,484.266c-5.806,18.711,2.444,40.84,19.079,51.185s40.133,7.952,54.345-5.533" transform="translate(273.23 401.21)" fill="none" stroke="#ffe221" stroke-miterlimit="10" stroke-width="6"/>
    <path id="Path_885" data-name="Path 885" d="M256.448,495.783c-2.56,16.247,6.139,33.66,20.665,41.37s33.822,5.16,45.843-6.058" transform="translate(315.296 447.84)" fill="none" stroke="#ffe221" stroke-miterlimit="10" stroke-width="6"/>
    <path id="Path_886" data-name="Path 886" d="M265.634,505.056c1.6,6.109,10.239,8.956,15.152,4.988" transform="translate(354.29 485.385)" fill="none" stroke="#ffe221" stroke-miterlimit="10" stroke-width="6"/>
    <path id="Path_887" data-name="Path 887" d="M269.04,506.076a25.9,25.9,0,0,0,39.577,26.865" transform="translate(366.096 489.515)" fill="none" stroke="#ffe221" stroke-miterlimit="10" stroke-width="6"/>
    <path id="Path_888" data-name="Path 888" d="M269.532,453.456C234.9,472.7,217.2,517.909,229.556,555.553s53.411,63.564,92.716,58.536" transform="translate(192.289 276.467)" fill="none" stroke="#ffe221" stroke-miterlimit="10" stroke-width="6"/>
    <path id="Path_889" data-name="Path 889" d="M220.835,476.485c-1.807,30.929,14.778,62.237,41.38,78.115s62.035,15.616,88.394-.656" transform="translate(172.363 369.707)" fill="none" stroke="#ffe221" stroke-miterlimit="10" stroke-width="6"/>
    <path id="Path_890" data-name="Path 890" d="M268.578,438.963c30.833,10.486,50.15,46.928,41.531,78.332" transform="translate(366.21 217.788)" fill="none" stroke="#ffe221" stroke-miterlimit="10" stroke-width="6"/>
    <path id="Path_891" data-name="Path 891" d="M276.553,449.818c19.19-8.477,44.384,1.464,52.613,20.766" transform="translate(398.499 249.403)" fill="none" stroke="#ffe221" stroke-miterlimit="10" stroke-width="6"/>
    <path id="Path_892" data-name="Path 892" d="M267.967,483.009c-7.24,15.02,2.474,35.539,18.676,39.456" transform="translate(353.887 396.121)" fill="none" stroke="#ffe221" stroke-miterlimit="10" stroke-width="6"/>
    <path id="Path_893" data-name="Path 893" d="M257.536,612.18c-12.885-.181-24.855-8.118-32.09-18.781s-10.2-23.729-10.84-36.6c-2.423-48.953,30.581-97.553,76.974-113.366" transform="translate(147.183 235.89)" fill="none" stroke="#ffe221" stroke-miterlimit="10" stroke-width="6"/>
    <path id="Path_894" data-name="Path 894" d="M261.818,611.7c-26.728-12.8-43.233-42.092-45.56-71.633s7.937-59,23.573-84.169c13.2-21.25,31.434-40.835,55.289-48.363s53.755.495,65.15,22.765" transform="translate(153.044 79.39)" fill="none" stroke="#ffe221" stroke-miterlimit="10" stroke-width="6"/>
    <path id="Path_895" data-name="Path 895" d="M280.834,459.6c23.851,8.734,40.057,34.827,37.305,60.075" transform="translate(415.832 301.347)" fill="none" stroke="#ffe221" stroke-miterlimit="10" stroke-width="6"/>
    <path id="Path_896" data-name="Path 896" d="M288.6,463.7a35.608,35.608,0,0,1,14.682,32.212" transform="translate(447.263 317.951)" fill="none" stroke="#ffe221" stroke-miterlimit="10" stroke-width="6"/>
    <path id="Path_897" data-name="Path 897" d="M278.265,468.32a53.874,53.874,0,0,1,16.328,37.674" transform="translate(405.431 336.648)" fill="none" stroke="#ffe221" stroke-miterlimit="10" stroke-width="6"/>
    <path id="Path_898" data-name="Path 898" d="M389.656,489.123c30.671,24.2,49.523,62.732,49.811,101.8" transform="translate(856.431 420.875)" fill="none" stroke="#ffe221" stroke-miterlimit="10" stroke-width="6"/>
    <path id="Path_899" data-name="Path 899" d="M312.144,563.186A63.893,63.893,0,0,0,351.459,516.4" transform="translate(542.6 531.331)" fill="none" stroke="#ffe221" stroke-miterlimit="10" stroke-width="6"/>
    <path id="Path_900" data-name="Path 900" d="M318.565,544.465a37.555,37.555,0,0,0,12.587-25.2" transform="translate(568.598 542.923)" fill="none" stroke="#ffe221" stroke-miterlimit="10" stroke-width="6"/>
    <path id="Path_901" data-name="Path 901" d="M244.439,432.71a28.823,28.823,0,0,0-3.948-32.479" transform="translate(252.491 60.969)" fill="none" stroke="#ffe221" stroke-miterlimit="10" stroke-width="6"/>
    <path id="Path_902" data-name="Path 902" d="M255.256,462.1c-18.372-12.021-24.254-39.593-12.39-58.066s39.381-24.6,57.955-12.89,24.936,39.164,13.394,57.844" transform="translate(237.161 0)" fill="none" stroke="#ffe221" stroke-miterlimit="10" stroke-width="6"/>
    <path id="Path_903" data-name="Path 903" d="M248.342,398.062a34.586,34.586,0,0,1,35.639,43.45" transform="translate(284.278 51.915)" fill="none" stroke="#ffe221" stroke-miterlimit="10" stroke-width="6"/>
    <path id="Path_904" data-name="Path 904" d="M255.706,405.643c10.633-5.685,25.814,3.519,25.683,15.576" transform="translate(314.094 75.904)" fill="none" stroke="#ffe221" stroke-miterlimit="10" stroke-width="6"/>
    <path id="Path_905" data-name="Path 905" d="M271.918,412.6c27.112,13.521,43.107,46.272,37.1,75.964" transform="translate(379.733 111.045)" fill="none" stroke="#ffe221" stroke-miterlimit="10" stroke-width="6"/>
    <path id="Path_906" data-name="Path 906" d="M278.644,431.584" transform="translate(406.965 187.911)" fill="none" stroke="#ffe221" stroke-miterlimit="10" stroke-width="6"/>
    <path id="Path_907" data-name="Path 907" d="M239.616,457.819a54.281,54.281,0,0,1,27.556,79.69" transform="translate(248.949 294.132)" fill="none" stroke="#ffe221" stroke-miterlimit="10" stroke-width="6"/>
    <path id="Path_908" data-name="Path 908" d="M258.367,469.009a85.917,85.917,0,0,1-12.511,41.41" transform="translate(274.213 339.438)" fill="none" stroke="#ffe221" stroke-miterlimit="10" stroke-width="6"/>
    <path id="Path_909" data-name="Path 909" d="M231,540.691a86.742,86.742,0,0,1,118.566-4.362" transform="translate(214.052 525.694)" fill="none" stroke="#ffe221" stroke-miterlimit="10" stroke-width="6"/>
    <path id="Path_910" data-name="Path 910" d="M254.793,558.321c13.172-26.643,40.446-45.788,69.976-49.125" transform="translate(310.397 502.147)" fill="none" stroke="#ffe221" stroke-miterlimit="10" stroke-width="6"/>
    <path id="Path_911" data-name="Path 911" d="M444.953,580.7c2.423-21.346.015-43.889-10.951-62.363S302.9,458.71,284.9,568.234c-8.078,49.165-30.293,69.936-59.086,72.632-30.439,2.853-47.686,20.7-47.686,20.7H770.187" transform="translate(0 445.618)" fill="none" stroke="#ffe221" stroke-miterlimit="10" stroke-width="6"/>
    <path id="Path_912" data-name="Path 912" d="M231.185,508.443a27.887,27.887,0,0,1,29.636,41.865" transform="translate(214.813 496.735)" fill="none" stroke="#ffe221" stroke-miterlimit="10" stroke-width="6"/>
    <path id="Path_913" data-name="Path 913" d="M330.209,550.78a169.542,169.542,0,0,0-14.783-64.721" transform="translate(555.888 408.47)" fill="none" stroke="#ffe221" stroke-miterlimit="10" stroke-width="6"/>
    <path id="Path_914" data-name="Path 914" d="M474.151,531.474c-19.877-35.841-52.573-59.227-89.53-59.227-60.591,0-109.705,62.842-109.705,140.367S324.03,752.98,384.62,752.98c57.642,0,104.9-56.885,109.357-129.168" transform="translate(391.867 352.544)" fill="none" stroke="#ffe221" stroke-miterlimit="10" stroke-width="6"/>
    <path id="Path_915" data-name="Path 915" d="M324.264,542.1a139.1,139.1,0,0,0-12.223-53.568" transform="translate(542.183 418.471)" fill="none" stroke="#ffe221" stroke-miterlimit="10" stroke-width="6"/>
    <path id="Path_916" data-name="Path 916" d="M441.029,522.559c-16.53-27.551-42.6-45.328-71.93-45.328-49.958,0-90.454,51.573-90.454,115.2s40.5,115.193,90.454,115.193c47.206,0,85.971-46.05,90.1-104.8" transform="translate(406.965 372.727)" fill="none" stroke="#ffe221" stroke-miterlimit="10" stroke-width="6"/>
    <path id="Path_917" data-name="Path 917" d="M433.185,521.165c-15.5-25.845-39.956-42.521-67.472-42.521-46.863,0-84.855,48.383-84.855,108.065s37.992,108.059,84.855,108.059c44.283,0,80.645-43.2,84.517-98.315" transform="translate(415.929 378.448)" fill="none" stroke="#ffe221" stroke-miterlimit="10" stroke-width="6"/>
    <circle id="Ellipse_47" data-name="Ellipse 47" cx="8.522" cy="8.522" r="8.522" transform="translate(759.441 960.074)" fill="none" stroke="#ffe221" stroke-miterlimit="10" stroke-width="6"/>
    <path id="Path_918" data-name="Path 918" d="M432.45,494.011c-48.771,19.307-83.967,74.4-83.967,139.342,0,81.023,54.78,146.708,122.358,146.708S593.2,714.376,593.2,633.353s-54.78-146.708-122.358-146.708" transform="translate(689.73 410.842)" fill="none" stroke="#ffe221" stroke-miterlimit="10" stroke-width="6"/>
  </g>
</svg>
