<?xml version="1.0" encoding="utf-8"?>
<!-- Generator: Adobe Illustrator 23.0.1, SVG Export Plug-In . SVG Version: 6.00 Build 0)  -->
<svg version="1.1" id="Warstwa_1" xmlns="http://www.w3.org/2000/svg" xmlns:xlink="http://www.w3.org/1999/xlink" x="0px" y="0px"
	 viewBox="0 0 50 50" style="enable-background:new 0 0 50 50;" xml:space="preserve">
<style type="text/css">
	.st0{stroke:#FFFFFF;stroke-miterlimit:10;}
	.st1{enable-background:new    ;}
	.st2{fill:#413B3B;}
</style>
<g id="XMLID_1_">
	<path id="XMLID_51_" d="M-763.2-37.1c-5.62-4.67-11.83-7.19-17.21-8.55c-5.39-1.36-9.99-1.59-12.59-1.59c-1,0-1.7,0.04-2.04,0.06
		h-24.41v8.93h6.24l-2.7,149.67h-3.54v8.93h30.18v-8.93h-9.12V45.23c1.81,0.16,3.96,0.28,6.35,0.28c4.02,0,8.72-0.34,13.59-1.44
		c3.65-0.83,7.4-2.08,11.01-3.99c5.4-2.84,10.49-7.19,14.1-13.47c3.62-6.27,5.74-14.34,5.73-24.43c0-11.14-2.16-19.99-5.73-26.91
		C-756.01-29.92-759.46-33.99-763.2-37.1z M-760.21,20.53c-1.67,3.39-3.78,6.01-6.19,8.12c-3.61,3.15-7.98,5.15-12.51,6.35
		c-4.52,1.2-9.18,1.59-13.14,1.59c-2.45,0-4.63-0.15-6.35-0.32v-74.53h3.69l0.17-0.01l0.09-0.01c0.2-0.01,0.7-0.04,1.44-0.04
		c1.83,0,5.12,0.15,8.94,0.98c2.87,0.62,6.03,1.61,9.13,3.17c4.65,2.35,9.13,5.91,12.55,11.56c3.41,5.66,5.83,13.54,5.84,24.8
		C-756.54,10.08-757.99,16.01-760.21,20.53z"/>
	<path id="XMLID_55_" d="M-681.8-38.32h13.24v-8.93h-64.56v8.93h16.05l-15.23,132.43l0.48-4.41l-2.79,26.1l-8.34-3.9v8.83h30.88
		v-0.3l7.87-73.51h23.23l7.42,64.49h-7.63v8.93h25.26v-8.93h-8.64L-681.8-38.32z M-716.87,38l8.78-76.32h17.3l8.78,76.32H-716.87z"
		/>
	<path id="XMLID_56_" d="M-766.61,110.68c-5.65,0-10.23,4.58-10.23,10.23h20.46C-756.38,115.26-760.96,110.68-766.61,110.68z"/>
	<path id="XMLID_57_" d="M-638.96,110.68c-5.65,0-10.23,4.58-10.23,10.23h20.46C-628.73,115.26-633.31,110.68-638.96,110.68z"/>
	<path id="XMLID_58_" d="M-511.32,110.68c-5.65,0-10.23,4.58-10.23,10.23h20.46C-501.09,115.26-505.67,110.68-511.32,110.68z"/>
	<path id="XMLID_61_" d="M-420.1-38.26h12.99v-8.93h-30.18v8.93h5.79l-43.81,55.2v-55.2h9.12v-8.93h-30.18v8.93h6.24l-2.7,149.67
		h-3.54v8.93h30.18v-8.93h-9.12V31.29l21.57-27.18l24.89,117.26l3.48-0.74l0,0l0.01-0.01l0.87-0.19l-0.12-0.56l14.7-14.41
		l3.62,15.92l4.35-0.99l-32.1-141.14L-420.1-38.26z M-413.68,88.85l-14.49,14.21l-1.21-5.69l14.42-14.14L-413.68,88.85z
		 M-416.12,78.12l-14.36,14.07l-1.29-6.06l14.28-14L-416.12,78.12z M-418.64,67.02l-14.22,13.94l-1.18-5.56l14.15-13.87
		L-418.64,67.02z M-421.05,56.42l-14.08,13.81l-1.35-6.37l14.01-13.73L-421.05,56.42z M-423.76,45.13l-13.83,13.56l-1.28-6.02
		L-425,39.07l1.42,6.24L-423.76,45.13z M-426.42,34.21l-13.55,13.28l-1.13-5.33l13.74-13.47l1.35,5.93L-426.42,34.21z
		 M-428.52,23.58l-13.67,13.4l-1.18-5.56l13.6-13.34L-428.52,23.58z M-430.93,12.98l-13.54,13.27l-1.27-5.98l13.46-13.2
		L-430.93,12.98z M-433.44,1.96l-13.4,13.14l-1.17-5.5l13.33-13.07L-433.44,1.96z M-425.69,114.71l-1.38-6.48l14.56-14.27l1.46,6.4
		L-425.69,114.71z M-435.84-8.59l-13.27,13.01l-1.03-4.84l12.56-15.82L-435.84-8.59z"/>
	<path id="XMLID_72_" d="M-383.67,110.68c-5.65,0-10.23,4.58-10.23,10.23h20.46C-373.45,115.26-378.02,110.68-383.67,110.68z"/>
	<path id="XMLID_75_" d="M-582.52,44.76c1.19-0.19,2.39-0.41,3.61-0.69c3.65-0.83,7.4-2.08,11.01-3.99
		c5.4-2.84,10.49-7.19,14.1-13.47c3.62-6.27,5.74-14.34,5.73-24.43c0-11.14-2.16-19.99-5.73-26.91c-2.67-5.19-6.12-9.26-9.86-12.37
		c-5.62-4.67-11.83-7.19-17.21-8.55c-5.39-1.36-9.99-1.59-12.59-1.59c-1,0-1.7,0.04-2.04,0.06h-24.41v8.93h6.24l-2.7,149.67h-3.54
		v8.93h30.18v-8.93h-9.12V55.39c28.92,7.72,30.48,65.52,30.48,65.52l32.64-0.34C-535.73,67.54-562.33,50.25-582.52,44.76z
		 M-593.46-38.32c1.83,0,5.12,0.15,8.94,0.98c2.87,0.62,6.03,1.61,9.13,3.17c4.65,2.35,9.13,5.91,12.55,11.56
		c3.41,5.66,5.83,13.54,5.84,24.8c0,7.9-1.45,13.83-3.67,18.34c-1.67,3.39-3.78,6.01-6.19,8.12c-3.61,3.15-7.98,5.15-12.51,6.35
		c-4.52,1.2-9.18,1.59-13.14,1.59c-2.45,0-4.63-0.15-6.35-0.32v-74.53h3.69l0.17-0.01l0.09-0.01
		C-594.7-38.3-594.2-38.32-593.46-38.32z M-561.09,113.86c0.37-45.14-25.13-61.34-25.13-61.34c41.15,4.73,42.24,60.56,42.24,60.56
		L-561.09,113.86z"/>
</g>
<g id="XMLID_3_">
	<path id="XMLID_7_" d="M-747.84-76.93c0.71,0.36,1.8,0.73,2.93,0.73c1.21,0,1.85-0.5,1.85-1.26c0-0.73-0.55-1.14-1.96-1.65
		c-1.94-0.68-3.2-1.75-3.2-3.45c0-1.99,1.66-3.52,4.42-3.52c1.32,0,2.29,0.28,2.98,0.59l-0.59,2.13c-0.47-0.23-1.3-0.55-2.44-0.55
		s-1.7,0.52-1.7,1.13c0,0.74,0.66,1.07,2.17,1.65c2.06,0.76,3.03,1.84,3.03,3.48c0,1.96-1.51,3.62-4.71,3.62
		c-1.33,0-2.65-0.35-3.31-0.71L-747.84-76.93z"/>
	<path id="XMLID_9_" d="M-725.58-83.67h-3.13v-2.22h8.97v2.22h-3.19v9.46h-2.65V-83.67z"/>
	<path id="XMLID_11_" d="M-697.41-80.17c0,3.83-2.32,6.15-5.73,6.15c-3.46,0-5.49-2.62-5.49-5.94c0-3.5,2.23-6.11,5.68-6.11
		C-699.37-86.08-697.41-83.39-697.41-80.17z M-705.85-80.02c0,2.29,1.07,3.9,2.84,3.9c1.78,0,2.81-1.7,2.81-3.97
		c0-2.1-1-3.9-2.82-3.9C-704.81-83.98-705.85-82.29-705.85-80.02z"/>
	<path id="XMLID_14_" d="M-683.17-74.21l-2.77-11.67h2.82l0.88,4.81c0.26,1.39,0.5,2.89,0.69,4.07h0.03
		c0.19-1.26,0.47-2.67,0.76-4.1l0.99-4.78h2.81l0.94,4.92c0.26,1.37,0.45,2.62,0.62,3.91h0.03c0.17-1.3,0.43-2.67,0.68-4.05
		l0.95-4.78h2.68l-3.01,11.67h-2.86l-0.99-5.02c-0.23-1.18-0.42-2.27-0.55-3.6h-0.03c-0.21,1.32-0.4,2.42-0.68,3.6l-1.11,5.02
		H-683.17z"/>
	<path id="XMLID_16_" d="M-657.16-77.21l-0.83,3h-2.74l3.57-11.67h3.46l3.62,11.67h-2.84l-0.9-3H-657.16z M-654.2-79.19l-0.73-2.48
		c-0.21-0.69-0.42-1.56-0.59-2.25h-0.03c-0.17,0.69-0.35,1.58-0.54,2.25l-0.69,2.48H-654.2z"/>
	<path id="XMLID_20_" d="M-637.77-85.73c0.85-0.14,2.11-0.24,3.52-0.24c1.73,0,2.94,0.26,3.78,0.92c0.69,0.55,1.07,1.37,1.07,2.44
		c0,1.49-1.06,2.51-2.06,2.87v0.05c0.81,0.33,1.26,1.11,1.56,2.18c0.36,1.32,0.73,2.84,0.95,3.29h-2.7
		c-0.19-0.33-0.47-1.28-0.81-2.72c-0.31-1.45-0.81-1.85-1.89-1.87h-0.8v4.59h-2.62V-85.73z M-635.16-80.71h1.04
		c1.32,0,2.1-0.66,2.1-1.68c0-1.07-0.73-1.61-1.94-1.63c-0.64,0-1,0.05-1.19,0.09V-80.71z"/>
	<path id="XMLID_23_" d="M-617.51-75.63l5.56-8v-0.07h-5.04v-2.18h8.47v1.52l-5.44,7.9v0.07h5.52v2.18h-9.07V-75.63z"/>
	<path id="XMLID_25_" d="M-593.22-74.21v-4.78l-3.69-6.89h3.01l1.2,2.81c0.36,0.85,0.61,1.47,0.9,2.23h0.04
		c0.26-0.73,0.54-1.4,0.88-2.23l1.18-2.81h2.96l-3.84,6.81v4.87H-593.22z"/>
	<path id="XMLID_27_" d="M-575.16-76.93c0.71,0.36,1.8,0.73,2.93,0.73c1.21,0,1.85-0.5,1.85-1.26c0-0.73-0.55-1.14-1.96-1.65
		c-1.94-0.68-3.2-1.75-3.2-3.45c0-1.99,1.66-3.52,4.42-3.52c1.32,0,2.29,0.28,2.98,0.59l-0.59,2.13c-0.47-0.23-1.3-0.55-2.44-0.55
		c-1.14,0-1.7,0.52-1.7,1.13c0,0.74,0.66,1.07,2.17,1.65c2.06,0.76,3.03,1.84,3.03,3.48c0,1.96-1.51,3.62-4.71,3.62
		c-1.33,0-2.65-0.35-3.31-0.71L-575.16-76.93z"/>
	<path id="XMLID_29_" d="M-555.9-75.63l5.56-8v-0.07h-5.04v-2.18h8.47v1.52l-5.44,7.9v0.07h5.53v2.18h-9.08V-75.63z"/>
	<path id="XMLID_31_" d="M-527.47-79.15h-4.29v2.77h4.8v2.17h-7.45v-11.67h7.21v2.17h-4.55v2.42h4.29V-79.15z"/>
	<path id="XMLID_33_" d="M-514.43-74.21v-11.67h3.08l2.42,4.28c0.69,1.23,1.39,2.68,1.91,4h0.05c-0.17-1.54-0.23-3.12-0.23-4.87
		v-3.41h2.42v11.67h-2.77l-2.49-4.5c-0.69-1.25-1.46-2.75-2.03-4.12l-0.05,0.02c0.07,1.54,0.1,3.19,0.1,5.09v3.52H-514.43z"/>
	<path id="XMLID_35_" d="M-489.09-85.89v11.67h-2.65v-11.67H-489.09z"/>
	<path id="XMLID_37_" d="M-469.12-79.15h-4.29v2.77h4.8v2.17h-7.45v-11.67h7.21v2.17h-4.55v2.42h4.29V-79.15z"/>
</g>
<line id="XMLID_47_" class="st0" x1="-713.58" y1="-61.4" x2="-492.7" y2="-61.4"/>
<g id="logo" transform="translate(-157 -89)">
	<g class="st1">
		<path class="st2" d="M35.68,106.65c0.37,0.58,0.65,1.2,0.83,1.85c0.22,0.83,0.29,1.63,0.22,2.4c0.01-0.07-0.03,0.15-0.11,0.66
			c-0.15,0.93-0.53,1.82-1.13,2.65c-0.92,1.28-2.14,2.13-3.66,2.55c-0.63,0.18-1.2,0.27-1.71,0.27c-0.18,0-0.86,0-2.03,0
			c-0.65,0-1.1,0-1.35,0c-0.01,0-0.11,0.02-0.29,0.05c-0.14,0.02-0.23,0.1-0.25,0.25c-0.03,0.18-0.04,0.27-0.04,0.28
			c-0.01,0.36-0.01,0.87-0.01,1.55c0,1.25,0,1.84,0,1.75c0,0.13-0.02,0.25-0.05,0.38c-0.03,0.09-0.09,0.16-0.2,0.19
			c-0.08,0.03-0.14,0.04-0.18,0.04c-0.2,0.02-0.36,0.03-0.48,0.03h-3.01c-0.12,0-0.28-0.01-0.48-0.03c-0.01,0-0.07-0.01-0.19-0.04
			c-0.14-0.03-0.22-0.11-0.24-0.27c-0.03-0.16-0.05-0.25-0.05-0.28c-0.01-0.25-0.01-0.5-0.01-0.77v-7.64v-6.68
			c0-0.43,0-0.98,0.01-1.65c0-0.13,0.02-0.25,0.06-0.38c0.04-0.14,0.13-0.22,0.27-0.24c0.12-0.02,0.34-0.03,0.67-0.03h7.26
			c0.06,0,0.16,0,0.29,0h0.28c1.1,0,2.15,0.27,3.15,0.81c1.01,0.55,1.51,0.83,1.51,0.83S35.06,105.67,35.68,106.65z M22.9,113.92
			c0.07,0,0.17-0.01,0.32-0.04c0.13-0.03,0.25-0.03,0.33-0.01c-0.06-0.07-0.1-0.11-0.11-0.13c-0.06-0.07-0.14-0.11-0.25-0.13
			c-0.2-0.03-0.39-0.04-0.57-0.01c-0.08,0.01-0.12,0.05-0.11,0.11c0.01,0.03,0.03,0.06,0.05,0.09
			C22.62,113.87,22.74,113.91,22.9,113.92z M22.82,112.27c-0.03,0.02-0.05,0.04-0.04,0.06c0.03,0.06,0.08,0.07,0.14,0.04
			c0.01,0,0.02-0.02,0.04-0.06C22.93,112.25,22.88,112.24,22.82,112.27z M23.01,105.66c-0.14-0.04-0.22-0.03-0.23,0.05
			c-0.01,0.08,0.06,0.12,0.2,0.1c0.08-0.01,0.11-0.04,0.09-0.1C23.07,105.69,23.05,105.67,23.01,105.66z M22.87,115.96h-0.09
			l0.05,0.05L22.87,115.96z M22.91,107.83c-0.09,0.01-0.12,0.05-0.08,0.11c0.01,0.03,0.03,0.04,0.08,0.04
			c0.07,0.01,0.11-0.02,0.14-0.09c-0.03-0.03-0.04-0.05-0.05-0.06C22.99,107.83,22.96,107.83,22.91,107.83z M23.56,111.48
			c-0.35-0.02-0.57-0.02-0.66,0c-0.03,0.01-0.06,0.03-0.06,0.06c-0.01,0.03,0.01,0.05,0.05,0.06c0.07,0.03,0.24,0.03,0.51,0.03
			c0,0.01,0.05,0.01,0.15,0c0.08-0.01,0.11-0.05,0.09-0.11C23.62,111.5,23.59,111.48,23.56,111.48z M23.21,114.5l0.01-0.08
			l-0.08-0.04c-0.12-0.02-0.21-0.01-0.27,0.03c-0.03,0.02-0.03,0.04,0,0.08c0.07,0.09,0.1,0.14,0.1,0.14S23.05,114.59,23.21,114.5z
			 M23.12,109.44c0-0.03,0-0.05,0-0.06c-0.04,0-0.07,0-0.08,0.01v0.05H23.12z M23.32,118.91l0.03-0.08l-0.06-0.03
			c-0.01,0.01-0.02,0.03-0.04,0.08c0.04,0.02,0.06,0.03,0.06,0.03S23.31,118.91,23.32,118.91z M23.5,110.73
			c-0.08-0.01-0.12,0.03-0.11,0.1c0.01,0.07,0.05,0.09,0.13,0.08c0.08-0.03,0.11-0.07,0.06-0.14
			C23.56,110.76,23.53,110.74,23.5,110.73z M23.4,111.64h0.01C23.41,111.64,23.4,111.64,23.4,111.64z M23.59,118.14
			c0.07-0.06,0.05-0.09-0.04-0.1l-0.04,0.08L23.59,118.14z M23.66,107.18c-0.06-0.04-0.11-0.03-0.14,0.05
			c0.03,0.04,0.04,0.07,0.04,0.08c0.07,0.04,0.11,0.02,0.13-0.06C23.7,107.22,23.69,107.2,23.66,107.18z M23.84,113.84
			c0.03,0,0.06-0.01,0.08-0.04c0.03-0.02,0.04-0.04,0.04-0.06c0.01-0.03,0-0.05-0.03-0.06c-0.03-0.02-0.06-0.02-0.09-0.01
			c-0.06,0.03-0.15,0.09-0.27,0.2C23.73,113.85,23.81,113.84,23.84,113.84z M24.12,112.4c0.09,0,0.13-0.03,0.1-0.1
			c-0.01-0.02-0.03-0.03-0.08-0.05c-0.03-0.01-0.06-0.01-0.1,0c-0.25,0.02-0.31,0.05-0.2,0.1l0.19,0.05H24.12z M23.84,104.97
			c-0.03,0.02-0.01,0.04,0.04,0.06c0.04,0.03,0.1,0.04,0.17,0.05c0.07,0.01,0.1-0.03,0.1-0.1l-0.05-0.05
			c-0.11-0.03-0.17-0.04-0.17-0.04S23.9,104.92,23.84,104.97z M24,114.5c0.09-0.03,0.1-0.05,0.01-0.09l-0.08,0.04
			c0.01,0,0.02,0.01,0.04,0.03c0.01,0.01,0.01,0.01,0.01,0.01S24,114.5,24,114.5z M24.11,115.24c0.03-0.03,0.04-0.04,0.04-0.05
			l-0.04-0.05l-0.04,0.05C24.07,115.19,24.08,115.21,24.11,115.24z M24.14,110.78l0.05,0.03v-0.05L24.14,110.78z M24.2,106.53
			l0.05-0.03l-0.05-0.03V106.53z M24.61,109.48c0.09,0,0.13-0.03,0.13-0.09c-0.01-0.07-0.06-0.09-0.14-0.08c-0.03,0-0.06,0-0.1,0.01
			c-0.04,0.01-0.07,0.01-0.09,0.01c-0.07,0.02-0.13,0.03-0.18,0.04v0.04c0,0.02,0,0.03,0.01,0.03c0.02,0.01,0.1,0.02,0.24,0.04
			H24.61z M24.3,110.02c-0.07,0.04-0.08,0.09-0.04,0.14c0.02,0.02,0.04,0.03,0.08,0.04c0.06,0,0.11-0.03,0.15-0.08l0.04-0.08
			c-0.01-0.1-0.01-0.15-0.01-0.15S24.44,109.94,24.3,110.02z M24.47,118.2l0.05-0.06c-0.03-0.07-0.07-0.09-0.14-0.06
			c-0.05,0.02-0.07,0.04-0.06,0.06c0.03,0.06,0.04,0.09,0.04,0.09S24.4,118.22,24.47,118.2z M24.55,108.56
			c-0.03,0.03-0.04,0.05-0.04,0.08c0,0.03,0.01,0.05,0.04,0.06c0.14,0.08,0.33,0.12,0.56,0.1c0.29-0.01,0.6-0.04,0.94-0.09
			c0.03-0.01,0.05-0.03,0.06-0.06c0.01-0.03-0.01-0.05-0.05-0.06c0.04,0.01-0.21,0-0.75-0.04c-0.36-0.01-0.58-0.01-0.67-0.01
			C24.61,108.54,24.58,108.55,24.55,108.56z M24.94,119.51c0.01-0.07-0.03-0.09-0.1-0.08c-0.03,0.03-0.05,0.04-0.05,0.05
			c-0.01,0.07,0.03,0.09,0.1,0.08C24.93,119.55,24.94,119.53,24.94,119.51z M24.83,115.18c-0.02,0.08,0.02,0.1,0.1,0.08l0.03-0.08
			c-0.03-0.03-0.06-0.05-0.06-0.05c-0.03,0-0.05,0-0.05,0S24.84,115.14,24.83,115.18z M24.92,118.12l0.05,0.04l0.01-0.05
			L24.92,118.12z M25.08,118.83c0-0.01-0.01-0.03-0.03-0.08h-0.08c-0.03,0.03-0.04,0.05-0.03,0.08c0.04,0.07,0.06,0.1,0.06,0.1
			S25.04,118.9,25.08,118.83z M25,117.34v0.06l0.06-0.04L25,117.34z M25.13,112.38c0.06,0.03,0.11,0.01,0.14-0.05l-0.05-0.06
			c-0.06-0.03-0.11-0.01-0.14,0.05c-0.01,0.03-0.01,0.04-0.01,0.04S25.09,112.37,25.13,112.38z M25.25,111.62
			c0.04-0.03,0.07-0.05,0.08-0.06l-0.06-0.06c-0.09-0.02-0.12,0.01-0.09,0.09C25.17,111.58,25.2,111.6,25.25,111.62z M25.44,105.07
			l0.06,0.01l-0.03-0.06L25.44,105.07z M25.5,113.74l-0.05-0.01l0.03,0.06L25.5,113.74z M25.52,105.73l0.06,0.04l0.01-0.06
			L25.52,105.73z M26.62,109.49c0.08-0.02,0.11-0.05,0.09-0.1c-0.01-0.03-0.03-0.05-0.06-0.06c-0.14-0.03-0.46-0.02-0.94,0.01
			c-0.03,0-0.06,0.02-0.06,0.06c-0.01,0.03,0.01,0.05,0.05,0.06c0.06,0.01,0.19,0.02,0.39,0.04h0.44
			C26.56,109.5,26.59,109.5,26.62,109.49z M25.69,115.15h-0.05l0.03,0.05L25.69,115.15z M25.77,110.11c0.08,0,0.09-0.03,0.04-0.09
			c-0.02-0.02-0.03-0.01-0.05,0.03C25.76,110.05,25.76,110.07,25.77,110.11z M25.83,106.48c-0.02,0.03-0.01,0.06,0.01,0.08
			c0.06,0.03,0.11,0.02,0.15-0.03c-0.01-0.05-0.02-0.08-0.03-0.08C25.91,106.41,25.87,106.42,25.83,106.48z M26.02,115.91h-0.06
			l0.04,0.05L26.02,115.91z M26.07,111.62c0.08,0,0.11-0.03,0.09-0.1c-0.01-0.02-0.03-0.03-0.06-0.04c-0.08-0.01-0.11,0.03-0.09,0.1
			C26.01,111.58,26.03,111.6,26.07,111.62z M26.21,107.81c-0.05-0.01-0.1,0-0.14,0.04c-0.04,0.03-0.06,0.07-0.04,0.11
			c0.03,0.06,0.08,0.09,0.15,0.09s0.12-0.03,0.13-0.1C26.32,107.88,26.29,107.83,26.21,107.81z M26.18,105.72v0.06
			c0.01,0,0.03,0,0.08,0v-0.08L26.18,105.72z M26.65,113.04c0.02-0.07-0.01-0.11-0.09-0.14c-0.08-0.02-0.14,0.01-0.17,0.08
			c-0.02,0.07,0.02,0.11,0.1,0.13C26.57,113.12,26.62,113.1,26.65,113.04z M26.62,115.98l0.01-0.08c-0.04-0.07-0.09-0.08-0.14-0.03
			c-0.03,0.03-0.03,0.05-0.01,0.08c0.03,0.06,0.05,0.09,0.05,0.09S26.56,116.02,26.62,115.98z M27.06,106.56
			c0.07,0.02,0.12,0,0.17-0.04l-0.06-0.05l-0.09-0.01c-0.1,0-0.14,0.03-0.1,0.08L27.06,106.56z M27.1,110.82l-0.04-0.04l-0.03,0.05
			L27.1,110.82z M27.18,108.65l-0.05-0.04l-0.01,0.06L27.18,108.65z M27.37,114.49l0.04-0.05l-0.06-0.01
			c-0.01,0-0.03,0.02-0.05,0.05C27.34,114.49,27.37,114.49,27.37,114.49z M27.64,105.8l0.06-0.04c-0.02-0.03-0.03-0.05-0.04-0.05
			c-0.03-0.02-0.06-0.02-0.08,0c-0.05,0.05-0.08,0.08-0.08,0.08S27.55,105.79,27.64,105.8z M27.62,115.22l-0.06-0.01l0.03,0.05
			L27.62,115.22z M27.88,107.14l-0.06-0.01l0.01,0.05L27.88,107.14z M28.26,113.01c-0.01,0.06,0.02,0.1,0.09,0.11l0.06-0.05
			c0.01-0.08-0.02-0.11-0.09-0.11c-0.03,0-0.05,0-0.05,0S28.27,112.97,28.26,113.01z M28.46,115.99c0.03-0.02,0.03-0.04,0.03-0.08
			c0-0.01-0.02-0.03-0.06-0.05c-0.04,0.03-0.07,0.05-0.08,0.05C28.34,116.01,28.38,116.03,28.46,115.99z M28.49,110.84
			c0.02,0.07,0.06,0.09,0.13,0.06l0.04-0.08c-0.02-0.07-0.06-0.09-0.13-0.06c-0.03,0.01-0.04,0.01-0.04,0.01
			S28.49,110.79,28.49,110.84z M28.8,115.25c0.03-0.03,0.02-0.07-0.01-0.1c-0.03-0.03-0.08-0.05-0.14-0.06
			c-0.08,0-0.12,0.03-0.13,0.1c0,0.06,0.04,0.1,0.11,0.11C28.71,115.31,28.76,115.3,28.8,115.25z M29.36,109.45l0.01-0.06
			c-0.05-0.01-0.08-0.01-0.08,0l-0.01,0.06C29.34,109.45,29.36,109.45,29.36,109.45z M29.59,113.69c-0.03,0.05-0.02,0.1,0.04,0.15
			c0.07,0.06,0.12,0.06,0.15,0.01c0.04-0.06,0.03-0.11-0.04-0.17l-0.08-0.03C29.62,113.68,29.59,113.69,29.59,113.69z M29.64,114.45
			c0.02,0.07,0.09,0.11,0.22,0.13c0.11,0.02,0.19-0.01,0.25-0.08c-0.01-0.05-0.01-0.08-0.01-0.09c-0.02-0.03-0.04-0.04-0.06-0.05
			c-0.08-0.03-0.18-0.04-0.28-0.03C29.66,114.35,29.62,114.39,29.64,114.45z M30.21,115.24c0.01-0.04,0-0.07-0.04-0.08
			c-0.06-0.03-0.12-0.04-0.18-0.05c-0.14-0.01-0.22,0.03-0.24,0.1c-0.03,0.08,0.05,0.11,0.22,0.11c0.11-0.02,0.17-0.03,0.18-0.03
			C30.18,115.29,30.2,115.27,30.21,115.24z M30.06,112.28l-0.01,0.08h0.09c0.01,0,0.01-0.03,0.01-0.08c-0.05,0-0.08,0-0.08,0
			S30.07,112.28,30.06,112.28z M30.19,110.14c0.01,0,0.03-0.01,0.08-0.03c0-0.09-0.03-0.11-0.1-0.05
			C30.14,110.09,30.14,110.11,30.19,110.14z M30.33,105.74l0.06,0.04l0.01-0.08L30.33,105.74z M30.42,106.54
			c0.01,0,0.03-0.01,0.06-0.03l-0.05-0.04l-0.06,0.03C30.4,106.53,30.42,106.54,30.42,106.54z M31.5,113.73
			c0.07,0.05,0.1,0.04,0.1-0.04l-0.06-0.03L31.5,113.73z M31.65,112.32l0.05-0.03c0.01-0.07-0.01-0.08-0.06-0.04
			c-0.02,0.01-0.03,0.01-0.03,0.01S31.62,112.29,31.65,112.32z M31.69,105.81c0.03,0.05,0.08,0.08,0.15,0.09l0.06-0.05l0.01-0.08
			c-0.03-0.06-0.08-0.08-0.15-0.08c-0.09,0.01-0.14,0.01-0.14,0.01S31.64,105.74,31.69,105.81z M32.88,114.53
			c0.08-0.02,0.11-0.05,0.09-0.1c-0.01-0.02-0.03-0.03-0.08-0.05c-0.03-0.02-0.06-0.03-0.09-0.03c-0.15,0-0.25,0-0.28,0.01
			c-0.07,0.01-0.16,0.01-0.28,0c-0.13-0.02-0.22-0.02-0.28-0.01c-0.08,0.01-0.13,0.04-0.14,0.1c-0.02,0.08,0.02,0.11,0.11,0.11
			c0.03-0.01,0.19-0.02,0.48-0.03c0.16,0.01,0.25,0.01,0.27,0.01C32.76,114.56,32.82,114.55,32.88,114.53z M32.36,111.55l0.06,0.04
			v-0.06L32.36,111.55z M32.56,112.98c-0.03,0.07-0.02,0.12,0.05,0.15c0.1,0.05,0.18,0.02,0.23-0.09l0.01-0.09
			c-0.03-0.04-0.06-0.06-0.06-0.06c-0.09-0.05-0.14-0.08-0.14-0.08S32.62,112.87,32.56,112.98z M32.97,110.14
			c-0.03,0.06,0,0.1,0.09,0.11c0.02,0,0.11,0.02,0.29,0.05c0.21-0.04,0.33-0.06,0.34-0.06c0.09-0.02,0.11-0.05,0.06-0.11
			c-0.01-0.01-0.03-0.02-0.08-0.04c-0.2-0.07-0.42-0.07-0.63,0C33,110.1,32.98,110.11,32.97,110.14z M32.99,109.31l0.06,0.01
			l-0.03-0.06L32.99,109.31z M33.16,110.86c0.01,0.03,0.03,0.04,0.06,0.04c0.01,0,0.03-0.01,0.08-0.04
			c-0.02-0.05-0.03-0.08-0.04-0.08C33.17,110.74,33.14,110.77,33.16,110.86z M33.96,112.41c0.09,0,0.14-0.03,0.15-0.1
			c0-0.08-0.04-0.12-0.13-0.13c-0.18-0.02-0.3-0.02-0.38-0.01c-0.06,0-0.15,0.02-0.28,0.06c-0.03,0.01-0.05,0.03-0.05,0.08
			c-0.01,0.03,0,0.06,0.03,0.08c0.04,0.02,0.18,0.03,0.41,0.04C33.86,112.41,33.94,112.41,33.96,112.41z M33.59,113.08
			c0-0.01,0-0.04,0.01-0.09c-0.01-0.07-0.05-0.11-0.13-0.13c-0.07-0.02-0.12,0-0.15,0.05c-0.04,0.06-0.04,0.12,0.01,0.18
			C33.43,113.2,33.51,113.19,33.59,113.08z M33.46,111.66c0.01-0.03,0.01-0.06,0.01-0.08l-0.05-0.05c-0.03,0.05-0.05,0.08-0.05,0.08
			S33.4,111.63,33.46,111.66z M34.83,110.84c0.02-0.06-0.01-0.1-0.09-0.13c-0.2-0.04-0.38-0.05-0.56-0.03
			c-0.07,0.02-0.13,0.04-0.18,0.06c-0.06,0.04-0.07,0.1-0.04,0.17c0.02,0.03,0.04,0.05,0.06,0.05c0.03,0,0.1,0,0.2-0.01h0.27
			c0.06-0.01,0.12-0.01,0.18-0.01C34.76,110.93,34.81,110.9,34.83,110.84z M34.3,109.36c-0.03,0.02-0.03,0.04-0.03,0.06
			c0.05,0.08,0.13,0.1,0.24,0.04l0.01-0.08l-0.06-0.04c-0.06-0.03-0.09-0.04-0.09-0.04S34.35,109.33,34.3,109.36z M34.38,111.71
			c0.14,0.03,0.25-0.01,0.32-0.13l-0.03-0.08c-0.14-0.07-0.25-0.07-0.34,0c-0.05,0.04-0.06,0.09-0.01,0.15
			c0.03,0.03,0.04,0.05,0.04,0.05S34.36,111.71,34.38,111.71z M34.92,110.16c0.02-0.03,0.03-0.05,0.04-0.06
			c-0.03-0.03-0.06-0.04-0.06-0.04l-0.04,0.06c0.01,0,0.02,0,0.04,0.01c0.02,0.01,0.03,0.01,0.03,0.01S34.92,110.15,34.92,110.16z"
			/>
		<path class="st2" d="M45.76,118.82c0.72-1.85,1.88-4.82,3.48-8.91c1.31-3.36,2.03-5.19,2.15-5.5c0.08-0.22,0.17-0.43,0.27-0.62
			c0.07-0.14,0.17-0.21,0.29-0.23c0.1-0.01,0.2-0.01,0.29-0.01c0.1-0.01,0.33-0.01,0.67-0.01h1.65v0.01h2.13
			c0.06,0,0.22,0,0.48,0.01c0.14,0.01,0.25,0.07,0.32,0.19c0.07,0.13,0.14,0.3,0.23,0.53c0.3,0.77,1.03,2.7,2.2,5.78
			c2.02,5.32,3.38,8.87,4.06,10.66c0.08,0.22,0.13,0.41,0.15,0.56c0.02,0.13-0.03,0.2-0.15,0.22c-0.14,0.03-0.2,0.04-0.18,0.04
			c-0.1,0.01-0.2,0.01-0.29,0.01c-1.74,0-3,0-3.78,0c-0.05,0-0.21-0.01-0.47-0.04c-0.14-0.02-0.25-0.09-0.3-0.22
			c-0.1-0.22-0.18-0.4-0.23-0.53c-0.14-0.39-0.28-0.75-0.41-1.09c-0.05-0.12-0.12-0.26-0.22-0.43c-0.04-0.08-0.12-0.13-0.23-0.17
			c-0.09-0.03-0.19-0.04-0.29-0.04c-0.33-0.02-0.62-0.03-0.86-0.03c-1.03,0-2.65,0-4.85,0c-0.32,0-0.55,0.02-0.67,0.05
			c-0.1,0.03-0.18,0.07-0.24,0.14c-0.05,0.07-0.08,0.12-0.1,0.17c-0.05,0.08-0.09,0.17-0.13,0.27c-0.05,0.13-0.14,0.36-0.28,0.71
			c-0.13,0.3-0.22,0.55-0.29,0.72c-0.04,0.1-0.08,0.19-0.13,0.25c-0.07,0.09-0.14,0.15-0.23,0.18c-0.08,0.02-0.11,0.03-0.09,0.03
			c-0.15,0.02-0.25,0.03-0.29,0.03c-1.38,0-2.73,0-4.06,0c-0.15,0-0.28-0.02-0.38-0.06c-0.11-0.04-0.16-0.12-0.14-0.23
			c0.02-0.1,0.08-0.28,0.18-0.55c0.09-0.25,0.22-0.56,0.37-0.95C45.59,119.26,45.71,118.95,45.76,118.82z M47.31,118.81
			c-0.03,0.13,0.03,0.17,0.17,0.14c0.08-0.03,0.11-0.07,0.09-0.14c-0.02-0.04-0.05-0.07-0.1-0.09c-0.04-0.02-0.08-0.01-0.11,0.01
			C47.33,118.75,47.31,118.77,47.31,118.81z M48.71,119.58c0.09-0.02,0.12-0.05,0.09-0.11c-0.01-0.02-0.04-0.03-0.09-0.03
			c-0.05-0.01-0.19-0.02-0.41-0.03c-0.16-0.03-0.38-0.02-0.65,0.01c-0.03,0-0.06,0.01-0.09,0.03c-0.03,0.03-0.04,0.05-0.04,0.08
			c0,0.05,0.02,0.08,0.05,0.08c0.34,0.09,0.62,0.1,0.85,0.03C48.5,119.62,48.59,119.6,48.71,119.58z M48.08,120.24l-0.06,0.01
			l0.05,0.04L48.08,120.24z M48.14,118.11c-0.02,0.03-0.01,0.05,0.01,0.08c0.04,0.03,0.1,0.05,0.17,0.04
			c0.09-0.02,0.13-0.05,0.13-0.1c-0.02-0.04-0.07-0.06-0.15-0.06C48.21,118.04,48.16,118.06,48.14,118.11z M48.58,116.55
			c-0.07-0.03-0.11-0.01-0.14,0.05c-0.01,0.02,0.01,0.03,0.05,0.05c0.06,0.03,0.11,0.01,0.14-0.05
			C48.6,116.57,48.58,116.55,48.58,116.55z M49,115.98L48.95,116l0.05,0.03V115.98z M49.34,120.26l0.05,0.04v-0.06L49.34,120.26z
			 M49.48,118.69c0,0.01,0,0.02-0.01,0.04c-0.01,0.02-0.01,0.03-0.01,0.04l0.06,0.03c0-0.01,0.01-0.03,0.04-0.06
			c-0.03-0.02-0.05-0.03-0.05-0.03S49.5,118.7,49.48,118.69z M49.67,113.74l0.01,0.05l0.04-0.05H49.67z M49.74,115.83l-0.04,0.06
			c0.03,0.02,0.05,0.03,0.06,0.04c0.06-0.06,0.09-0.09,0.09-0.09S49.81,115.83,49.74,115.83z M50.02,118.05
			c-0.09-0.06-0.18-0.06-0.27,0c-0.03,0.03-0.03,0.05-0.03,0.09c0,0.08,0.07,0.11,0.22,0.09c0.08-0.01,0.12-0.05,0.13-0.11
			C50.03,118.07,50.02,118.05,50.02,118.05z M49.98,112.23c-0.08,0.02-0.11,0.05-0.06,0.11c0.01,0.02,0.03,0.03,0.08,0.04
			c0.08,0,0.12-0.03,0.14-0.1l-0.06-0.05c-0.02-0.01-0.03-0.01-0.03-0.01S50.02,112.22,49.98,112.23z M50.73,115.28
			c0.08,0,0.13-0.02,0.15-0.06c-0.03-0.04-0.09-0.06-0.17-0.06c-0.04,0-0.11-0.01-0.19-0.03c-0.08-0.01-0.15-0.01-0.19-0.01
			c-0.05,0-0.15,0.01-0.29,0.03c-0.04,0.01-0.07,0.03-0.08,0.05c-0.03,0.06,0,0.09,0.09,0.1c0.13,0.03,0.26,0.03,0.41,0
			C50.62,115.28,50.71,115.28,50.73,115.28z M50.6,114.37c-0.32,0-0.5,0.01-0.55,0.03c-0.04,0.01-0.07,0.03-0.08,0.05
			c-0.01,0.08,0.03,0.11,0.11,0.11c0.01,0.01,0.1,0,0.28-0.01c0.17,0.02,0.26,0.03,0.27,0.03c0.09,0,0.13-0.04,0.11-0.11
			C50.74,114.39,50.69,114.37,50.6,114.37z M50.35,117.45c0.09,0,0.13-0.03,0.1-0.1c-0.01-0.01-0.03-0.02-0.08-0.04
			c-0.03,0-0.06,0-0.1,0c-0.13-0.01-0.21,0-0.25,0.04c0.03,0.03,0.1,0.06,0.23,0.09C50.31,117.44,50.35,117.44,50.35,117.45z
			 M50.21,112.96c-0.03,0.02-0.03,0.05-0.03,0.09c0,0.03,0.01,0.06,0.04,0.08c0.06,0.03,0.17,0.05,0.32,0.05
			c0.14-0.01,0.22-0.02,0.24-0.03c0.08-0.01,0.12-0.04,0.11-0.1c0-0.03-0.02-0.05-0.06-0.08C50.63,112.85,50.42,112.85,50.21,112.96
			z M50.35,116.56c-0.09-0.03-0.12,0-0.08,0.06c0,0.01,0.03,0.01,0.08,0.01V116.56z M50.28,113.67c-0.03,0.08,0,0.11,0.09,0.09
			c0.04,0,0.06-0.01,0.06-0.04c0.03-0.07,0-0.1-0.09-0.09C50.3,113.65,50.28,113.67,50.28,113.67z M50.65,111.46
			c-0.08,0.02-0.12,0.05-0.11,0.11c0,0.02,0.02,0.03,0.06,0.05c0.18,0.06,0.34,0.07,0.48,0.04c0.22,0,0.34,0,0.37,0
			c0.08,0,0.12-0.04,0.1-0.11c-0.01-0.04-0.03-0.06-0.06-0.06c-0.05-0.02-0.14-0.03-0.28-0.04c-0.12-0.01-0.21-0.02-0.28-0.04
			C50.91,111.41,50.81,111.42,50.65,111.46z M50.87,118.08c0.01-0.03,0-0.06-0.03-0.08c-0.06-0.04-0.09-0.02-0.09,0.06l0.05,0.04
			C50.85,118.09,50.87,118.08,50.87,118.08z M50.83,110.06c-0.01,0.08,0.03,0.13,0.1,0.15c0.03,0.01,0.17,0.02,0.44,0.03
			c0.18-0.02,0.28-0.03,0.3-0.03c0.03-0.01,0.07-0.02,0.1-0.03c0.03-0.02,0.06-0.03,0.08-0.05c0.02-0.03,0.03-0.06,0.03-0.09
			c-0.01-0.04-0.03-0.06-0.05-0.06c-0.21-0.03-0.5-0.04-0.85-0.03c-0.03,0-0.06,0.01-0.09,0.04
			C50.86,110.01,50.84,110.04,50.83,110.06z M50.92,116.02c0.05-0.06,0.04-0.09-0.04-0.09l-0.04,0.06c0.01,0,0.02,0,0.04,0.01
			c0.02,0,0.03,0,0.03,0S50.91,116.01,50.92,116.02z M50.97,112.4c0.03,0,0.16,0,0.39,0.01c0.22-0.02,0.34-0.03,0.36-0.03
			c0.08-0.01,0.12-0.05,0.13-0.11c0.01-0.07-0.02-0.11-0.09-0.13c-0.08-0.03-0.14-0.04-0.19-0.04c-0.23,0.01-0.44,0.04-0.63,0.09
			c-0.03,0.01-0.06,0.03-0.06,0.08C50.86,112.35,50.89,112.39,50.97,112.4z M51.06,109.35c-0.06-0.03-0.11-0.02-0.15,0.04
			c0.01,0.04,0.02,0.07,0.03,0.08c0.07,0.04,0.12,0.03,0.15-0.04C51.1,109.4,51.09,109.38,51.06,109.35z M51.76,117.39
			c0.03-0.07,0-0.11-0.09-0.11c0.03,0-0.06,0.01-0.27,0.03c-0.1,0-0.14,0.03-0.13,0.08c0.02,0.05,0.07,0.08,0.15,0.08
			c0.01,0,0.04,0,0.09,0c0.11,0,0.17,0,0.18,0C51.73,117.44,51.75,117.42,51.76,117.39z M51.83,116.74
			c0.06-0.03,0.08-0.08,0.08-0.15c0-0.08-0.09-0.11-0.27-0.11c-0.13,0.01-0.2,0.01-0.22,0.01c-0.03,0-0.06,0.01-0.09,0.04
			c-0.07,0.05-0.07,0.1,0,0.15C51.51,116.81,51.67,116.83,51.83,116.74z M51.45,108.64c-0.05,0.04,0.05,0.07,0.3,0.09l0.22-0.01
			c0.09-0.01,0.13-0.04,0.1-0.09c-0.01-0.01-0.03-0.02-0.08-0.03c-0.08-0.02-0.14-0.03-0.19-0.03c-0.02,0-0.05,0-0.09,0
			c-0.04,0-0.07,0-0.09,0c-0.08,0-0.11,0-0.11,0S51.49,108.6,51.45,108.64z M51.68,116.03c0.09,0.01,0.13-0.03,0.1-0.1
			c-0.02-0.04-0.07-0.07-0.15-0.09c-0.08-0.03-0.14-0.01-0.15,0.05c-0.01,0.06,0.03,0.1,0.11,0.13
			C51.59,116.02,51.62,116.02,51.68,116.03z M51.72,114.56c0.09-0.01,0.13-0.04,0.13-0.1c-0.01-0.06-0.05-0.09-0.13-0.1H51.6
			c-0.08,0.02-0.12,0.05-0.11,0.11c0.01,0.06,0.05,0.09,0.14,0.09C51.66,114.56,51.69,114.56,51.72,114.56z M51.71,107.09
			c-0.08,0.03-0.11,0.08-0.1,0.15c0.02,0.07,0.07,0.09,0.15,0.06c0.08-0.02,0.12-0.06,0.1-0.14
			C51.84,107.1,51.79,107.07,51.71,107.09z M51.91,115.27l0.01-0.08h-0.09c-0.01,0-0.01,0.03-0.01,0.08c0.05,0,0.08,0,0.08,0
			S51.9,115.27,51.91,115.27z M52.16,118.11l0.05,0.04l0.01-0.05L52.16,118.11z M52.3,109.32c-0.08,0.02-0.1,0.05-0.04,0.11
			c0.01,0,0.03,0,0.08,0l0.03-0.08c-0.02-0.03-0.03-0.04-0.03-0.04S52.33,109.32,52.3,109.32z M52.39,115.9
			c0.01,0,0.02-0.02,0.04-0.06c-0.03-0.03-0.06-0.05-0.06-0.05c-0.04,0.01-0.06,0.03-0.06,0.05
			C52.29,115.92,52.32,115.94,52.39,115.9z M52.43,117.41c0.01-0.01,0.02-0.01,0.04-0.01c0.01-0.01,0.02-0.01,0.03-0.01
			c-0.01-0.03-0.01-0.06-0.01-0.08c-0.04,0.02-0.07,0.03-0.08,0.04C52.4,117.35,52.41,117.37,52.43,117.41z M52.49,110.11
			c-0.08,0.06-0.07,0.09,0.03,0.1c0.01,0,0.03-0.01,0.08-0.03c-0.02-0.04-0.03-0.07-0.03-0.08C52.54,110.1,52.51,110.1,52.49,110.11
			z M52.57,112.36l0.04-0.06c-0.04-0.03-0.07-0.04-0.08-0.04c-0.08,0.02-0.1,0.05-0.04,0.1c0.02,0.02,0.03,0.03,0.03,0.03
			S52.54,112.38,52.57,112.36z M52.52,107.95l0.01,0.06c0.08,0,0.09-0.03,0.04-0.09c-0.02-0.02-0.03-0.03-0.03-0.03
			S52.54,107.92,52.52,107.95z M52.67,114.45c-0.03,0.08,0.03,0.11,0.2,0.1c0.12-0.01,0.18-0.01,0.19-0.01
			c0.09,0,0.14-0.03,0.15-0.08c0-0.08-0.05-0.11-0.14-0.1c-0.02,0-0.05,0-0.09,0c0.03,0,0,0-0.09,0
			C52.77,114.37,52.7,114.39,52.67,114.45z M52.86,113.67c-0.02,0.07,0.01,0.11,0.08,0.14c0.01,0,0.07,0.01,0.18,0.04
			c0.08,0.01,0.12-0.02,0.14-0.09c0.03-0.07,0-0.11-0.08-0.14c-0.08-0.03-0.17-0.03-0.25,0C52.88,113.63,52.86,113.65,52.86,113.67z
			 M52.92,106.54l0.09-0.03l-0.06-0.05L52.92,106.54z M53.06,108.65l-0.05-0.04c-0.01,0-0.03,0.01-0.06,0.04
			c0.03,0.03,0.05,0.04,0.06,0.04C53.01,108.69,53.03,108.68,53.06,108.65z M53.19,107.09c-0.08,0.03-0.11,0.07-0.1,0.14
			c0.02,0.07,0.07,0.1,0.15,0.1c0.08,0,0.19-0.02,0.36-0.06c-0.08-0.08-0.12-0.12-0.14-0.13C53.38,107.07,53.29,107.06,53.19,107.09
			z M53.36,115.95c0.02-0.08-0.02-0.11-0.1-0.09c-0.03,0.02-0.04,0.04-0.04,0.08l0.06,0.05C53.33,115.96,53.36,115.95,53.36,115.95z
			 M53.31,110.05c-0.02,0.05-0.03,0.08-0.03,0.09c0.01,0.03,0.03,0.05,0.06,0.05c0.09-0.02,0.11-0.06,0.05-0.13
			C53.39,110.06,53.36,110.06,53.31,110.05z M53.61,113.13c0.17,0,0.23-0.05,0.18-0.15c-0.03-0.06-0.08-0.08-0.15-0.08
			c-0.05-0.01-0.08-0.01-0.09-0.01c-0.08-0.01-0.11-0.01-0.1-0.01c-0.08,0-0.12,0.04-0.13,0.11c0,0.08,0.04,0.12,0.11,0.13
			C53.48,113.14,53.54,113.14,53.61,113.13z M53.83,107.2c-0.05-0.02-0.12,0-0.2,0.05c0.08,0,0.14,0,0.17,0L53.83,107.2z
			 M53.91,108.59c-0.07-0.03-0.12-0.01-0.15,0.05c-0.02,0.02,0,0.04,0.05,0.06c0.06,0.03,0.11,0.01,0.15-0.05
			C53.93,108.61,53.91,108.59,53.91,108.59z M54.09,110.75c-0.02-0.01-0.05,0-0.09,0.01c-0.08,0.03-0.1,0.07-0.05,0.14
			c0.01,0.02,0.04,0.02,0.09,0.01c0.07-0.01,0.11-0.05,0.13-0.11C54.13,110.76,54.1,110.75,54.09,110.75z M54.13,116.03
			c0.08,0.02,0.11-0.01,0.1-0.09l-0.05-0.05c-0.08-0.01-0.11,0.02-0.1,0.09c0,0.03,0,0.04,0,0.04S54.1,116.02,54.13,116.03z
			 M54.19,104.93c-0.09,0.02-0.11,0.06-0.05,0.13c0.02,0.02,0.04,0.02,0.08,0.01c0.01,0,0.03-0.01,0.08-0.04l-0.03-0.08
			c-0.03-0.02-0.04-0.03-0.04-0.03S54.22,104.93,54.19,104.93z M54.31,116.64l0.03,0.09l0.05-0.08L54.31,116.64z M54.38,106.44
			l-0.06,0.05c0.02,0.04,0.03,0.06,0.04,0.06c0.02,0.02,0.04,0.02,0.08,0.01c0.04-0.01,0.06-0.03,0.06-0.05c0-0.06,0-0.09,0-0.09
			S54.46,106.43,54.38,106.44z M54.58,107.97c-0.08-0.07-0.12-0.11-0.14-0.11c-0.09-0.04-0.13-0.02-0.1,0.06
			c0.01,0.03,0.03,0.04,0.08,0.04C54.44,107.96,54.5,107.97,54.58,107.97z M54.63,112.99c0.04-0.07,0.03-0.11-0.04-0.14
			c-0.06-0.03-0.11-0.01-0.14,0.05c-0.04,0.07-0.03,0.11,0.04,0.14C54.54,113.07,54.58,113.05,54.63,112.99z M54.7,108.64
			c-0.02,0.03-0.01,0.05,0.01,0.06c0.06,0.03,0.11,0.03,0.17,0c0.03-0.02,0.03-0.04,0.01-0.06c0-0.01-0.02-0.03-0.05-0.05
			C54.77,108.56,54.73,108.58,54.7,108.64z M54.74,105.72c-0.07,0.05,0.03,0.09,0.28,0.11h0.09c0.04-0.01,0.07-0.02,0.09-0.03
			c0.03-0.03,0.05-0.05,0.04-0.08c-0.01-0.03-0.03-0.04-0.06-0.05c-0.03-0.01-0.12-0.01-0.27-0.01
			C54.84,105.68,54.78,105.69,54.74,105.72z M55.63,117.34c-0.04-0.03-0.15-0.05-0.32-0.06l-0.33,0.01c-0.09,0-0.13,0.03-0.1,0.1
			c0.02,0.03,0.04,0.05,0.08,0.05c0.16,0.01,0.35,0.03,0.56,0.08c0.03,0,0.05-0.01,0.09-0.03c0.03-0.03,0.04-0.05,0.05-0.08
			C55.66,117.38,55.65,117.35,55.63,117.34z M55.1,113.73l0.03-0.08l-0.09,0.03L55.1,113.73z M55.4,114.43
			c-0.04,0.08-0.02,0.12,0.08,0.1c0.01,0,0.03-0.02,0.06-0.06c-0.03-0.03-0.05-0.04-0.06-0.05C55.43,114.42,55.4,114.43,55.4,114.43
			z M55.74,115.17c-0.08,0.01-0.1,0.05-0.06,0.11c0.02,0.02,0.04,0.03,0.08,0.03c0.07,0.02,0.11-0.01,0.14-0.08
			c-0.03-0.03-0.06-0.05-0.06-0.05C55.81,115.16,55.78,115.16,55.74,115.17z M56.01,112.93v0.06l0.06-0.04L56.01,112.93z
			 M56.04,105.76c-0.01,0.07,0.03,0.1,0.11,0.09c0.01,0,0.03,0,0.05,0c0.02-0.01,0.03-0.01,0.04-0.01c0.08,0,0.13-0.03,0.15-0.08
			c0.02-0.07-0.03-0.1-0.13-0.09h-0.09C56.09,105.67,56.04,105.7,56.04,105.76z M56.24,106.58c0.08,0,0.13-0.03,0.15-0.08
			c-0.02-0.07-0.06-0.1-0.14-0.1c-0.08,0-0.13,0.03-0.14,0.09C56.1,106.55,56.14,106.58,56.24,106.58z M56.29,108.64l-0.08-0.03
			v0.06L56.29,108.64z M56.35,114.49l0.08-0.03c-0.01-0.01-0.02-0.02-0.03-0.03c-0.02-0.02-0.03-0.03-0.04-0.04
			c-0.01,0.01-0.02,0.02-0.04,0.03c-0.02,0.01-0.03,0.01-0.04,0.01c0.03,0.03,0.05,0.05,0.05,0.05S56.34,114.49,56.35,114.49z
			 M56.59,117.27c-0.04-0.05-0.1-0.07-0.18-0.06c-0.08,0.03-0.11,0.07-0.1,0.14c0.01,0.06,0.06,0.09,0.15,0.09
			c0.08,0,0.13-0.03,0.15-0.08C56.63,117.34,56.62,117.31,56.59,117.27z M56.58,107.24l-0.08,0.04c0.04,0.03,0.06,0.04,0.06,0.05
			c0.01,0,0.03-0.01,0.08-0.04C56.6,107.26,56.58,107.24,56.58,107.24z M56.96,115.94L56.95,116c0.01,0.01,0.03,0.02,0.08,0.03
			c0.01-0.01,0.01-0.02,0.01-0.04s0-0.03,0.01-0.04c-0.02,0-0.03,0-0.05,0C56.98,115.94,56.97,115.94,56.96,115.94z M57.29,115.19
			c-0.08-0.03-0.1,0-0.08,0.08l0.06,0.03l0.05-0.05c0.01-0.03,0.01-0.04,0.01-0.04S57.33,115.2,57.29,115.19z M57.28,117.46
			c0.08,0.01,0.11-0.03,0.1-0.1l-0.06-0.05l-0.08,0.03c-0.03,0.03-0.03,0.05-0.03,0.08c0.01,0.03,0.01,0.05,0.01,0.05
			S57.25,117.46,57.28,117.46z M57.48,116.73c-0.03-0.03-0.08-0.05-0.14-0.04c0.03,0.06,0.06,0.09,0.11,0.1
			c0.01,0,0.01-0.01,0.01-0.03C57.48,116.75,57.48,116.74,57.48,116.73z M57.85,114.37c-0.03,0.03-0.02,0.05,0.03,0.08l0.08-0.03
			c-0.01-0.09-0.01-0.14-0.01-0.14S57.91,114.31,57.85,114.37z M57.91,111.56l0.08,0.04v-0.08L57.91,111.56z M58.1,118.16l0.06-0.03
			l-0.06-0.05V118.16z M58.68,115.91c-0.02,0.07,0.01,0.11,0.08,0.14c0.05,0.02,0.11,0.02,0.18,0.01c0.13-0.03,0.18-0.08,0.13-0.18
			c-0.03-0.06-0.07-0.08-0.14-0.08c-0.11,0.03-0.17,0.04-0.18,0.04C58.71,115.86,58.69,115.88,58.68,115.91z M58.8,117.42
			c0.08,0.01,0.12-0.02,0.11-0.09c0-0.01-0.01-0.03-0.04-0.08c-0.08-0.01-0.12,0.02-0.11,0.09
			C58.76,117.39,58.78,117.42,58.8,117.42z M59.65,118.15c0.03-0.06,0-0.1-0.08-0.13c-0.05-0.02-0.14-0.05-0.27-0.09
			c0.01,0-0.03,0-0.1-0.01c-0.03-0.02-0.08,0-0.13,0.04c-0.04,0.03-0.06,0.07-0.06,0.11c-0.01,0.06,0.03,0.1,0.11,0.11
			c0.01,0,0.07,0.01,0.18,0.03c0.12,0.01,0.18,0.01,0.19,0.01C59.58,118.23,59.63,118.21,59.65,118.15z M59.08,115.14
			c-0.02,0.03-0.02,0.06,0,0.09c0.03,0.04,0.09,0.07,0.17,0.08c0.08,0,0.14-0.02,0.17-0.06l-0.01-0.09
			c-0.03-0.05-0.09-0.08-0.17-0.09c-0.08,0-0.11,0-0.11,0S59.11,115.09,59.08,115.14z M59.34,118.83l-0.06,0.03l0.05,0.04
			L59.34,118.83z M59.72,119.42c-0.08-0.02-0.14,0-0.17,0.06c-0.02,0.06,0.01,0.1,0.09,0.13h0.1c0.03-0.02,0.05-0.04,0.06-0.06
			c0.02-0.08,0.03-0.11,0.03-0.11S59.79,119.43,59.72,119.42z M59.7,117.34l0.01,0.08c-0.04,0.01-0.02,0,0.08-0.03
			c-0.01-0.02-0.02-0.04-0.03-0.08C59.72,117.33,59.7,117.34,59.7,117.34z M60.19,120.22c-0.04,0.03-0.05,0.05-0.03,0.08
			c0.05,0.05,0.11,0.06,0.17,0.03c0-0.01,0.01-0.03,0.03-0.08C60.3,120.19,60.25,120.18,60.19,120.22z M60.31,119.51
			c-0.07,0.03-0.09,0.07-0.06,0.14c0.01,0.03,0.03,0.05,0.06,0.06c0.02,0.01,0.04,0.01,0.08,0.01c0.14,0,0.19-0.05,0.14-0.17
			c-0.03-0.05-0.07-0.08-0.14-0.08C60.34,119.5,60.31,119.51,60.31,119.51z M60.61,117.32l-0.01,0.08l0.09,0.01
			c0.04,0,0.08,0,0.1-0.01l0.01-0.06c-0.09-0.01-0.14-0.01-0.14-0.01S60.64,117.32,60.61,117.32z M60.96,118.15l0.06-0.01
			l-0.05-0.04L60.96,118.15z M61.09,116.64 M61.25,118.87c-0.01,0.07,0.03,0.11,0.1,0.13c0.01,0,0.07,0,0.19,0.01
			C61.6,119,61.62,119,61.63,119c0.14-0.01,0.2-0.07,0.17-0.18c-0.03-0.09-0.11-0.14-0.23-0.13c-0.09,0.01-0.18,0.04-0.25,0.1
			C61.28,118.82,61.26,118.85,61.25,118.87z"/>
		<path class="st2" d="M78.35,103.54c0.79,0,1.43,0,1.93,0c0.09,0,0.24,0,0.43,0.01c0.19,0,0.34,0,0.44,0
			c0.36,0,0.77,0.05,1.24,0.15c1.24,0.28,2.33,0.88,3.26,1.79c0.7,0.69,1.22,1.5,1.56,2.42c0.18,0.48,0.28,0.88,0.32,1.21
			c0.01,0.03,0.03,0.19,0.08,0.48c0.08,0.47,0.08,0.91,0,1.35c-0.03,0.16-0.05,0.32-0.08,0.48c-0.1,0.71-0.36,1.43-0.77,2.17
			c-0.42,0.77-1.01,1.45-1.76,2.03c-0.27,0.22-0.42,0.34-0.44,0.37c-0.08,0.09-0.09,0.18-0.05,0.27c0.1,0.2,0.14,0.29,0.13,0.27
			c0.03,0.07,0.11,0.21,0.24,0.42c1.27,2.14,2.01,3.39,2.22,3.75c0.14,0.24,0.23,0.41,0.27,0.51c0.06,0.17,0.01,0.27-0.14,0.3
			c-0.08,0.02-0.14,0.03-0.19,0.03c-0.21,0.01-0.41,0.01-0.58,0.01h-1.74c-1.22,0-1.9,0-2.03,0c-0.08,0-0.27-0.01-0.58-0.04
			c-0.14-0.01-0.24-0.07-0.32-0.18c-0.08-0.1-0.23-0.35-0.46-0.74c-1.01-1.68-1.55-2.6-1.64-2.74c-0.12-0.21-0.24-0.4-0.36-0.57
			c-0.09-0.15-0.22-0.23-0.39-0.24c-0.48-0.03-0.97-0.03-1.46,0c-0.07,0.01-0.13,0.03-0.18,0.05c-0.1,0.05-0.17,0.12-0.19,0.2
			c-0.02,0.09-0.03,0.16-0.03,0.19c-0.01,0.3-0.02,0.55-0.03,0.77v2.51c0,0.23-0.01,0.39-0.04,0.48c-0.03,0.1-0.08,0.17-0.18,0.22
			c-0.06,0.03-0.12,0.04-0.18,0.05c-0.15,0.02-0.28,0.03-0.39,0.03c-0.99,0-2.12,0-3.38,0c-0.2,0-0.36-0.02-0.48-0.05
			c-0.14-0.04-0.22-0.14-0.24-0.28c-0.02-0.14-0.03-0.21-0.03-0.19c-0.01-0.25-0.01-0.47-0.01-0.67v-15.59c0-0.21,0-0.47,0.01-0.76
			c0-0.01,0.01-0.07,0.04-0.19c0.03-0.14,0.11-0.23,0.27-0.25c0.13-0.02,0.38-0.03,0.77-0.03H78.35z M73.55,119.71
			c0.01-0.01,0.07-0.03,0.18-0.06c0.16-0.02,0.25-0.03,0.28-0.04c0.03-0.01,0.05-0.03,0.06-0.05c0.02-0.04,0.01-0.07-0.01-0.08
			c-0.17-0.05-0.36-0.08-0.56-0.08c-0.07,0.01-0.11,0.05-0.11,0.13c-0.01,0.03,0,0.05,0.01,0.09
			C73.44,119.69,73.49,119.72,73.55,119.71z M74.06,119.04c0.33-0.01,0.62-0.03,0.86-0.08c-0.01,0,0.02-0.01,0.09-0.03
			c0.08-0.02,0.11-0.06,0.09-0.14c-0.01-0.06-0.05-0.1-0.13-0.11c-0.21-0.05-0.4-0.05-0.57,0c-0.2,0.05-0.42,0.06-0.66,0.03
			c-0.09-0.02-0.16-0.03-0.19-0.03c-0.08,0-0.13,0.04-0.13,0.11c-0.01,0.07,0.02,0.12,0.09,0.15c0.08,0.06,0.17,0.09,0.27,0.09
			H74.06z M73.48,116.55l-0.05,0.04l0.05,0.04l0.05-0.04C73.5,116.56,73.48,116.55,73.48,116.55z M73.58,115.84
			c-0.04,0.07-0.03,0.12,0.05,0.15c0.06,0.03,0.24,0.04,0.55,0.05c0.08,0,0.11-0.03,0.09-0.1c0-0.03-0.02-0.04-0.06-0.04
			c-0.03-0.01-0.11-0.02-0.25-0.03c-0.13-0.03-0.2-0.05-0.2-0.06c-0.04-0.01-0.07-0.01-0.09,0
			C73.61,115.81,73.59,115.82,73.58,115.84z M73.67,107.94c-0.01,0.03,0,0.05,0.01,0.09c0.05,0.08,0.13,0.08,0.24,0.01
			c0.06-0.03,0.09-0.07,0.1-0.14c-0.03-0.04-0.05-0.07-0.05-0.08c-0.05-0.03-0.11-0.03-0.18,0
			C73.73,107.85,73.69,107.89,73.67,107.94z M73.68,115.14l0.03,0.06l0.04-0.06H73.68z M73.73,107.23l0.06,0.01l-0.03-0.06
			L73.73,107.23z M75.4,117.27c-0.26-0.04-0.51-0.05-0.75-0.03c-0.45,0.03-0.71,0.04-0.77,0.04c-0.08,0-0.12,0.03-0.1,0.1
			c0.01,0.03,0.03,0.04,0.06,0.05c0.37,0.07,0.62,0.09,0.75,0.06c0.01,0,0.13,0.01,0.38,0.03c0.16,0.01,0.32-0.01,0.47-0.06
			c0.03-0.02,0.05-0.04,0.06-0.06C75.51,117.33,75.48,117.29,75.4,117.27z M74.25,112.31c0-0.02-0.03-0.03-0.08-0.04
			c-0.06-0.02-0.12-0.03-0.18-0.04c-0.06,0-0.11,0.01-0.15,0.04c-0.04,0.02-0.06,0.04-0.04,0.08c0.04,0.04,0.1,0.06,0.17,0.06
			c0.11-0.01,0.17-0.01,0.18-0.01C74.24,112.4,74.27,112.37,74.25,112.31z M73.9,106.39c0,0.01-0.02,0.03-0.05,0.08
			c0,0.08,0.04,0.11,0.11,0.09c0.03-0.01,0.05-0.03,0.05-0.06C74.01,106.42,73.97,106.38,73.9,106.39z M73.95,118.01
			c-0.05,0.07-0.04,0.12,0.04,0.17c0.09,0.04,0.21,0.07,0.36,0.08c0.12,0,0.21-0.02,0.28-0.06c0.07-0.04,0.09-0.1,0.06-0.17
			c-0.01-0.03-0.03-0.05-0.05-0.06c-0.13-0.05-0.22-0.08-0.27-0.09C74.2,117.83,74.06,117.88,73.95,118.01z M74.13,120.29
			c0.05-0.01,0.08-0.02,0.08-0.03c0-0.05-0.04-0.07-0.13-0.06l-0.09,0.01c-0.05,0.02-0.06,0.03-0.04,0.05
			c0.05,0.04,0.08,0.06,0.08,0.06S74.06,120.32,74.13,120.29z M74.01,113.1l0.05,0.03l0.01-0.06L74.01,113.1z M74.38,114.4
			c-0.03-0.06-0.07-0.08-0.14-0.08c-0.08,0.02-0.11,0.06-0.1,0.14c0.01,0.02,0.03,0.03,0.06,0.05c0.07,0.03,0.12,0.02,0.17-0.04
			C74.39,114.45,74.4,114.43,74.38,114.4z M74.41,115.2c0-0.03-0.02-0.04-0.05-0.05c-0.08-0.03-0.12,0-0.11,0.08
			c0,0.01,0.02,0.03,0.06,0.06C74.38,115.31,74.41,115.28,74.41,115.2z M74.57,113.64c-0.08,0.03-0.09,0.06-0.01,0.1
			c0.03,0.01,0.05,0,0.08-0.01l0.01-0.06C74.6,113.65,74.57,113.64,74.57,113.64z M74.61,107.84c-0.08-0.01-0.1,0.02-0.05,0.08
			l0.06-0.03L74.61,107.84z M74.8,116.64c-0.01-0.07-0.05-0.1-0.11-0.1c-0.07,0-0.1,0.03-0.1,0.1c0.01,0.08,0.04,0.11,0.1,0.11
			C74.74,116.75,74.78,116.71,74.8,116.64z M75.21,119.6c-0.03-0.06-0.08-0.09-0.15-0.09c-0.07-0.01-0.15,0.02-0.24,0.09
			c0.11,0.04,0.19,0.07,0.23,0.09c0.03,0.02,0.05,0.02,0.09,0.01c0.03,0,0.06-0.01,0.08-0.03C75.22,119.65,75.22,119.62,75.21,119.6
			z M75.21,120.32c0.03-0.03,0.03-0.05,0.01-0.08c-0.03-0.05-0.08-0.06-0.15-0.04c-0.03,0.02-0.04,0.04-0.05,0.06
			c0,0.03,0.02,0.05,0.05,0.06C75.12,120.37,75.16,120.37,75.21,120.32z M75.18,112.94c-0.03,0.06,0,0.1,0.08,0.13
			c0.06,0.03,0.11,0.01,0.14-0.05c0.01-0.07-0.02-0.11-0.08-0.14C75.25,112.85,75.21,112.88,75.18,112.94z M75.7,118.14
			c-0.02-0.07-0.06-0.1-0.14-0.09c-0.08,0-0.14,0.03-0.18,0.08c0.03,0.06,0.09,0.09,0.17,0.09c0.05-0.01,0.08-0.01,0.09-0.01
			C75.68,118.18,75.7,118.16,75.7,118.14z M75.73,112.26c-0.1,0.01-0.13,0.04-0.08,0.09c0.04,0.04,0.1,0.05,0.17,0.03l0.06-0.05
			c-0.03-0.04-0.06-0.06-0.06-0.06c-0.02,0-0.03,0-0.03,0S75.77,112.26,75.73,112.26z M75.65,111.62h0.08l-0.04-0.06L75.65,111.62z
			 M75.98,118.82c-0.03-0.06-0.08-0.09-0.15-0.09s-0.13,0.03-0.15,0.09c-0.02,0.03-0.02,0.06,0,0.09c0.03,0.05,0.08,0.08,0.15,0.08
			c0.07,0,0.12-0.03,0.15-0.08C75.98,118.85,75.98,118.82,75.98,118.82z M75.73,114.43l-0.01,0.06c0.08,0.04,0.12,0.03,0.1-0.05
			C75.81,114.44,75.78,114.44,75.73,114.43z M76,113.77h0.06l-0.03-0.06L76,113.77z M76.25,115.19c-0.01,0.01-0.03,0.03-0.05,0.05
			c0.05,0.03,0.11,0.03,0.17,0l-0.04-0.04C76.3,115.19,76.27,115.19,76.25,115.19z M76.66,113.68c-0.02,0.02-0.01,0.04,0.03,0.06
			c0.06,0.03,0.12,0.04,0.18,0.03c0.03-0.01,0.05-0.03,0.04-0.06c-0.01-0.02-0.03-0.03-0.08-0.05
			C76.77,113.63,76.72,113.64,76.66,113.68z M76.98,110.73c-0.01,0-0.03,0.01-0.06,0.04c0.02,0.01,0.03,0.03,0.05,0.05
			c0.01-0.01,0.03-0.03,0.06-0.05C77,110.75,76.98,110.73,76.98,110.73z M77.08,109.39c0-0.01-0.03-0.01-0.08,0
			c0,0.01,0,0.02,0,0.03c0.01,0.02,0.01,0.03,0.01,0.04c0.03,0,0.06,0,0.08,0C77.1,109.41,77.09,109.39,77.08,109.39z M77.1,112.32
			l-0.08-0.04v0.08L77.1,112.32z M77.58,112.88c-0.05,0.02-0.1,0.05-0.14,0.09c-0.03,0.04-0.04,0.08-0.01,0.1
			c0.03,0.03,0.09,0.05,0.17,0.05c0.14,0.01,0.22-0.03,0.22-0.11c-0.03-0.05-0.04-0.08-0.05-0.08
			C77.71,112.89,77.66,112.87,77.58,112.88z M77.43,104.97l0.08,0.04l0.01-0.08L77.43,104.97z M77.57,111.47
			c-0.03,0.03-0.06,0.05-0.06,0.08c0,0.03,0.02,0.06,0.05,0.08c0.02,0,0.08,0.02,0.18,0.05c0.34-0.02,0.58-0.04,0.74-0.08v-0.04
			v-0.03c-0.26-0.1-0.54-0.13-0.83-0.09c-0.03,0-0.05,0-0.05,0S77.58,111.45,77.57,111.47z M78.23,116.02
			c0.03,0,0.05-0.02,0.05-0.05s-0.01-0.06-0.04-0.08c-0.07-0.03-0.23-0.02-0.48,0.01c-0.08,0.02-0.11,0.05-0.09,0.1
			c0,0.03,0.03,0.04,0.08,0.04c0.02,0.01,0.09,0.01,0.22,0.01C78.11,116.04,78.2,116.02,78.23,116.02z M77.77,105.69l-0.06,0.05
			c0.03,0.03,0.04,0.04,0.05,0.05c0.01,0,0.02-0.01,0.04-0.03c0.02-0.01,0.03-0.01,0.04-0.01c-0.03-0.04-0.05-0.06-0.05-0.06
			S77.78,105.69,77.77,105.69z M78.11,115.2c-0.11,0-0.13,0.03-0.05,0.1l0.09-0.03C78.14,115.26,78.13,115.24,78.11,115.2z
			 M79.29,114.39c-0.03-0.02-0.06-0.03-0.09-0.03c-0.22,0.01-0.5,0.02-0.85,0.03c-0.09,0.01-0.13,0.04-0.1,0.09
			c0.02,0.02,0.05,0.03,0.09,0.04c0.03,0,0.18,0.01,0.43,0.03c0.23,0,0.37,0,0.42,0c0.03,0,0.06,0,0.09-0.01
			c0.03-0.03,0.05-0.05,0.06-0.06C79.34,114.44,79.33,114.42,79.29,114.39z M78.56,112.24c-0.07-0.03-0.12-0.02-0.15,0.05
			c-0.01,0.03,0.01,0.05,0.05,0.08c0.06,0.03,0.11,0.01,0.15-0.05C78.57,112.27,78.56,112.24,78.56,112.24z M78.98,113.72l0.01,0.05
			l0.04-0.04L78.98,113.72z M79,110.89l0.01,0.05l0.04-0.05H79z M79.06,113.01l0.06-0.01l-0.05-0.05L79.06,113.01z M79.46,108.6
			c-0.11,0.01-0.12,0.03-0.04,0.08c0.01,0,0.04-0.01,0.09-0.03C79.47,108.62,79.46,108.6,79.46,108.6z M79.7,112.32l-0.06-0.05
			c-0.06-0.02-0.12,0-0.19,0.04l0.08,0.05c0.07,0.03,0.1,0.04,0.1,0.04S79.65,112.37,79.7,112.32z M79.5,111.51
			c-0.05,0.06-0.03,0.09,0.05,0.1l0.06-0.04c-0.02-0.04-0.03-0.06-0.04-0.06c-0.03-0.02-0.05-0.03-0.05-0.03
			S79.51,111.49,79.5,111.51z M79.64,110.82c-0.07-0.08-0.1-0.06-0.1,0.04l0.08,0.04c0-0.01,0-0.02,0.01-0.04
			c0.01-0.02,0.01-0.03,0.01-0.03S79.64,110.83,79.64,110.82z M79.83,115.18c-0.03-0.02-0.06-0.02-0.09-0.01
			c-0.1,0.03-0.1,0.07,0,0.1l0.09-0.01C79.83,115.2,79.83,115.18,79.83,115.18z M80.26,113.68l-0.03,0.05l0.06,0.01
			c0.01,0,0.02-0.02,0.04-0.05C80.28,113.68,80.26,113.68,80.26,113.68z M80.28,112.98c-0.08,0.1-0.02,0.15,0.17,0.15
			c0.11-0.01,0.17-0.02,0.18-0.03c0.03-0.01,0.06-0.03,0.08-0.05c0.03-0.07,0.01-0.11-0.08-0.13c-0.07-0.01-0.13-0.02-0.19-0.03
			C80.37,112.9,80.32,112.93,80.28,112.98z M80.49,112.26l-0.06,0.05c0.03,0.03,0.05,0.04,0.06,0.05c0.09-0.03,0.14-0.04,0.14-0.04
			S80.58,112.3,80.49,112.26z M80.56,111.53c-0.05,0.06-0.03,0.1,0.05,0.13c0.08,0.01,0.12-0.02,0.14-0.08
			c0.01-0.03,0-0.06-0.03-0.08C80.66,111.47,80.6,111.47,80.56,111.53z M80.64,108.61l0.01,0.06l0.06-0.04L80.64,108.61z
			 M81.26,110.05c-0.06,0.07-0.04,0.11,0.05,0.13l0.08-0.04l-0.04-0.08c-0.03-0.03-0.05-0.04-0.05-0.04S81.29,110.03,81.26,110.05z
			 M81.3,113.77l-0.03-0.05l-0.03,0.05H81.3z M81.3,115.93c0.01-0.01,0.02-0.02,0.04-0.03c0.02,0,0.03,0,0.03-0.01s0-0.02-0.01-0.03
			c0-0.02,0-0.03-0.01-0.04l-0.06,0.03C81.27,115.85,81.28,115.88,81.3,115.93z M81.54,112.21l-0.09,0.01
			c-0.08,0-0.13,0.03-0.13,0.09c-0.01,0.06,0.03,0.09,0.13,0.09h0.08c0.08-0.01,0.13-0.04,0.13-0.1c0.01-0.07,0.01-0.1,0.01-0.1
			S81.62,112.2,81.54,112.21z M81.53,107.8c-0.04,0.01-0.06,0.03-0.06,0.06c-0.01,0.06,0.03,0.09,0.11,0.1
			c0.14,0.01,0.22-0.02,0.24-0.08c-0.02-0.05-0.03-0.08-0.04-0.08C81.7,107.76,81.61,107.76,81.53,107.8z M82.23,118.12
			c0.03,0,0.05-0.02,0.05-0.06c0-0.03-0.02-0.05-0.06-0.06c-0.01,0-0.2,0.01-0.56,0.03c-0.1,0.01-0.15,0.04-0.14,0.1
			c0,0.06,0.1,0.08,0.3,0.06C82.01,118.16,82.15,118.14,82.23,118.12z M81.84,115.3c0.3-0.02,0.49-0.03,0.55-0.04l0.06-0.05
			l-0.08-0.05c-0.22-0.03-0.38-0.05-0.47-0.05c-0.04,0-0.14,0.01-0.28,0.03c-0.1,0.02-0.13,0.05-0.09,0.11
			c0.02,0.03,0.05,0.04,0.09,0.04c0.03,0.01,0.04,0.01,0.04,0.01S81.73,115.3,81.84,115.3z M81.86,114.37
			c-0.13,0.01-0.2,0.01-0.22,0.01c-0.09,0.01-0.12,0.05-0.08,0.13c0.03,0.03,0.05,0.05,0.08,0.05c0.41-0.01,0.63-0.01,0.63-0.01
			c0.03-0.01,0.05-0.03,0.05-0.06c-0.01-0.03-0.03-0.06-0.05-0.08C82.23,114.37,82.09,114.36,81.86,114.37z M81.86,117.3
			c-0.01,0-0.04,0-0.09,0c-0.07-0.02-0.12,0-0.17,0.04c-0.05,0.05,0.02,0.08,0.2,0.09c0.05,0.01,0.08,0.01,0.09,0.01
			c0.09,0.02,0.13-0.01,0.11-0.08C81.99,117.32,81.94,117.3,81.86,117.3z M82.4,112.97c-0.16-0.09-0.34-0.11-0.55-0.05
			c-0.04,0.01-0.07,0.03-0.09,0.05c-0.02,0.03-0.03,0.05-0.03,0.08c0.01,0.03,0.03,0.06,0.06,0.08c0.05,0.03,0.15,0.05,0.3,0.05
			c0.12-0.01,0.2-0.02,0.24-0.03c0.08-0.01,0.12-0.05,0.11-0.11C82.46,113.02,82.44,112.99,82.4,112.97z M81.91,116.56
			c-0.08-0.03-0.11-0.01-0.06,0.06h0.08L81.91,116.56z M81.83,113.68c-0.01,0.03,0.01,0.05,0.05,0.06c0.06,0.03,0.11,0.02,0.14-0.05
			l-0.05-0.05c-0.06-0.03-0.09-0.05-0.09-0.05S81.87,113.62,81.83,113.68z M82.02,106.53h0.06l-0.03-0.05L82.02,106.53z
			 M82.2,111.46c-0.08,0.03-0.11,0.07-0.08,0.13c0,0.02,0.03,0.03,0.08,0.04c0.14,0.06,0.3,0.07,0.46,0.04c0.22,0,0.35,0,0.39,0
			c0.03-0.01,0.05-0.03,0.06-0.06c0.03-0.07,0.01-0.11-0.08-0.13c-0.03-0.01-0.11-0.01-0.23-0.01c-0.1-0.01-0.18-0.02-0.24-0.04
			C82.51,111.39,82.39,111.41,82.2,111.46z M82.25,110.04c-0.03,0.03-0.04,0.05-0.04,0.09c-0.01,0.07,0.03,0.11,0.11,0.11
			c0.23,0.02,0.52,0.01,0.86-0.03c0.04,0,0.1-0.02,0.18-0.05c0.08-0.03,0.1-0.07,0.08-0.14c-0.02-0.03-0.04-0.05-0.08-0.06
			c-0.05,0-0.25-0.01-0.61-0.03c-0.2,0.01-0.31,0.01-0.34,0.01C82.35,109.96,82.29,109.98,82.25,110.04z M82.26,118.82l-0.03-0.06
			l-0.03,0.05L82.26,118.82z M82.39,109.31c-0.1,0-0.15,0.03-0.14,0.1c0.01,0.06,0.05,0.08,0.14,0.08h0.1
			c0.09,0.01,0.13-0.02,0.13-0.09c-0.01-0.06-0.06-0.09-0.14-0.09C82.43,109.31,82.4,109.31,82.39,109.31z M82.44,115.91
			c0,0.01-0.01,0.03-0.03,0.06c0.01,0.01,0.02,0.01,0.03,0.01c0.02,0.01,0.03,0.02,0.04,0.03c0.02-0.03,0.03-0.05,0.03-0.06
			C82.47,115.93,82.45,115.91,82.44,115.91z M83.3,112.38c0.08-0.02,0.11-0.05,0.11-0.11c0.01-0.07-0.02-0.11-0.09-0.14
			c-0.03-0.01-0.07-0.02-0.1-0.03c-0.1-0.01-0.16-0.01-0.18,0c-0.05,0.01-0.14,0.02-0.28,0.04c-0.12,0.01-0.21,0.03-0.27,0.05
			c-0.03,0.02-0.06,0.04-0.06,0.08c-0.01,0.08,0.03,0.12,0.11,0.13c0.03,0,0.14,0,0.36,0.01c0.18-0.01,0.28-0.01,0.3-0.01
			C83.23,112.4,83.26,112.39,83.3,112.38z M82.57,119.61c0.13,0.04,0.22,0.05,0.27,0.04c0.07-0.02,0.1-0.06,0.09-0.14l-0.06-0.06
			c-0.07-0.04-0.16-0.06-0.27-0.05c-0.09,0.01-0.14,0.04-0.14,0.09c-0.01,0.06-0.01,0.09-0.01,0.09S82.48,119.58,82.57,119.61z
			 M82.58,107.22l-0.03,0.08c0.03,0.04,0.05,0.06,0.06,0.06c0.26,0.03,0.48,0.03,0.65-0.03c0.03-0.01,0.05-0.02,0.08-0.04
			c0.06-0.05,0.07-0.11,0.03-0.17c-0.02-0.03-0.04-0.05-0.06-0.05c-0.08-0.02-0.2-0.01-0.33,0.03c-0.15,0.04-0.26,0.06-0.32,0.06
			c-0.03,0-0.04,0-0.04,0S82.61,107.18,82.58,107.22z M82.62,118.76l-0.04,0.08h0.08L82.62,118.76z M82.95,120.29
			c0.04-0.06,0.02-0.09-0.06-0.1l-0.08,0.03c-0.04,0.07-0.02,0.11,0.06,0.11c0.04,0,0.06,0,0.06,0S82.94,120.32,82.95,120.29z
			 M83.28,117.44c0.03-0.02,0.05-0.04,0.05-0.06c0.01-0.03,0-0.06-0.04-0.08c-0.05-0.03-0.11-0.04-0.19-0.03
			c-0.15,0.03-0.24,0.06-0.27,0.09c0.02,0.03,0.11,0.07,0.28,0.1C83.16,117.47,83.22,117.46,83.28,117.44z M83.24,116.51
			c-0.09-0.03-0.19-0.04-0.28-0.01c-0.08,0.02-0.12,0.05-0.1,0.11c0,0.03,0.02,0.06,0.05,0.08c0.08,0.07,0.17,0.1,0.25,0.09
			c0.07,0,0.12-0.04,0.15-0.11C83.33,116.59,83.31,116.54,83.24,116.51z M83.63,108.66c0.01,0,0.01-0.01,0-0.03l-0.01-0.03
			c-0.03-0.01-0.12-0.03-0.25-0.05c-0.18,0.02-0.28,0.03-0.29,0.03c-0.05,0-0.08,0.01-0.08,0.04c-0.03,0.05,0.01,0.08,0.1,0.09
			c0.27,0.02,0.41,0.03,0.41,0.03S83.55,108.72,83.63,108.66z M83.05,115.88c-0.01,0.03,0,0.05,0.01,0.08
			c0.05,0.05,0.11,0.07,0.18,0.05l0.08-0.04l-0.03-0.08c-0.14-0.1-0.22-0.15-0.22-0.15S83.07,115.78,83.05,115.88z M83.29,114.56
			c0.09-0.02,0.13-0.05,0.13-0.11c-0.01-0.05-0.05-0.08-0.13-0.09h-0.11c-0.08,0.02-0.12,0.05-0.11,0.11
			c0.01,0.06,0.05,0.09,0.14,0.09C83.23,114.56,83.26,114.56,83.29,114.56z M83.29,118.9l0.03-0.09c-0.04-0.06-0.09-0.07-0.15-0.03
			c-0.03,0.03-0.04,0.05-0.03,0.08c0.03,0.06,0.05,0.09,0.05,0.09S83.22,118.93,83.29,118.9z M83.27,105.73l0.08,0.04v-0.06
			L83.27,105.73z M83.39,115.27c0.09-0.02,0.1-0.04,0.01-0.08l-0.06,0.03c0.03,0.03,0.04,0.04,0.04,0.04S83.38,115.26,83.39,115.27z
			 M83.67,118.06c-0.03,0.03-0.04,0.06-0.03,0.08c0.04,0.05,0.1,0.06,0.17,0.04c0.03-0.02,0.05-0.03,0.05-0.05
			c0.01-0.08-0.03-0.11-0.11-0.1C83.71,118.04,83.68,118.05,83.67,118.06z M83.91,109.34c-0.08-0.03-0.11-0.01-0.11,0.06l0.08,0.04
			c0.04-0.02,0.06-0.03,0.06-0.04C83.96,109.38,83.95,109.35,83.91,109.34z M84.09,112.37l0.08-0.04l-0.01-0.06
			c-0.03-0.02-0.06-0.02-0.09-0.01c-0.08,0.05-0.11,0.08-0.11,0.08S84,112.35,84.09,112.37z M83.96,119.48l0.03,0.05l0.05-0.05
			H83.96z M84.12,118.8c-0.08,0-0.12,0.04-0.11,0.11c0.01,0.03,0.03,0.04,0.08,0.04c0.09,0.01,0.13-0.03,0.1-0.1
			C84.18,118.85,84.16,118.83,84.12,118.8z M84.02,110.14c0,0.01,0.01,0.03,0.03,0.08c0.06,0,0.09,0,0.09-0.01
			c0.06-0.06,0.04-0.09-0.05-0.1C84.04,110.1,84.02,110.11,84.02,110.14z M84.4,120.29c0.01-0.07-0.02-0.11-0.09-0.14
			c-0.07-0.02-0.13-0.02-0.19,0c-0.08,0.03-0.11,0.08-0.09,0.14c0.01,0.06,0.05,0.1,0.14,0.11c0.07,0.01,0.13,0,0.18-0.04
			C84.37,120.34,84.39,120.32,84.4,120.29z M84.09,107.95l0.01,0.06c0.03-0.02,0.05-0.03,0.06-0.03c0-0.01,0-0.02-0.01-0.04
			c0-0.02,0-0.03,0-0.04C84.11,107.94,84.09,107.95,84.09,107.95z M84.19,114.42l-0.06,0.04c0.01,0,0.02,0.01,0.03,0.03
			c0.02,0.01,0.03,0.02,0.03,0.03c0.09-0.03,0.14-0.04,0.14-0.04S84.28,114.45,84.19,114.42z M84.71,113.6
			c-0.08-0.02-0.16-0.01-0.22,0.01c-0.07,0.02-0.09,0.05-0.08,0.09c0.03,0.06,0.1,0.1,0.23,0.11c0.08,0.01,0.13-0.02,0.15-0.08
			C84.83,113.68,84.8,113.63,84.71,113.6z M84.57,108.61l-0.05,0.04l0.05,0.04c0.01,0,0.03-0.01,0.06-0.04
			c-0.03-0.03-0.05-0.04-0.05-0.04S84.58,108.61,84.57,108.61z M84.71,107.1c-0.07,0.03-0.09,0.07-0.08,0.14
			c0.02,0.07,0.06,0.09,0.14,0.06c0.08-0.02,0.1-0.06,0.08-0.13C84.84,107.11,84.79,107.09,84.71,107.1z M84.84,114.45l-0.06-0.04
			v0.06L84.84,114.45z M84.99,110.1l-0.08-0.05c-0.09,0.01-0.11,0.05-0.04,0.13c0.02,0.02,0.04,0.02,0.08,0c0.01,0,0.01,0,0.01,0
			S84.98,110.15,84.99,110.1z M85.04,112.89c-0.08-0.01-0.14,0.02-0.15,0.09c-0.02,0.08,0.02,0.12,0.1,0.14
			c0.03,0.01,0.06,0.01,0.09,0.01c0.14-0.01,0.23-0.04,0.25-0.1s-0.04-0.1-0.2-0.13C85.07,112.9,85.04,112.89,85.04,112.89z
			 M85.36,108.6c-0.04,0.02-0.06,0.04-0.04,0.06c0.04,0.05,0.09,0.06,0.15,0.03c0.03-0.02,0.05-0.04,0.04-0.06
			c0-0.01-0.03-0.03-0.08-0.05C85.39,108.58,85.36,108.59,85.36,108.6z M85.59,110.75c-0.04,0.02-0.07,0.04-0.08,0.06
			c-0.04,0.08-0.02,0.11,0.08,0.11c0.08-0.01,0.13-0.05,0.14-0.11C85.73,110.73,85.68,110.71,85.59,110.75z"/>
		<path class="st2" d="M95.71,112.52c0-4.18,0-6.79,0-7.83c0-0.23,0.01-0.49,0.03-0.77c0-0.03,0.02-0.09,0.06-0.18
			c0.05-0.09,0.13-0.15,0.23-0.17c0.09-0.03,0.19-0.04,0.28-0.04c1.33,0,2.58,0,3.77,0.01c0.01,0,0.11,0.01,0.29,0.03
			c0.14,0.02,0.22,0.11,0.24,0.27l0.03,0.29c0,0.11,0,0.33,0,0.67c0,0.28,0,0.91,0,1.89v1.88c0,0.28,0.01,0.47,0.04,0.58
			c0.01,0.07,0.05,0.11,0.11,0.13c0.08,0.03,0.14,0.02,0.19-0.03c0.07-0.05,0.22-0.21,0.47-0.48c0.36-0.39,1.46-1.6,3.31-3.64
			c0.61-0.67,0.98-1.08,1.12-1.22c0.08-0.1,0.17-0.19,0.27-0.27c0.05-0.04,0.11-0.07,0.18-0.08c0.13-0.02,0.26-0.03,0.38-0.03
			c1.88-0.01,3.69-0.01,5.42-0.01c0.07,0,0.19,0.01,0.38,0.04c0.03,0,0.06,0.01,0.08,0.04c0.05,0.07,0.05,0.13,0.01,0.19
			c-0.09,0.13-0.17,0.22-0.24,0.29c-0.07,0.08-0.94,1.04-2.6,2.87c-1.1,1.21-2.05,2.26-2.86,3.15c-0.19,0.21-0.3,0.36-0.36,0.46
			c-0.05,0.1-0.06,0.19-0.03,0.28c0.15,0.29,0.26,0.49,0.32,0.6c0.15,0.25,0.76,1.28,1.83,3.07c1.89,3.17,3.14,5.28,3.76,6.32
			c0.12,0.21,0.19,0.36,0.2,0.43c0.03,0.14,0,0.21-0.11,0.23c-0.17,0.03-0.23,0.04-0.19,0.04c-0.13,0.01-0.25,0.01-0.38,0.01
			c-1.46,0-2.78,0-3.97,0c-0.32,0-0.55-0.01-0.67-0.04c-0.1-0.03-0.18-0.07-0.24-0.14c-0.08-0.08-0.12-0.14-0.13-0.15
			c-0.08-0.14-0.19-0.3-0.3-0.5c-2.07-3.5-3.15-5.34-3.25-5.5c-0.03-0.05-0.11-0.18-0.27-0.39c-0.13-0.19-0.26-0.22-0.41-0.08
			c-0.01,0.01-0.02,0.02-0.04,0.04c-0.02,0.01-0.03,0.02-0.04,0.03c-0.51,0.56-1.09,1.2-1.75,1.93c-0.01,0.01-0.03,0.03-0.06,0.08
			c-0.08,0.12-0.13,0.24-0.14,0.36c-0.02,0.19-0.03,0.35-0.03,0.48c0,0.35,0,0.85,0,1.5c0,0.69,0,1.18,0,1.5
			c0,0.27-0.01,0.47-0.03,0.58c-0.03,0.14-0.12,0.23-0.27,0.25c-0.15,0.03-0.22,0.03-0.19,0.03c-0.19,0.02-0.35,0.03-0.48,0.03
			c-1.22,0-2.25,0-3.08,0c-0.14,0-0.3-0.01-0.48-0.04c-0.22-0.02-0.34-0.14-0.37-0.38c-0.02-0.14-0.03-0.36-0.03-0.67
			c0-0.64,0-2.13,0-4.46V112.52z M97.02,109.34c-0.09,0-0.13,0.03-0.1,0.1c0.01,0.03,0.03,0.04,0.08,0.05
			c0.08,0.02,0.13,0,0.15-0.06c0.01-0.03,0-0.05-0.04-0.08C97.08,109.34,97.05,109.34,97.02,109.34z M96.96,107.86
			c-0.01,0.03,0.01,0.05,0.05,0.06c0.06,0.03,0.11,0.02,0.14-0.05c-0.03-0.04-0.04-0.06-0.05-0.06
			C97.04,107.79,97,107.81,96.96,107.86z M97.19,119.63c0.08,0.03,0.18-0.01,0.32-0.1c-0.12-0.03-0.2-0.05-0.24-0.06
			c-0.03-0.01-0.06-0.01-0.09-0.01c-0.04,0.02-0.07,0.03-0.08,0.05C97.09,119.57,97.12,119.61,97.19,119.63z M97.18,117.36
			l0.06,0.04v-0.08L97.18,117.36z M97.61,118.05c-0.17-0.04-0.29-0.05-0.37-0.03c-0.03,0.01-0.04,0.03-0.05,0.06
			c-0.03,0.08,0,0.13,0.08,0.14c0.13,0.02,0.25,0,0.37-0.05l0.04-0.08C97.63,118.06,97.61,118.05,97.61,118.05z M97.26,105.71v0.08
			c0.01,0,0.03,0,0.08,0v-0.08c-0.03,0-0.05,0-0.05,0S97.27,105.71,97.26,105.71z M97.36,114.44l-0.06-0.04
			c-0.01,0.03-0.02,0.05-0.03,0.06c0.06,0.05,0.09,0.08,0.09,0.08S97.36,114.51,97.36,114.44z M97.66,116.69
			c0.09-0.01,0.14-0.03,0.15-0.08c0.03-0.06-0.01-0.09-0.11-0.1c-0.17-0.01-0.26-0.01-0.27,0c-0.08,0-0.12,0.03-0.1,0.1
			c0.01,0.03,0.03,0.05,0.06,0.06c0.02,0,0.08,0,0.18,0.01C97.63,116.69,97.66,116.69,97.66,116.69z M97.36,118.83l0.01,0.08
			c0.01,0,0.04,0,0.09-0.01l-0.03-0.06C97.43,118.83,97.41,118.83,97.36,118.83z M97.41,108.61c-0.03,0.06,0,0.09,0.09,0.1
			c0.08,0.01,0.13-0.01,0.15-0.05c0.03-0.06,0-0.09-0.09-0.09h-0.08c-0.05,0.02-0.08,0.03-0.08,0.03S97.41,108.6,97.41,108.61z
			 M98.12,115.15c-0.25-0.02-0.46-0.01-0.65,0.01c-0.03,0-0.05,0.02-0.05,0.06c0,0.03,0.02,0.05,0.05,0.06
			c0.05,0.02,0.11,0.02,0.17,0.01c0.07-0.01,0.09-0.02,0.06-0.03h0.42c0.07,0,0.12-0.02,0.17-0.06
			C98.25,115.17,98.2,115.15,98.12,115.15z M97.84,119.52c0-0.03-0.02-0.04-0.05-0.05c-0.03-0.02-0.06-0.02-0.09-0.01
			c-0.02,0.01-0.07,0.04-0.15,0.09c0.08,0.03,0.12,0.04,0.14,0.05C97.77,119.62,97.82,119.6,97.84,119.52z M97.7,117.35l0.01,0.06
			l0.08-0.03l-0.01-0.06c-0.05,0.01-0.08,0.01-0.08,0.01S97.7,117.34,97.7,117.35z M97.89,112.31l0.06,0.04l0.03-0.05L97.89,112.31z
			 M98.03,114.43c-0.08-0.03-0.1-0.01-0.08,0.05h0.06L98.03,114.43z M98.09,111.52c-0.03,0.07,0.01,0.09,0.1,0.08
			c0.05-0.01,0.08-0.02,0.09-0.03c0.02-0.05-0.02-0.08-0.11-0.08L98.09,111.52z M98.27,116.04c0.07,0.01,0.13,0,0.18-0.03
			c0.07-0.04,0.09-0.09,0.08-0.15c-0.03-0.07-0.08-0.09-0.15-0.08c-0.06,0.02-0.11,0.04-0.17,0.06c-0.03,0.02-0.05,0.04-0.05,0.08
			C98.15,115.99,98.19,116.03,98.27,116.04z M98.31,105.72c-0.03,0.07,0,0.1,0.09,0.09c0.03-0.01,0.05-0.02,0.06-0.04
			c0.03-0.06,0-0.09-0.08-0.09C98.34,105.7,98.32,105.71,98.31,105.72z M98.45,112.99c-0.03-0.02-0.06-0.02-0.09,0
			c-0.08,0.07-0.06,0.1,0.05,0.1l0.08-0.04C98.46,113.02,98.45,112.99,98.45,112.99z M98.51,107.93l-0.03-0.08
			c-0.08-0.04-0.12-0.02-0.14,0.06c-0.01,0.03,0,0.06,0.04,0.08c0.07,0.04,0.1,0.06,0.1,0.06S98.5,108.01,98.51,107.93z
			 M98.48,109.35c-0.09,0-0.12,0.03-0.09,0.09c0.01,0.02,0.03,0.03,0.08,0.03c0.08-0.01,0.13-0.02,0.18-0.03
			c0.05-0.02,0.06-0.03,0.03-0.05C98.62,109.37,98.56,109.36,98.48,109.35z M98.67,117.97c-0.03-0.03-0.08-0.02-0.13,0.01
			c-0.04,0.03-0.06,0.06-0.06,0.11c0.01,0.07,0.05,0.11,0.13,0.11s0.12-0.02,0.14-0.09C98.76,118.06,98.73,118,98.67,117.97z
			 M98.7,119.58c0.09,0,0.13-0.03,0.11-0.09c-0.02-0.05-0.07-0.07-0.15-0.06c-0.08-0.01-0.13,0.01-0.15,0.05
			c-0.03,0.07,0.01,0.1,0.1,0.1H98.7z M99.11,117.37c-0.01-0.03-0.09-0.05-0.25-0.08h-0.18c-0.09-0.01-0.13,0.02-0.11,0.09
			c0.01,0.01,0.04,0.02,0.09,0.04c0.01,0,0.04,0,0.09,0h0.1C98.99,117.42,99.08,117.41,99.11,117.37z M98.72,107.14
			c-0.07,0.01-0.11,0.04-0.13,0.1l0.03,0.08c0.04,0.04,0.1,0.05,0.17,0.01c0.08-0.03,0.1-0.07,0.08-0.13
			c-0.02-0.06-0.03-0.09-0.03-0.09S98.79,107.12,98.72,107.14z M98.96,114.43c-0.02,0.09,0.02,0.12,0.11,0.08l0.03-0.08
			c-0.04-0.03-0.07-0.04-0.08-0.04c-0.04-0.01-0.06-0.01-0.06-0.01S98.96,114.39,98.96,114.43z M99.11,116.68l-0.06-0.03l-0.04,0.05
			l0.06,0.03C99.07,116.73,99.08,116.71,99.11,116.68z M99.28,111.5l-0.06,0.05c0.03,0.03,0.05,0.05,0.06,0.05
			c0.03,0.02,0.06,0.01,0.09-0.01v-0.06c-0.05-0.02-0.08-0.03-0.08-0.03S99.28,111.5,99.28,111.5z M99.22,113.72
			c0.03,0.03,0.05,0.04,0.06,0.04l0.05-0.04l-0.05-0.05l-0.01,0.01c-0.02,0.01-0.02,0.01,0,0c-0.02,0.01-0.02,0.01,0,0
			c-0.02,0.01-0.02,0.01-0.01,0l-0.01,0.01l-0.01,0.01c0.01-0.01,0-0.01-0.01,0c-0.01,0.02-0.01,0.02,0,0
			c-0.01,0.02-0.01,0.03-0.01,0.03S99.22,113.73,99.22,113.72z M99.43,118.15c0.05-0.04,0.05-0.09-0.01-0.14
			c-0.04,0.02-0.07,0.03-0.08,0.03c-0.05,0.05-0.05,0.09,0.01,0.13C99.38,118.18,99.4,118.17,99.43,118.15z M99.63,115.93
			c-0.09,0.01-0.16,0.01-0.2,0.01c-0.04,0.02-0.06,0.03-0.06,0.04s0.03,0.02,0.08,0.03c0.02,0,0.04-0.01,0.08-0.03
			C99.54,115.97,99.58,115.95,99.63,115.93z M99.85,114.42c-0.01,0-0.03,0.01-0.06,0.04l0.05,0.04c0.01,0,0.03-0.01,0.06-0.03
			C99.86,114.43,99.85,114.42,99.85,114.42z M100.34,110.8c-0.02,0.07,0.01,0.11,0.09,0.14c0.14,0.04,0.27,0.04,0.38-0.01
			c0.02,0,0.16-0.05,0.42-0.15c-0.38-0.03-0.59-0.04-0.62-0.05c-0.04,0-0.11,0.01-0.19,0.03
			C100.37,110.76,100.35,110.78,100.34,110.8z M101.36,111.5c-0.01,0.03-0.02,0.05-0.03,0.06c0.02,0.01,0.04,0.02,0.06,0.04
			l0.03-0.06C101.42,111.53,101.4,111.52,101.36,111.5z M102.26,110.73c-0.04,0.02-0.05,0.04-0.03,0.06
			c0.04,0.04,0.1,0.05,0.17,0.04c0.03-0.01,0.06-0.02,0.08-0.04c0.02-0.03,0.01-0.06-0.03-0.08
			C102.39,110.7,102.33,110.7,102.26,110.73z M102.27,112.27l-0.05,0.05l0.05,0.04l0.06-0.04c-0.03-0.03-0.05-0.05-0.05-0.05
			S102.28,112.27,102.27,112.27z M102.78,111.44c-0.19-0.02-0.31-0.02-0.38,0c-0.09,0.02-0.14,0.05-0.13,0.11
			c0.01,0.07,0.06,0.1,0.15,0.1c0.03,0,0.09,0,0.19-0.01c0.35-0.01,0.72-0.02,1.12-0.03c0.27,0.02,0.41,0.03,0.42,0.03
			c0.05,0.01,0.13,0.02,0.24,0.03c0.1,0.01,0.18,0.01,0.24,0.01c0.1,0.01,0.2,0.01,0.29,0.01c0.08,0,0.12-0.03,0.14-0.09
			c0.02-0.07-0.01-0.12-0.09-0.15c-0.14-0.06-0.27-0.08-0.37-0.06C103.96,111.49,103.35,111.5,102.78,111.44z M103.21,113.01
			c0.01-0.07-0.03-0.11-0.1-0.11c-0.28-0.04-0.49-0.02-0.63,0.06h0.01c0.12,0.12,0.26,0.18,0.42,0.18c0.09-0.01,0.15-0.01,0.18-0.01
			c0.08-0.02,0.11-0.03,0.11-0.03S103.2,113.07,103.21,113.01z M102.93,110.21l0.08-0.01l-0.06-0.05L102.93,110.21z M102.98,112.35
			l0.01-0.06l-0.06,0.03L102.98,112.35z M103.13,113.77c0.01-0.01,0.02-0.03,0.04-0.06c-0.03-0.02-0.06-0.03-0.06-0.04l-0.03,0.06
			c0.01,0.03,0.01,0.05,0.01,0.05S103.11,113.78,103.13,113.77z M103.21,109.26c-0.08,0.03-0.11,0.08-0.1,0.14
			c0.01,0.06,0.05,0.09,0.14,0.09c0.05,0,0.08,0,0.09,0c0.07-0.02,0.1-0.06,0.09-0.13c0-0.03-0.02-0.05-0.05-0.08
			C103.33,109.24,103.27,109.24,103.21,109.26z M103.6,112.37c0.07,0.03,0.11,0.02,0.14-0.05c-0.03-0.05-0.04-0.08-0.05-0.08
			c-0.07-0.04-0.11-0.02-0.14,0.06C103.54,112.33,103.56,112.35,103.6,112.37z M104.39,113.79c0.15,0.01,0.25,0,0.29-0.04
			c0.03-0.02,0.05-0.04,0.04-0.08c0-0.03-0.02-0.05-0.05-0.06c-0.13-0.06-0.34-0.06-0.63,0c-0.05,0.01-0.07,0.03-0.05,0.06
			c0.02,0.03,0.04,0.05,0.06,0.05C104.1,113.75,104.21,113.77,104.39,113.79z M104.28,112.99c-0.04,0.07-0.02,0.11,0.06,0.11
			l0.05-0.05c-0.02-0.05-0.03-0.08-0.04-0.08c-0.03-0.02-0.05-0.03-0.05-0.03S104.29,112.97,104.28,112.99z M104.28,112.33
			c0.06,0.05,0.09,0.04,0.09-0.03c-0.01-0.02-0.03-0.03-0.06-0.03L104.28,112.33z M104.35,110.77c-0.01,0.03,0,0.05,0.01,0.08
			c0.03,0.05,0.08,0.07,0.15,0.06c0.06-0.02,0.1-0.05,0.11-0.11c-0.03-0.04-0.04-0.06-0.05-0.06
			C104.47,110.66,104.4,110.67,104.35,110.77z M104.72,107.81c-0.2-0.02-0.25,0.02-0.18,0.1c0.03,0.04,0.09,0.06,0.17,0.05
			c0.07,0,0.12-0.02,0.15-0.06C104.84,107.85,104.79,107.82,104.72,107.81z M104.89,114.49l0.01-0.06
			c-0.05-0.02-0.08-0.03-0.09-0.04c-0.01,0-0.02,0-0.04,0c-0.02-0.01-0.03-0.01-0.05-0.01c-0.07-0.03-0.12-0.01-0.15,0.04
			c-0.02,0.03-0.02,0.05-0.01,0.08c0.03,0.05,0.09,0.07,0.17,0.05c0.08-0.03,0.13-0.04,0.13-0.04S104.86,114.5,104.89,114.49z
			 M104.9,110.2c0.05-0.08,0.04-0.13-0.04-0.15c-0.07-0.03-0.11,0-0.14,0.08c0,0.08,0.04,0.11,0.11,0.11
			C104.86,110.24,104.88,110.23,104.9,110.2z M104.96,109.41l-0.04-0.08c-0.07-0.04-0.12-0.03-0.15,0.03
			c-0.02,0.03,0,0.05,0.04,0.08c0.06,0.03,0.09,0.05,0.09,0.05S104.92,109.46,104.96,109.41z M104.92,108.72
			c0.01-0.03,0-0.06-0.03-0.08c-0.07-0.04-0.1-0.02-0.1,0.06l0.05,0.05C104.89,108.74,104.92,108.72,104.92,108.72z M104.94,107.22
			c-0.03,0.04,0.05,0.05,0.22,0.03c-0.07-0.03-0.11-0.04-0.14-0.04C104.98,107.2,104.95,107.2,104.94,107.22z M105.24,115.24
			c0.02-0.03,0.01-0.05-0.03-0.08c-0.05-0.03-0.11-0.03-0.17,0c-0.03,0.02-0.03,0.04-0.03,0.08c0.01,0.03,0.03,0.04,0.06,0.05
			C105.16,115.32,105.21,115.3,105.24,115.24z M105.14,112.32c0.03,0.06,0.09,0.09,0.17,0.09c0.08,0,0.13-0.03,0.14-0.1
			c0.01-0.07-0.03-0.11-0.1-0.13c-0.05-0.01-0.1,0-0.15,0.04S105.12,112.29,105.14,112.32z M105.42,107.2
			c-0.04-0.03-0.11-0.01-0.22,0.04c0.07,0.01,0.12,0.01,0.15,0.01C105.36,107.26,105.38,107.24,105.42,107.2z M105.29,110.8
			c0.07,0.04,0.1,0.03,0.09-0.04l-0.06-0.03c-0.01,0.01-0.01,0.02-0.01,0.03c-0.01,0.02-0.01,0.03-0.01,0.03
			S105.29,110.79,105.29,110.8z M105.41,116.64l-0.05-0.04l-0.01,0.06L105.41,116.64z M105.55,113.72
			c-0.03-0.04-0.04-0.06-0.05-0.06c-0.03-0.01-0.06,0-0.06,0.03c-0.05,0.07-0.03,0.1,0.05,0.09
			C105.49,113.77,105.51,113.75,105.55,113.72z M105.45,110.09l-0.04,0.06c0.04,0.02,0.07,0.03,0.08,0.04
			c0.02-0.04,0.03-0.07,0.03-0.08c-0.01-0.03-0.01-0.04-0.01-0.04S105.48,110.08,105.45,110.09z M105.88,109.36
			c-0.03-0.01-0.06-0.02-0.09-0.04C105.81,109.37,105.84,109.38,105.88,109.36z M105.83,115.06h-0.01H105.83z M105.97,107.9
			c-0.02,0.03-0.01,0.05,0.01,0.08h0.08l0.03-0.08c-0.04-0.07-0.06-0.1-0.06-0.1S106,107.84,105.97,107.9z M106.19,106.42
			c-0.03,0.01-0.05,0.03-0.04,0.06c0.01,0.08,0.04,0.08,0.1,0.03v-0.06C106.21,106.43,106.19,106.42,106.19,106.42z M107.37,115.15
			c0.03,0.01-0.16,0-0.57-0.03c-0.07,0-0.28-0.01-0.63-0.03c0.07,0.06,0.11,0.09,0.13,0.1c0.08,0.05,0.13,0.08,0.18,0.08
			c0.42,0.05,0.71,0.08,0.85,0.08c0.08-0.01,0.12-0.05,0.1-0.14C107.42,115.18,107.4,115.16,107.37,115.15z M106.73,117.42
			c0.09-0.01,0.13-0.04,0.1-0.09c-0.01-0.02-0.03-0.03-0.08-0.04c-0.08-0.01-0.14-0.02-0.19-0.03c-0.03,0-0.06,0-0.1,0.01
			c-0.04,0-0.07,0-0.09,0c-0.08,0-0.14,0.02-0.18,0.06c-0.06,0.04,0.04,0.07,0.3,0.09C106.64,117.43,106.72,117.42,106.73,117.42z
			 M106.32,105.69c-0.06,0.07-0.04,0.11,0.05,0.11c0.01,0,0.03-0.02,0.08-0.05c-0.03-0.04-0.04-0.07-0.04-0.08
			C106.37,105.66,106.34,105.67,106.32,105.69z M106.52,113.65l-0.08-0.01l-0.06,0.05c0.03,0.03,0.05,0.04,0.06,0.05
			c0.03,0.01,0.05,0,0.08-0.01c0-0.01,0-0.01,0-0.01S106.52,113.7,106.52,113.65z M106.68,114.35c-0.04,0-0.07,0-0.09,0.01
			c-0.08,0.02-0.11,0.06-0.1,0.13c0.01,0.07,0.05,0.1,0.11,0.1c0.18,0.02,0.33,0,0.46-0.05c0.08-0.03,0.1-0.07,0.06-0.13
			c-0.02-0.03-0.04-0.04-0.08-0.05c-0.01,0-0.06,0-0.14-0.01H106.68z M106.52,107.12c-0.03,0.01-0.04,0.03-0.04,0.08
			c0.01,0.08,0.05,0.11,0.13,0.09c0.01,0,0.02-0.03,0.04-0.09C106.63,107.11,106.59,107.08,106.52,107.12z M107.02,107.85
			c-0.1-0.01-0.12,0.03-0.05,0.1c0.02,0.03,0.04,0.02,0.06-0.03C107.04,107.92,107.04,107.89,107.02,107.85z M107.07,106.46
			c-0.03,0.09,0.03,0.14,0.2,0.13c0.11-0.01,0.17-0.01,0.18-0.01c0.03,0,0.06-0.01,0.1-0.03c0.07-0.03,0.09-0.07,0.08-0.14
			c-0.03-0.07-0.07-0.1-0.14-0.1c-0.02-0.01-0.05-0.01-0.09,0c-0.02,0.01-0.05,0.02-0.1,0.03c-0.03,0.01-0.06,0.02-0.09,0.03
			C107.13,106.36,107.09,106.4,107.07,106.46z M107.08,105.8l0.05,0.01l-0.01-0.06L107.08,105.8z M107.36,104.92
			c-0.03,0.03-0.05,0.05-0.05,0.06c0,0.03,0.02,0.06,0.05,0.08c0.03,0.01,0.21,0.01,0.56,0.01c0.04,0,0.07-0.01,0.08-0.03
			c0.04-0.08,0.02-0.12-0.08-0.13c-0.03,0-0.12-0.01-0.29-0.03h-0.18C107.42,104.89,107.39,104.9,107.36,104.92z M107.93,118.03
			l-0.04,0.06l0.06,0.03l0.04-0.05c-0.03-0.02-0.04-0.03-0.04-0.03S107.95,118.04,107.93,118.03z M108.05,105.69
			c-0.08,0-0.1,0.03-0.05,0.09l0.06-0.03L108.05,105.69z M108.1,116.57c-0.09,0-0.11,0.03-0.04,0.1c0.03,0.03,0.05,0.03,0.06-0.03
			C108.13,116.65,108.12,116.63,108.1,116.57z M108.66,105.73l0.05,0.03l0.01-0.05L108.66,105.73z"/>
		<circle class="st2" cx="39.29" cy="120.41" r="2.56"/>
		<circle class="st2" cx="39.29" cy="120.41" r="2.56"/>
		<circle class="st2" cx="68.34" cy="120.41" r="2.56"/>
		<circle class="st2" cx="91.86" cy="120.41" r="2.56"/>
		<circle class="st2" cx="116.87" cy="120.41" r="2.56"/>
	</g>
</g>
<g>
	<path class="st2" d="M42.8,14.14H7.87c-1.57,0-2.85-1.28-2.85-2.85v0c0-1.57,1.28-2.85,2.85-2.85H42.8c1.57,0,2.85,1.28,2.85,2.85
		v0C45.65,12.85,44.37,14.14,42.8,14.14z"/>
	<path class="st2" d="M42.8,28.45H7.87c-1.57,0-2.85-1.28-2.85-2.85v0c0-1.57,1.28-2.85,2.85-2.85H42.8c1.57,0,2.85,1.28,2.85,2.85
		v0C45.65,27.17,44.37,28.45,42.8,28.45z"/>
	<path class="st2" d="M42.8,42.77H7.87c-1.57,0-2.85-1.28-2.85-2.85v0c0-1.57,1.28-2.85,2.85-2.85H42.8c1.57,0,2.85,1.28,2.85,2.85
		v0C45.65,41.48,44.37,42.77,42.8,42.77z"/>
	<g>
		<path class="st2" d="M5.02,17.88c0.19,0,0.31,0.03,0.42,0.07c0.19,0.07,0.39,0.22,0.65,0.51c0.4,0.44,0.82,1.17,1.5,1.92
			c0.34,0.37,0.77,0.75,1.32,1.04c0.55,0.29,1.21,0.46,1.91,0.46c0.53,0,1.05-0.1,1.5-0.27c0.8-0.31,1.39-0.84,1.82-1.33
			c0.65-0.75,1.07-1.47,1.46-1.87c0.19-0.21,0.35-0.33,0.49-0.41c0.15-0.07,0.28-0.11,0.53-0.12c0.19,0,0.31,0.03,0.42,0.07
			c0.19,0.07,0.39,0.22,0.65,0.51c0.4,0.44,0.82,1.17,1.5,1.92c0.34,0.37,0.77,0.75,1.32,1.04c0.55,0.29,1.21,0.46,1.91,0.46
			c0.53,0,1.05-0.1,1.5-0.27c0.8-0.31,1.39-0.84,1.82-1.33c0.65-0.75,1.07-1.47,1.46-1.87c0.19-0.21,0.35-0.33,0.49-0.41
			c0.15-0.07,0.28-0.11,0.53-0.12c0.19,0,0.31,0.03,0.42,0.07c0.19,0.07,0.39,0.22,0.65,0.51c0.4,0.44,0.82,1.17,1.5,1.92
			c0.34,0.37,0.77,0.75,1.32,1.04c0.55,0.29,1.21,0.46,1.91,0.46c0.53,0,1.05-0.1,1.5-0.27c0.8-0.31,1.39-0.83,1.82-1.33
			c0.65-0.75,1.07-1.47,1.46-1.87c0.19-0.21,0.35-0.33,0.49-0.41c0.15-0.07,0.28-0.12,0.53-0.12c0.19,0,0.31,0.03,0.43,0.07
			c0.19,0.07,0.39,0.22,0.65,0.51c0.4,0.44,0.83,1.17,1.5,1.92c0.34,0.37,0.77,0.75,1.32,1.04c0.55,0.29,1.21,0.46,1.91,0.46
			c0.83,0,1.5-0.67,1.5-1.5c0-0.83-0.67-1.5-1.5-1.5c-0.19,0-0.31-0.03-0.42-0.07c-0.19-0.07-0.39-0.22-0.65-0.51
			c-0.4-0.44-0.83-1.17-1.5-1.92c-0.34-0.37-0.77-0.75-1.32-1.04c-0.55-0.29-1.21-0.46-1.91-0.46c-0.53,0-1.05,0.1-1.5,0.27
			c-0.8,0.31-1.39,0.83-1.82,1.33c-0.65,0.75-1.07,1.47-1.46,1.87c-0.19,0.21-0.35,0.33-0.49,0.41c-0.15,0.07-0.28,0.12-0.53,0.12
			c-0.19,0-0.31-0.03-0.42-0.07c-0.19-0.07-0.39-0.22-0.65-0.51c-0.4-0.44-0.82-1.17-1.5-1.92c-0.34-0.37-0.77-0.75-1.32-1.04
			c-0.55-0.29-1.21-0.46-1.91-0.46c-0.53,0-1.05,0.1-1.5,0.27c-0.8,0.31-1.39,0.84-1.82,1.33c-0.65,0.75-1.07,1.47-1.46,1.87
			c-0.19,0.21-0.35,0.33-0.49,0.41c-0.15,0.07-0.28,0.11-0.53,0.12c-0.19,0-0.31-0.03-0.42-0.07c-0.19-0.07-0.39-0.22-0.65-0.51
			c-0.4-0.44-0.82-1.17-1.5-1.92c-0.34-0.37-0.77-0.75-1.32-1.04c-0.55-0.29-1.21-0.46-1.91-0.46c-0.53,0-1.05,0.1-1.5,0.27
			c-0.8,0.31-1.39,0.84-1.82,1.33c-0.65,0.75-1.07,1.47-1.46,1.87c-0.19,0.21-0.35,0.33-0.49,0.41c-0.15,0.07-0.28,0.11-0.53,0.12
			c-0.19,0-0.31-0.03-0.42-0.07c-0.19-0.07-0.39-0.22-0.65-0.51c-0.4-0.44-0.82-1.17-1.5-1.92C7.91,16,7.48,15.62,6.93,15.33
			c-0.55-0.29-1.21-0.46-1.91-0.46c-0.83,0-1.5,0.67-1.5,1.5C3.52,17.21,4.19,17.88,5.02,17.88L5.02,17.88z"/>
	</g>
	<g>
		<path class="st2" d="M5.02,33.05c0.19,0,0.31-0.03,0.42-0.07c0.19-0.07,0.39-0.22,0.65-0.51c0.4-0.44,0.82-1.17,1.5-1.92
			c0.34-0.37,0.77-0.75,1.32-1.04c0.55-0.29,1.21-0.46,1.91-0.46c0.53,0,1.05,0.1,1.5,0.27c0.8,0.31,1.39,0.84,1.82,1.33
			c0.65,0.75,1.07,1.47,1.46,1.87c0.19,0.21,0.35,0.33,0.49,0.41c0.15,0.07,0.28,0.11,0.53,0.12c0.19,0,0.31-0.03,0.42-0.07
			c0.19-0.07,0.39-0.22,0.65-0.51c0.4-0.44,0.82-1.17,1.5-1.92c0.34-0.37,0.77-0.75,1.32-1.04c0.55-0.29,1.21-0.46,1.91-0.46
			c0.53,0,1.05,0.1,1.5,0.27c0.8,0.31,1.39,0.84,1.82,1.33c0.65,0.75,1.07,1.47,1.46,1.87c0.19,0.21,0.35,0.33,0.49,0.41
			c0.15,0.07,0.28,0.11,0.53,0.12c0.19,0,0.31-0.03,0.42-0.07c0.19-0.07,0.39-0.22,0.65-0.51c0.4-0.44,0.82-1.17,1.5-1.92
			c0.34-0.37,0.77-0.75,1.32-1.04c0.55-0.29,1.21-0.46,1.91-0.46c0.53,0,1.05,0.1,1.5,0.27c0.8,0.31,1.39,0.83,1.82,1.33
			c0.65,0.75,1.07,1.47,1.46,1.87c0.19,0.21,0.35,0.33,0.49,0.41c0.15,0.07,0.28,0.12,0.53,0.12c0.19,0,0.31-0.03,0.43-0.07
			c0.19-0.07,0.39-0.22,0.65-0.51c0.4-0.44,0.83-1.17,1.5-1.92c0.34-0.37,0.77-0.75,1.32-1.04c0.55-0.29,1.21-0.46,1.91-0.46
			c0.83,0,1.5,0.67,1.5,1.5c0,0.83-0.67,1.5-1.5,1.5c-0.19,0-0.31,0.03-0.42,0.07c-0.19,0.07-0.39,0.22-0.65,0.51
			c-0.4,0.44-0.83,1.17-1.5,1.92c-0.34,0.37-0.77,0.75-1.32,1.04c-0.55,0.29-1.21,0.46-1.91,0.46c-0.53,0-1.05-0.1-1.5-0.27
			c-0.8-0.31-1.39-0.83-1.82-1.33c-0.65-0.75-1.07-1.47-1.46-1.87c-0.19-0.21-0.35-0.33-0.49-0.41c-0.15-0.07-0.28-0.12-0.53-0.12
			c-0.19,0-0.31,0.03-0.42,0.07c-0.19,0.07-0.39,0.22-0.65,0.51c-0.4,0.44-0.82,1.17-1.5,1.92c-0.34,0.37-0.77,0.75-1.32,1.04
			c-0.55,0.29-1.21,0.46-1.91,0.46c-0.53,0-1.05-0.1-1.5-0.27c-0.8-0.31-1.39-0.84-1.82-1.33c-0.65-0.75-1.07-1.47-1.46-1.87
			c-0.19-0.21-0.35-0.33-0.49-0.41c-0.14-0.07-0.28-0.11-0.53-0.12c-0.19,0-0.31,0.03-0.42,0.07c-0.19,0.07-0.39,0.22-0.65,0.51
			c-0.4,0.44-0.82,1.17-1.5,1.92c-0.34,0.37-0.77,0.75-1.32,1.04c-0.55,0.29-1.21,0.46-1.91,0.46c-0.53,0-1.05-0.1-1.5-0.27
			c-0.8-0.31-1.39-0.84-1.82-1.33c-0.65-0.75-1.07-1.47-1.46-1.87c-0.19-0.21-0.35-0.33-0.49-0.41c-0.15-0.07-0.28-0.11-0.53-0.12
			c-0.19,0-0.31,0.03-0.42,0.07c-0.19,0.07-0.39,0.22-0.65,0.51c-0.4,0.44-0.82,1.17-1.5,1.92c-0.34,0.37-0.77,0.75-1.32,1.04
			c-0.55,0.29-1.21,0.46-1.91,0.46c-0.83,0-1.5-0.67-1.5-1.5C3.52,33.72,4.19,33.05,5.02,33.05L5.02,33.05z"/>
	</g>
</g>
</svg>
