<?xml version="1.0" encoding="utf-8"?>
<!-- Generator: Adobe Illustrator 23.0.1, SVG Export Plug-In . SVG Version: 6.00 Build 0)  -->
<svg version="1.1" id="Warstwa_1" xmlns="http://www.w3.org/2000/svg" xmlns:xlink="http://www.w3.org/1999/xlink" x="0px" y="0px"
	 viewBox="0 0 1613 218.1" style="enable-background:new 0 0 1613 218.1;" xml:space="preserve">
<style type="text/css">
	.st0{fill:#53DB7E;}
	.st1{enable-background:new    ;}
	.st2{fill:#413B3B;}
</style>
<g id="JakNieMyToKto" transform="translate(0 0)">
	<g id="Group_123">
		<rect id="Rectangle_288" x="670" y="192.1" class="st0" width="225" height="26"/>
		<g id="JakNieMyToKto_" transform="translate(300 -302.055)">
			<g class="st1">
				<path class="st2" d="M-198.8,391.9l-1.2,12.3v47.2l0.5,1.2l-0.5,0.2l-1.4,20.4l-1.7,7.6h-94.8l0.2-0.7l-1.7-5.2v-13l-0.9-14.5
					l-1.2-5.2l1.2-5.9v-22.8l1.4-4.5h6.2l23.7,2.4l1.7,2.4v4l-2.1,1.7l1.4,4v14.7l-2.8,5v8.8l0.7,0.9h20.4l18.2,2.1v-8.5l0.7-3.3
					l-0.9-1.2l0.5-1.2v-51.7l2.1-0.9v-6.4l1.2-11.6v-27l-3.6-32h32v80.3L-198.8,391.9z"/>
				<path class="st2" d="M-107.4,484.6l-7.8-32.7h-39.1l-5.5,31.5h-22l17.3-127.5l1.2-0.5l2.8-16.1l4.5-15.4l1.2-13.7h22.8l9.7-0.7
					l1.7,5.2l-0.2,5.2l1.4,1.2l5,17.5l6.2,27.3l13,69.9l7.8,48.8H-107.4z M-120.2,423.9l-16.4-74.4v16.8l-11.4,57.6H-120.2z"/>
				<path class="st2" d="M12.3,312.5l-32.9,67.8l0.9,7.8l3.1,14.5l23.2,77.5h-23l-21.6-75.6l-10,18.2V478h-28l3.1-58.8v-64.9
					l1.2-2.1v-14.2l-1.9-27.5h26.5v59l31.5-58.1l11.4-0.5l9.7,0.7L12.3,312.5z"/>
				<path class="st2" d="M175.4,421.8l-0.7,0.9v36.5l-1.9,0.7v13.3l0.9,6.9h-20.9L110,371.5v107.8H86.7l-2.6-14.9l1.4-1.4l-4-42.4
					l1.2-4.7v-101l-1.2-7.1h18.2l1.2-1.2l2.8,1.2l5.5-1.2l4.7,18.7l3.3,3.3l7.3,19.2l2.6,1.4l-1.2,1.4l4,8.1l-0.7,1.4l19.4,48.8
					l1.9,2.6v-12.3l-4-41.2l1.2-1.4v-22.5l-1.9-1.2l1.9-1.7v-23.5h24.9v57.6l1.9,1.9l-1.4,3.6l1.9,2.8v41.5L175.4,421.8z"/>
				<path class="st2" d="M229.7,438.4l-1.9,6.9v28.9l-1.4-0.2v8.8l0.9,0.7h-30.1l-3.1-11.4l1.4-3.3v-15.4l-1.4-41.2l0.9-1.9v-21.6
					l-1.7-2.4l1.4-2.4l-0.7-10l0.7-15.6l0.7-0.9l-1.4-0.9l0.5-5l1.4-2.6l-1.9-2.4l1.4-4.5v-26.3l1.7-8.8h19.7l7.6-0.7l3.3,28.4v77.3
					l0.7,16.8l-0.5,8.8L229.7,438.4z"/>
				<path class="st2" d="M329.4,464.9l0.7,10.4h-82.5l-3.8-78v-57.6l-3.1-5l1.9-2.4v-26.3h82.5l0.9,2.8v11.1l-0.7,2.4l2.8,12.3
					h-16.6l-40.8,2.1l-1.9,1.2l-0.2,4.3l-2.6,1.4l2.8,30.3l14.7-0.9l8.5,0.9l15.9,3.3v9.7l-1.7,6.6l1.7,3.3v5l-39.1,2.1l-0.9,2.4
					l-1.2,8.3v6.6l1.2,2.4v20.6l2.8,1.4h38.6l5.7-1.7l17.1-2.8L329.4,464.9z"/>
			</g>
			<g class="st1">
				<path class="st0" d="M481.6,413.3l-0.7,0.9v8.8l-0.7,4.5l1.4,1.9v2.8l-0.9-0.2l-0.5,5.2l0.9,0.9l-1.4,12.8v14.2l-1.7,2.4V482
					l-1.4,3.1h-18.2l-4-1.4l-2.6-1.7v-65.2l1.9-28.4l-5.2,17.1l-1.9,10.9l-3.6,10.2l-1.2,12.1l-3.8,1.9l-3.6-0.9l-3.3-13.5
					l-15.2-41.9l1.9,37.9v37.9l-2.4,21.6l-0.9,2.1h-20.1l-4.3-13.5V318.2l3.6-9l1.9-1.4l16.4-0.7l19.4,42.9l3.8,14.2v-1.7l1.9-4.5
					l6.2-29.4l2.6-2.6l6.4-18.2h23l4.7,39.3h0.7v1.2l-1.2,1.2l1.4,4.7v23.2l1.4,2.6l-1.7,4L481.6,413.3z"/>
				<path class="st0" d="M580.9,304.9l-11.1,27.7l-13.3,37.4l-5.5,27v82.5h-28v-39.1l2.8-2.1l-2.8-2.1l1.2-4.3v-46.5l-18.7-55.9
					l-10.2-25.4h27.7l14.7,56.9l4.5-21.6l11.1-34.6H580.9z"/>
			</g>
			<g class="st1">
				<path class="st2" d="M746.3,333.6l-3.1,3.1l-11.1-2.4h-13.5l-4.3,0.7v46l0.9,8.3v58.1l0.7,3.6v13.3l1.4,2.1l-1.4,0.5v2.1
					l-1.2,3.1v5.7l1.2,3.6l-2.8,2.4h-23l-1.4-2.1V336.2h-39.8l0.9-5v-21.8l-1.9-4V304l0.9-0.9l22,2.4h29.2l2.8-0.5l6.6,0.9l10.7-0.5
					l1.7,0.9l0.7-1.2l1.9-0.7l3.6,0.2l2.8,1.7h13l1.2,4.7v20.1L746.3,333.6z"/>
				<path class="st2" d="M849.4,437.4l0.2,4l-0.7,10.2l-0.9,1.9l1.2,0.9l-1.9,0.9l0.7,2.6l2.1,3.8l-2.1,1.9l1.4,0.5l-1.2,6.6
					l0.9,13.5l-1.4-0.2l-1.9-1.9l-1.2,2.1h-1.4l-1.2-1.9l-1.2,1.2l-1.9-0.7h-10.7l-2.8-1.2v1.2h-11.1l-11.4-1.2l-0.7,1.4H783
					l-15.4-1.4l-0.7-0.7l-1.2,1.2h-1.9l-3.6-46.5V363l1.4-7.6v-5l-1.4-1.4l1.7-4.3v-1.7l-1.7-0.9l1.4-1.7l-1.9-34.1h82.5l4,2.1v34.8
					l2.4,3.3l-0.2,2.8l-1.9,5.5l1.4,1.2l-0.9,11.1l1.9,1.2l-0.9,12.8l1.4,2.6v3.6l-2.1,1.7l2.8,5.5l-1.4,1.2l0.7,2.8l-0.7,2.1v5.7
					l0.7,2.4l-0.9,1.4l0.7,2.8l-0.5,2.1l1.4,0.9l-0.9,2.6v16.8l1.7,0.9L849.4,437.4z M825,435.8l-0.7-13.5l-1.7-3.3v-50.5l-1.9-0.7
					l1.7-2.6v-24.4l0.7-7.1h-38.2l0.9,14.2l-0.9,1.9l1.2,0.5v1.2l-1.4,2.1l1.4,4.7v31l1.4,1.7l-0.5,0.9l-1.7,0.9l3.6,2.1l-4,3.3
					l2.6,15.6l0.7,21.8l-2.1,1.2l2.1,2.6v5.2l-1.2,10.9l0.7,1.4l20.9-1.4H824v-12.1l-0.5-2.8l1.4-0.9V435.8z"/>
				<path class="st2" d="M1005.1,475.3l-1.4,4.7h-21.1l-23.2-71.3L946.8,432v47.6h-23.5l-0.5-10.7l-1.7-14.2l-1.2-4l2.1-2.4
					l-0.9-11.6V309.4h25.6v68.5l1.2,4.7l11.6-30.1h1.2l17.3-41.9h26.8L975,375.1L1005.1,475.3z"/>
				<path class="st2" d="M1115.5,338.4h-36v147.2l-18.7-1.7l-4.3,1.9l-4.5-0.2v-50l-0.5-2.1l0.9-1.4l-1.9-21.1l-0.9-1.2l2.4-5.7
					v-65.6h-35.8V309h98.8v5.5l-0.7,2.1l1.2,2.4V338.4z"/>
				<path class="st2" d="M1217.2,479.6h-91V369.4l-2.8-15.6v-19.4l1.2-2.8v-25.6l26.1,1.2h63.3v111.2L1217.2,479.6z M1189.7,455.4
					v-76.8l-2.4-43.8l-1.7-2.8h-36.3l2.6,40.1l-1.4,2.1l1.4,3.3l-1.9,2.1l1.9,0.7v75.1H1189.7z"/>
				<path class="st2" d="M1313.4,398.3l-22.8,10.2l-1.7,3.3l-20.4,15.9v6.9l0.9,8.8l-29.9,1.9l-1.2-20.4l1.2-4.5l48.1-41.9l-0.9-6.2
					v-29.6l-0.5-5l-4.7-1.7h-20.9l-3.8,1.7l-1.2,16.4l1.9,5l1.2,10.9l-13.5,1.4l-13.5,3.6l-3.6-41.9v-8.3l10.7-16.8h57.6l10.4,7.3
					l3.6,6.6v20.9l2.8,3.6V398.3z M1272,473.4l-10,7.6h-9l-5.7-3.3l-4.7-5.2l-2.8-6.4v-5.2l3.6-5.7l5.2-5l5.9-3.1h5.5l5.7,3.8l4,5.7
					l2.4,7.1V473.4z"/>
			</g>
		</g>
	</g>
</g>
</svg>
