<?xml version="1.0" encoding="utf-8"?>
<!-- Generator: Adobe Illustrator 23.0.1, SVG Export Plug-In . SVG Version: 6.00 Build 0)  -->
<svg version="1.1" id="Warstwa_1" xmlns="http://www.w3.org/2000/svg" xmlns:xlink="http://www.w3.org/1999/xlink" x="0px" y="0px"
	 viewBox="0 0 98.2 19.4" style="enable-background:new 0 0 98.2 19.4;" xml:space="preserve">
<style type="text/css">
	.st0{enable-background:new    ;}
	.st1{fill:#413B3B;}
</style>
<g id="logo" transform="translate(-157 -89)">
	<g class="st0">
		<path class="st1" d="M171.4,92.1c0.4,0.6,0.6,1.2,0.8,1.8c0.2,0.8,0.3,1.6,0.2,2.4c0-0.1,0,0.2-0.1,0.7c-0.1,0.9-0.5,1.8-1.1,2.7
			c-0.9,1.3-2.1,2.1-3.7,2.6c-0.6,0.2-1.2,0.3-1.7,0.3c-0.2,0-0.9,0-2,0c-0.6,0-1.1,0-1.4,0c0,0-0.1,0-0.3,0.1
			c-0.1,0-0.2,0.1-0.3,0.3c0,0.2,0,0.3,0,0.3c0,0.4,0,0.9,0,1.6c0,1.3,0,1.8,0,1.8c0,0.1,0,0.3-0.1,0.4c0,0.1-0.1,0.2-0.2,0.2
			c-0.1,0-0.1,0-0.2,0c-0.2,0-0.4,0-0.5,0h-3c-0.1,0-0.3,0-0.5,0c0,0-0.1,0-0.2,0c-0.1,0-0.2-0.1-0.2-0.3c0-0.2-0.1-0.3-0.1-0.3
			c0-0.3,0-0.5,0-0.8V98v-6.7c0-0.4,0-1,0-1.7c0-0.1,0-0.3,0.1-0.4c0-0.1,0.1-0.2,0.3-0.2c0.1,0,0.3,0,0.7,0h7.3c0.1,0,0.2,0,0.3,0
			h0.3c1.1,0,2.1,0.3,3.1,0.8c1,0.6,1.5,0.8,1.5,0.8S170.8,91.1,171.4,92.1z M158.6,99.4c0.1,0,0.2,0,0.3,0c0.1,0,0.3,0,0.3,0
			c-0.1-0.1-0.1-0.1-0.1-0.1c-0.1-0.1-0.1-0.1-0.3-0.1c-0.2,0-0.4,0-0.6,0c-0.1,0-0.1,0.1-0.1,0.1c0,0,0,0.1,0.1,0.1
			C158.4,99.3,158.5,99.4,158.6,99.4z M158.6,97.7C158.5,97.8,158.5,97.8,158.6,97.7c0,0.1,0,0.1,0.1,0.1c0,0,0,0,0-0.1
			C158.7,97.7,158.6,97.7,158.6,97.7z M158.7,91.1c-0.1,0-0.2,0-0.2,0.1s0.1,0.1,0.2,0.1C158.8,91.3,158.8,91.2,158.7,91.1
			C158.8,91.2,158.8,91.1,158.7,91.1z M158.6,101.4L158.6,101.4L158.6,101.4L158.6,101.4z M158.6,93.3c-0.1,0-0.1,0.1-0.1,0.1
			c0,0,0,0,0.1,0c0.1,0,0.1,0,0.1-0.1C158.8,93.3,158.8,93.3,158.6,93.3C158.7,93.3,158.7,93.3,158.6,93.3z M159.3,96.9
			c-0.4,0-0.6,0-0.7,0c0,0-0.1,0-0.1,0.1c0,0,0,0.1,0.1,0.1c0.1,0,0.2,0,0.5,0c0,0,0.1,0,0.1,0C159.4,97.1,159.4,97,159.3,96.9
			C159.4,97,159.3,96.9,159.3,96.9z M158.9,100L158.9,100l-0.1-0.1c-0.1,0-0.2,0-0.3,0c0,0,0,0,0,0.1c0.1,0.1,0.1,0.1,0.1,0.1
			S158.8,100.1,158.9,100z M158.9,94.9C158.9,94.9,158.9,94.9,158.9,94.9C158.8,94.8,158.8,94.8,158.9,94.9L158.9,94.9
			C158.8,94.9,158.9,94.9,158.9,94.9z M159.1,104.4L159.1,104.4l0-0.1C159,104.3,159,104.3,159.1,104.4
			C159,104.4,159,104.4,159.1,104.4C159,104.4,159,104.4,159.1,104.4z M159.2,96.2c-0.1,0-0.1,0-0.1,0.1s0.1,0.1,0.1,0.1
			C159.3,96.3,159.4,96.3,159.2,96.2C159.3,96.2,159.3,96.2,159.2,96.2z M159.1,97.1L159.1,97.1C159.1,97.1,159.1,97.1,159.1,97.1z
			 M159.3,103.6C159.4,103.5,159.4,103.5,159.3,103.6L159.3,103.6L159.3,103.6z M159.4,92.6c-0.1,0-0.1,0-0.1,0.1c0,0,0,0.1,0,0.1
			C159.4,92.8,159.4,92.8,159.4,92.6C159.4,92.7,159.4,92.7,159.4,92.6z M159.6,99.3C159.6,99.3,159.6,99.3,159.6,99.3
			c0.1-0.1,0.1-0.1,0.1-0.1c0,0,0-0.1,0-0.1c0,0-0.1,0-0.1,0c-0.1,0-0.1,0.1-0.3,0.2C159.5,99.3,159.5,99.3,159.6,99.3z M159.9,97.9
			c0.1,0,0.1,0,0.1-0.1c0,0,0,0-0.1-0.1c0,0-0.1,0-0.1,0c-0.3,0-0.3,0.1-0.2,0.1L159.9,97.9L159.9,97.9z M159.6,90.4
			C159.5,90.5,159.6,90.5,159.6,90.4c0.1,0.1,0.1,0.1,0.2,0.1c0.1,0,0.1,0,0.1-0.1l-0.1-0.1C159.7,90.4,159.7,90.4,159.6,90.4
			C159.7,90.4,159.6,90.4,159.6,90.4z M159.7,100C159.8,99.9,159.8,99.9,159.7,100L159.7,100C159.7,99.9,159.7,99.9,159.7,100
			C159.7,100,159.7,100,159.7,100C159.7,100,159.7,100,159.7,100z M159.8,100.7C159.9,100.7,159.9,100.7,159.8,100.7v-0.1V100.7
			C159.8,100.7,159.8,100.7,159.8,100.7z M159.9,96.2L159.9,96.2L159.9,96.2L159.9,96.2z M159.9,92L159.9,92L159.9,92L159.9,92z
			 M160.3,94.9c0.1,0,0.1,0,0.1-0.1c0-0.1-0.1-0.1-0.1-0.1c0,0-0.1,0-0.1,0c0,0-0.1,0-0.1,0c-0.1,0-0.1,0-0.2,0v0c0,0,0,0,0,0
			c0,0,0.1,0,0.2,0C160.2,94.9,160.3,94.9,160.3,94.9z M160,95.5c-0.1,0-0.1,0.1,0,0.1c0,0,0,0,0.1,0c0.1,0,0.1,0,0.1-0.1l0-0.1
			c0-0.1,0-0.2,0-0.2S160.2,95.4,160,95.5z M160.2,103.7L160.2,103.7c0-0.1,0-0.1-0.1-0.1c-0.1,0-0.1,0-0.1,0.1c0,0.1,0,0.1,0,0.1
			S160.1,103.7,160.2,103.7z M160.3,94C160.3,94.1,160.3,94.1,160.3,94c0,0.1,0,0.1,0,0.1c0.1,0.1,0.3,0.1,0.6,0.1
			c0.3,0,0.6,0,0.9-0.1c0,0,0.1,0,0.1-0.1s0-0.1-0.1-0.1c0,0-0.2,0-0.8,0C160.7,94,160.5,94,160.3,94C160.3,94,160.3,94,160.3,94z
			 M160.7,105c0-0.1,0-0.1-0.1-0.1c0,0-0.1,0-0.1,0.1C160.5,105,160.6,105,160.7,105C160.7,105,160.7,105,160.7,105z M160.6,100.6
			c0,0.1,0,0.1,0.1,0.1l0-0.1C160.7,100.6,160.6,100.6,160.6,100.6C160.6,100.6,160.6,100.6,160.6,100.6
			C160.6,100.6,160.6,100.6,160.6,100.6z M160.7,103.6L160.7,103.6L160.7,103.6L160.7,103.6z M160.8,104.3
			C160.8,104.3,160.8,104.3,160.8,104.3l-0.1-0.1c0,0,0,0.1,0,0.1C160.7,104.4,160.7,104.4,160.8,104.3
			C160.7,104.4,160.8,104.4,160.8,104.3z M160.7,102.8L160.7,102.8L160.7,102.8L160.7,102.8z M160.9,97.8c0.1,0,0.1,0,0.1-0.1
			l-0.1-0.1C160.9,97.7,160.8,97.7,160.9,97.8C160.8,97.8,160.8,97.8,160.9,97.8C160.8,97.8,160.8,97.8,160.9,97.8z M161,97.1
			C161,97.1,161.1,97,161,97.1l0-0.1C160.9,96.9,160.9,97,161,97.1C160.9,97,160.9,97.1,161,97.1z M161.2,90.5L161.2,90.5
			L161.2,90.5L161.2,90.5z M161.2,99.2L161.2,99.2L161.2,99.2L161.2,99.2z M161.2,91.2L161.2,91.2L161.2,91.2L161.2,91.2z M162.4,95
			C162.4,94.9,162.5,94.9,162.4,95c0.1-0.1,0.1-0.2,0-0.2c-0.1,0-0.5,0-0.9,0c0,0-0.1,0-0.1,0.1c0,0,0,0.1,0.1,0.1
			c0.1,0,0.2,0,0.4,0L162.4,95C162.3,95,162.3,95,162.4,95z M161.4,100.6L161.4,100.6L161.4,100.6L161.4,100.6z M161.5,95.6
			C161.6,95.6,161.6,95.5,161.5,95.6C161.5,95.5,161.5,95.5,161.5,95.6C161.5,95.5,161.5,95.5,161.5,95.6z M161.6,91.9
			C161.5,92,161.6,92,161.6,91.9c0.1,0.1,0.1,0.1,0.2,0.1c0-0.1,0-0.1,0-0.1C161.6,91.9,161.6,91.9,161.6,91.9z M161.8,101.4
			L161.8,101.4L161.8,101.4L161.8,101.4z M161.8,97.1C161.9,97.1,161.9,97.1,161.8,97.1c0.1-0.1,0.1-0.1,0-0.1
			C161.8,96.9,161.7,97,161.8,97.1C161.7,97,161.8,97.1,161.8,97.1z M161.9,93.3c-0.1,0-0.1,0-0.1,0c0,0-0.1,0.1,0,0.1
			c0,0.1,0.1,0.1,0.1,0.1s0.1,0,0.1-0.1C162.1,93.3,162,93.3,161.9,93.3z M161.9,91.2L161.9,91.2C161.9,91.2,161.9,91.2,161.9,91.2
			L161.9,91.2L161.9,91.2z M162.4,98.5c0-0.1,0-0.1-0.1-0.1c-0.1,0-0.1,0-0.2,0.1c0,0.1,0,0.1,0.1,0.1
			C162.3,98.6,162.4,98.6,162.4,98.5z M162.4,101.4L162.4,101.4c0-0.2-0.1-0.2-0.1-0.1c0,0,0,0.1,0,0.1
			C162.2,101.5,162.3,101.5,162.4,101.4C162.3,101.5,162.3,101.5,162.4,101.4z M162.8,92c0.1,0,0.1,0,0.2,0l-0.1-0.1l-0.1,0
			C162.7,91.9,162.7,92,162.8,92L162.8,92z M162.8,96.3L162.8,96.3L162.8,96.3L162.8,96.3z M162.9,94.1L162.9,94.1L162.9,94.1
			L162.9,94.1z M163.1,100L163.1,100L163.1,100C163.1,99.9,163.1,99.9,163.1,100C163.1,100,163.1,100,163.1,100z M163.4,91.3
			L163.4,91.3C163.4,91.2,163.4,91.2,163.4,91.3C163.4,91.1,163.3,91.1,163.4,91.3c-0.1,0-0.1,0-0.1,0S163.3,91.3,163.4,91.3z
			 M163.4,100.7L163.4,100.7L163.4,100.7L163.4,100.7z M163.6,92.6L163.6,92.6L163.6,92.6L163.6,92.6z M164,98.5
			c0,0.1,0,0.1,0.1,0.1l0.1-0.1C164.2,98.5,164.1,98.4,164,98.5C164,98.4,164,98.4,164,98.5C164,98.4,164,98.4,164,98.5z
			 M164.2,101.5C164.2,101.4,164.2,101.4,164.2,101.5c0-0.1,0-0.1,0-0.1c0,0-0.1,0.1-0.1,0.1C164.1,101.5,164.1,101.5,164.2,101.5z
			 M164.2,96.3c0,0.1,0.1,0.1,0.1,0.1l0-0.1C164.4,96.2,164.3,96.2,164.2,96.3C164.2,96.2,164.2,96.2,164.2,96.3
			C164.2,96.2,164.2,96.3,164.2,96.3z M164.5,100.7C164.6,100.7,164.6,100.6,164.5,100.7c0-0.1-0.1-0.2-0.1-0.2
			c-0.1,0-0.1,0-0.1,0.1c0,0.1,0,0.1,0.1,0.1C164.4,100.8,164.5,100.8,164.5,100.7z M165.1,94.9L165.1,94.9
			C165.1,94.8,165,94.8,165.1,94.9L165.1,94.9C165.1,94.9,165.1,94.9,165.1,94.9z M165.3,99.2c0,0.1,0,0.1,0,0.2
			c0.1,0.1,0.1,0.1,0.1,0c0-0.1,0-0.1,0-0.2L165.3,99.2C165.4,99.1,165.3,99.2,165.3,99.2z M165.4,99.9c0,0.1,0.1,0.1,0.2,0.1
			c0.1,0,0.2,0,0.3-0.1c0-0.1,0-0.1,0-0.1c0,0,0,0-0.1-0.1c-0.1,0-0.2,0-0.3,0C165.4,99.8,165.4,99.9,165.4,99.9z M165.9,100.7
			C166,100.7,165.9,100.6,165.9,100.7c-0.1-0.1-0.2-0.1-0.2-0.1c-0.1,0-0.2,0-0.2,0.1c0,0.1,0.1,0.1,0.2,0.1
			C165.8,100.8,165.9,100.8,165.9,100.7C165.9,100.8,165.9,100.7,165.9,100.7z M165.8,97.7L165.8,97.7L165.8,97.7
			C165.9,97.8,165.9,97.8,165.8,97.7C165.8,97.7,165.8,97.7,165.8,97.7C165.8,97.7,165.8,97.7,165.8,97.7z M165.9,95.6
			C165.9,95.6,166,95.6,165.9,95.6C166,95.5,166,95.5,165.9,95.6C165.9,95.6,165.9,95.6,165.9,95.6z M166.1,91.2L166.1,91.2
			L166.1,91.2L166.1,91.2z M166.2,92C166.2,92,166.2,92,166.2,92L166.2,92L166.2,92C166.1,92,166.2,92,166.2,92z M167.2,99.2
			c0.1,0.1,0.1,0,0.1,0L167.2,99.2L167.2,99.2z M167.4,97.8L167.4,97.8C167.4,97.7,167.4,97.7,167.4,97.8
			C167.4,97.7,167.3,97.7,167.4,97.8C167.3,97.7,167.4,97.8,167.4,97.8z M167.4,91.3c0,0.1,0.1,0.1,0.1,0.1l0.1-0.1l0-0.1
			c0-0.1-0.1-0.1-0.1-0.1c-0.1,0-0.1,0-0.1,0S167.4,91.2,167.4,91.3z M168.6,100C168.7,100,168.7,99.9,168.6,100
			c0.1-0.1,0.1-0.1,0-0.2c0,0-0.1,0-0.1,0c-0.1,0-0.3,0-0.3,0c-0.1,0-0.2,0-0.3,0c-0.1,0-0.2,0-0.3,0c-0.1,0-0.1,0-0.1,0.1
			c0,0.1,0,0.1,0.1,0.1c0,0,0.2,0,0.5,0c0.2,0,0.3,0,0.3,0C168.5,100,168.6,100,168.6,100z M168.1,97L168.1,97L168.1,97L168.1,97z
			 M168.3,98.4c0,0.1,0,0.1,0.1,0.2c0.1,0.1,0.2,0,0.2-0.1l0-0.1c0,0-0.1-0.1-0.1-0.1c-0.1-0.1-0.1-0.1-0.1-0.1
			S168.4,98.3,168.3,98.4z M168.7,95.6c0,0.1,0,0.1,0.1,0.1c0,0,0.1,0,0.3,0.1c0.2,0,0.3-0.1,0.3-0.1c0.1,0,0.1-0.1,0.1-0.1
			c0,0,0,0-0.1,0C169.2,95.5,169,95.5,168.7,95.6C168.7,95.6,168.7,95.6,168.7,95.6z M168.7,94.8L168.7,94.8L168.7,94.8L168.7,94.8z
			 M168.9,96.3C168.9,96.4,168.9,96.4,168.9,96.3c0.1,0,0.1,0,0.1,0c0-0.1,0-0.1,0-0.1C168.9,96.2,168.9,96.2,168.9,96.3z
			 M169.7,97.9c0.1,0,0.1,0,0.1-0.1c0-0.1,0-0.1-0.1-0.1c-0.2,0-0.3,0-0.4,0c-0.1,0-0.1,0-0.3,0.1c0,0-0.1,0-0.1,0.1
			c0,0,0,0.1,0,0.1c0,0,0.2,0,0.4,0C169.6,97.9,169.7,97.9,169.7,97.9z M169.3,98.5C169.3,98.5,169.3,98.5,169.3,98.5
			c0-0.2,0-0.2-0.1-0.2c-0.1,0-0.1,0-0.1,0.1c0,0.1,0,0.1,0,0.2C169.2,98.7,169.2,98.7,169.3,98.5z M169.2,97.1
			C169.2,97.1,169.2,97.1,169.2,97.1l0-0.1C169.1,97,169.1,97.1,169.2,97.1C169.1,97.1,169.1,97.1,169.2,97.1z M170.6,96.3
			c0-0.1,0-0.1-0.1-0.1c-0.2,0-0.4-0.1-0.6,0c-0.1,0-0.1,0-0.2,0.1c-0.1,0-0.1,0.1,0,0.2c0,0,0,0.1,0.1,0.1c0,0,0.1,0,0.2,0h0.3
			c0.1,0,0.1,0,0.2,0C170.5,96.4,170.5,96.4,170.6,96.3z M170,94.8C170,94.8,170,94.9,170,94.8c0,0.1,0.1,0.2,0.2,0.1l0-0.1l-0.1,0
			C170.1,94.8,170.1,94.8,170,94.8C170.1,94.8,170.1,94.8,170,94.8z M170.1,97.2c0.1,0,0.3,0,0.3-0.1l0-0.1c-0.1-0.1-0.3-0.1-0.3,0
			C170,97,170,97.1,170.1,97.2C170.1,97.1,170.1,97.2,170.1,97.2C170.1,97.2,170.1,97.2,170.1,97.2z M170.7,95.6
			C170.7,95.6,170.7,95.6,170.7,95.6C170.7,95.5,170.6,95.5,170.7,95.6L170.7,95.6C170.6,95.6,170.6,95.6,170.7,95.6
			C170.7,95.6,170.7,95.6,170.7,95.6C170.7,95.6,170.7,95.6,170.7,95.6z"/>
		<path class="st1" d="M181.5,104.3c0.7-1.8,1.9-4.8,3.5-8.9c1.3-3.4,2-5.2,2.1-5.5c0.1-0.2,0.2-0.4,0.3-0.6
			c0.1-0.1,0.2-0.2,0.3-0.2c0.1,0,0.2,0,0.3,0c0.1,0,0.3,0,0.7,0h1.6v0h2.1c0.1,0,0.2,0,0.5,0c0.1,0,0.3,0.1,0.3,0.2
			c0.1,0.1,0.1,0.3,0.2,0.5c0.3,0.8,1,2.7,2.2,5.8c2,5.3,3.4,8.9,4.1,10.7c0.1,0.2,0.1,0.4,0.1,0.6c0,0.1,0,0.2-0.1,0.2
			c-0.1,0-0.2,0-0.2,0c-0.1,0-0.2,0-0.3,0c-1.7,0-3,0-3.8,0c-0.1,0-0.2,0-0.5,0c-0.1,0-0.3-0.1-0.3-0.2c-0.1-0.2-0.2-0.4-0.2-0.5
			c-0.1-0.4-0.3-0.8-0.4-1.1c-0.1-0.1-0.1-0.3-0.2-0.4c0-0.1-0.1-0.1-0.2-0.2c-0.1,0-0.2,0-0.3,0c-0.3,0-0.6,0-0.9,0
			c-1,0-2.6,0-4.9,0c-0.3,0-0.6,0-0.7,0.1c-0.1,0-0.2,0.1-0.2,0.1c-0.1,0.1-0.1,0.1-0.1,0.2c-0.1,0.1-0.1,0.2-0.1,0.3
			c-0.1,0.1-0.1,0.4-0.3,0.7c-0.1,0.3-0.2,0.6-0.3,0.7c0,0.1-0.1,0.2-0.1,0.3c-0.1,0.1-0.1,0.2-0.2,0.2c-0.1,0-0.1,0-0.1,0
			c-0.1,0-0.3,0-0.3,0c-1.4,0-2.7,0-4.1,0c-0.1,0-0.3,0-0.4-0.1c-0.1,0-0.2-0.1-0.1-0.2c0-0.1,0.1-0.3,0.2-0.6
			c0.1-0.3,0.2-0.6,0.4-0.9C181.3,104.7,181.4,104.4,181.5,104.3z M183,104.3c0,0.1,0,0.2,0.2,0.1c0.1,0,0.1-0.1,0.1-0.1
			c0,0-0.1-0.1-0.1-0.1C183.2,104.2,183.1,104.2,183,104.3C183.1,104.2,183,104.2,183,104.3z M184.4,105c0.1,0,0.1-0.1,0.1-0.1
			c0,0,0,0-0.1,0c-0.1,0-0.2,0-0.4,0c-0.2,0-0.4,0-0.6,0c0,0-0.1,0-0.1,0c0,0,0,0.1,0,0.1c0,0.1,0,0.1,0.1,0.1
			c0.3,0.1,0.6,0.1,0.9,0C184.2,105.1,184.3,105.1,184.4,105z M183.8,105.7L183.8,105.7L183.8,105.7L183.8,105.7z M183.9,103.6
			C183.9,103.6,183.9,103.6,183.9,103.6c0,0.1,0.1,0.1,0.2,0.1c0.1,0,0.1-0.1,0.1-0.1c0,0-0.1-0.1-0.1-0.1
			C183.9,103.5,183.9,103.5,183.9,103.6z M184.3,102c-0.1,0-0.1,0-0.1,0.1c0,0,0,0,0.1,0.1C184.3,102.1,184.3,102.1,184.3,102
			C184.3,102,184.3,102,184.3,102z M184.7,101.4L184.7,101.4L184.7,101.4L184.7,101.4z M185.1,105.7L185.1,105.7L185.1,105.7
			L185.1,105.7z M185.2,104.2C185.2,104.2,185.2,104.2,185.2,104.2C185.2,104.2,185.2,104.2,185.2,104.2l0,0.1
			C185.3,104.3,185.3,104.2,185.2,104.2C185.3,104.2,185.2,104.2,185.2,104.2C185.2,104.2,185.2,104.2,185.2,104.2z M185.4,99.2
			L185.4,99.2L185.4,99.2L185.4,99.2z M185.5,101.3L185.5,101.3C185.5,101.4,185.5,101.4,185.5,101.3c0.1,0,0.1,0,0.1,0
			S185.5,101.3,185.5,101.3z M185.8,103.5c-0.1-0.1-0.2-0.1-0.3,0c0,0,0,0.1,0,0.1c0,0.1,0.1,0.1,0.2,0.1
			C185.8,103.7,185.8,103.6,185.8,103.5C185.8,103.5,185.8,103.5,185.8,103.5z M185.7,97.7c-0.1,0-0.1,0.1-0.1,0.1c0,0,0,0,0.1,0
			c0.1,0,0.1,0,0.1-0.1l-0.1-0.1C185.8,97.7,185.8,97.7,185.7,97.7C185.8,97.7,185.8,97.7,185.7,97.7z M186.5,100.7
			c0.1,0,0.1,0,0.1-0.1c0,0-0.1-0.1-0.2-0.1c0,0-0.1,0-0.2,0c-0.1,0-0.1,0-0.2,0c-0.1,0-0.1,0-0.3,0c0,0-0.1,0-0.1,0.1
			c0,0.1,0,0.1,0.1,0.1c0.1,0,0.3,0,0.4,0C186.4,100.7,186.4,100.7,186.5,100.7z M186.3,99.8c-0.3,0-0.5,0-0.6,0c0,0-0.1,0-0.1,0.1
			c0,0.1,0,0.1,0.1,0.1c0,0,0.1,0,0.3,0c0.2,0,0.3,0,0.3,0c0.1,0,0.1,0,0.1-0.1C186.5,99.9,186.4,99.8,186.3,99.8z M186.1,102.9
			c0.1,0,0.1,0,0.1-0.1c0,0,0,0-0.1,0c0,0-0.1,0-0.1,0c-0.1,0-0.2,0-0.3,0c0,0,0.1,0.1,0.2,0.1C186,102.9,186.1,102.9,186.1,102.9z
			 M185.9,98.4C185.9,98.4,185.9,98.5,185.9,98.4c0,0.1,0,0.1,0,0.2c0.1,0,0.2,0.1,0.3,0.1c0.1,0,0.2,0,0.2,0c0.1,0,0.1,0,0.1-0.1
			c0,0,0-0.1-0.1-0.1C186.4,98.3,186.2,98.3,185.9,98.4z M186.1,102C186,102,186,102,186.1,102C186,102.1,186,102.1,186.1,102
			L186.1,102z M186,99.1C186,99.2,186,99.2,186,99.1c0.1,0.1,0.1,0.1,0.1,0C186.2,99.1,186.2,99.1,186,99.1
			C186,99.1,186,99.1,186,99.1z M186.4,96.9c-0.1,0-0.1,0.1-0.1,0.1c0,0,0,0,0.1,0.1c0.2,0.1,0.3,0.1,0.5,0c0.2,0,0.3,0,0.4,0
			c0.1,0,0.1,0,0.1-0.1c0,0,0-0.1-0.1-0.1c-0.1,0-0.1,0-0.3,0c-0.1,0-0.2,0-0.3,0C186.6,96.9,186.5,96.9,186.4,96.9z M186.6,103.5
			C186.6,103.5,186.6,103.5,186.6,103.5c-0.1-0.1-0.1-0.1-0.1,0L186.6,103.5C186.6,103.6,186.6,103.5,186.6,103.5z M186.6,95.5
			c0,0.1,0,0.1,0.1,0.2c0,0,0.2,0,0.4,0c0.2,0,0.3,0,0.3,0c0,0,0.1,0,0.1,0c0,0,0.1,0,0.1-0.1c0,0,0-0.1,0-0.1c0,0,0-0.1-0.1-0.1
			c-0.2,0-0.5,0-0.9,0C186.7,95.4,186.7,95.4,186.6,95.5C186.6,95.5,186.6,95.5,186.6,95.5z M186.7,101.5
			C186.7,101.4,186.7,101.4,186.7,101.5L186.7,101.5C186.6,101.4,186.6,101.4,186.7,101.5C186.6,101.5,186.6,101.5,186.7,101.5
			C186.6,101.5,186.6,101.5,186.7,101.5z M186.7,97.9c0,0,0.2,0,0.4,0c0.2,0,0.3,0,0.4,0c0.1,0,0.1-0.1,0.1-0.1c0-0.1,0-0.1-0.1-0.1
			c-0.1,0-0.1,0-0.2,0c-0.2,0-0.4,0-0.6,0.1c0,0-0.1,0-0.1,0.1C186.6,97.8,186.6,97.9,186.7,97.9z M186.8,94.8c-0.1,0-0.1,0-0.1,0
			c0,0,0,0.1,0,0.1C186.8,95,186.8,95,186.8,94.8C186.8,94.9,186.8,94.8,186.8,94.8z M187.5,102.9c0-0.1,0-0.1-0.1-0.1
			c0,0-0.1,0-0.3,0c-0.1,0-0.1,0-0.1,0.1c0,0.1,0.1,0.1,0.1,0.1c0,0,0,0,0.1,0C187.4,102.9,187.4,102.9,187.5,102.9
			C187.5,102.9,187.5,102.9,187.5,102.9z M187.6,102.2c0.1,0,0.1-0.1,0.1-0.2c0-0.1-0.1-0.1-0.3-0.1c-0.1,0-0.2,0-0.2,0
			c0,0-0.1,0-0.1,0c-0.1,0.1-0.1,0.1,0,0.2C187.2,102.3,187.4,102.3,187.6,102.2z M187.2,94.1c-0.1,0,0.1,0.1,0.3,0.1l0.2,0
			c0.1,0,0.1,0,0.1-0.1c0,0,0,0-0.1,0c-0.1,0-0.1,0-0.2,0c0,0-0.1,0-0.1,0s-0.1,0-0.1,0C187.3,94,187.3,94,187.2,94.1
			C187.3,94,187.2,94.1,187.2,94.1z M187.4,101.5c0.1,0,0.1,0,0.1-0.1c0,0-0.1-0.1-0.1-0.1c-0.1,0-0.1,0-0.1,0.1
			C187.2,101.4,187.3,101.5,187.4,101.5C187.3,101.5,187.4,101.5,187.4,101.5z M187.5,100c0.1,0,0.1,0,0.1-0.1
			c0-0.1-0.1-0.1-0.1-0.1h-0.1c-0.1,0-0.1,0.1-0.1,0.1S187.3,100,187.5,100C187.4,100,187.4,100,187.5,100z M187.4,92.6
			c-0.1,0-0.1,0.1-0.1,0.2c0,0.1,0.1,0.1,0.1,0.1c0.1,0,0.1-0.1,0.1-0.1C187.6,92.6,187.5,92.5,187.4,92.6z M187.6,100.7
			L187.6,100.7L187.6,100.7C187.6,100.7,187.6,100.7,187.6,100.7C187.6,100.7,187.6,100.7,187.6,100.7
			C187.6,100.7,187.6,100.7,187.6,100.7z M187.9,103.6L187.9,103.6L187.9,103.6L187.9,103.6z M188,94.8c-0.1,0-0.1,0.1,0,0.1
			c0,0,0,0,0.1,0L188,94.8C188.1,94.8,188.1,94.8,188,94.8C188.1,94.8,188.1,94.8,188,94.8z M188.1,101.4
			C188.1,101.4,188.1,101.3,188.1,101.4c0-0.1,0-0.1,0-0.1C188.1,101.3,188,101.3,188.1,101.4C188,101.4,188,101.4,188.1,101.4z
			 M188.2,102.9C188.2,102.9,188.2,102.9,188.2,102.9C188.2,102.9,188.2,102.9,188.2,102.9c0.1-0.1,0.1-0.1,0.1-0.1
			C188.2,102.8,188.2,102.8,188.2,102.9C188.1,102.8,188.1,102.8,188.2,102.9z M188.2,95.6C188.1,95.6,188.2,95.7,188.2,95.6
			c0,0.1,0.1,0.1,0.1,0.1C188.3,95.6,188.3,95.6,188.2,95.6C188.3,95.6,188.2,95.6,188.2,95.6z M188.3,97.8L188.3,97.8
			C188.3,97.7,188.3,97.7,188.3,97.8C188.2,97.7,188.2,97.8,188.3,97.8C188.2,97.8,188.3,97.9,188.3,97.8
			C188.3,97.9,188.3,97.8,188.3,97.8z M188.3,93.4L188.3,93.4C188.3,93.5,188.4,93.4,188.3,93.4C188.3,93.4,188.3,93.4,188.3,93.4
			C188.3,93.4,188.3,93.4,188.3,93.4z M188.4,99.9c0,0.1,0,0.1,0.2,0.1c0.1,0,0.2,0,0.2,0c0.1,0,0.1,0,0.1-0.1
			c0-0.1-0.1-0.1-0.1-0.1c0,0-0.1,0-0.1,0c0,0,0,0-0.1,0C188.5,99.8,188.4,99.9,188.4,99.9z M188.6,99.1c0,0.1,0,0.1,0.1,0.1
			c0,0,0.1,0,0.2,0c0.1,0,0.1,0,0.1-0.1c0-0.1,0-0.1-0.1-0.1S188.7,99.1,188.6,99.1C188.6,99.1,188.6,99.1,188.6,99.1z M188.7,92
			L188.7,92L188.7,92L188.7,92z M188.8,94.1L188.8,94.1c-0.1,0-0.1,0-0.1,0C188.7,94.1,188.7,94.2,188.8,94.1
			C188.7,94.2,188.8,94.1,188.8,94.1z M188.9,92.6c-0.1,0-0.1,0.1-0.1,0.1c0,0.1,0.1,0.1,0.1,0.1c0.1,0,0.2,0,0.4-0.1
			c-0.1-0.1-0.1-0.1-0.1-0.1C189.1,92.5,189,92.5,188.9,92.6z M189.1,101.4c0-0.1,0-0.1-0.1-0.1c0,0,0,0,0,0.1L189.1,101.4
			C189.1,101.4,189.1,101.4,189.1,101.4z M189,95.5C189,95.6,189,95.6,189,95.5c0,0.1,0,0.1,0,0.1C189.2,95.6,189.2,95.6,189,95.5
			C189.1,95.5,189.1,95.5,189,95.5z M189.3,98.6c0.2,0,0.2-0.1,0.2-0.2c0-0.1-0.1-0.1-0.1-0.1c-0.1,0-0.1,0-0.1,0
			c-0.1,0-0.1,0-0.1,0c-0.1,0-0.1,0-0.1,0.1c0,0.1,0,0.1,0.1,0.1C189.2,98.6,189.3,98.6,189.3,98.6z M189.6,92.7
			c-0.1,0-0.1,0-0.2,0.1C189.4,92.7,189.5,92.7,189.6,92.7L189.6,92.7z M189.6,94.1c-0.1,0-0.1,0-0.1,0.1c0,0,0,0,0.1,0.1
			C189.6,94.2,189.7,94.2,189.6,94.1C189.7,94.1,189.6,94.1,189.6,94.1z M189.8,96.2C189.8,96.2,189.8,96.2,189.8,96.2
			c-0.2,0-0.2,0.1-0.1,0.2c0,0,0,0,0.1,0C189.8,96.4,189.9,96.3,189.8,96.2C189.9,96.2,189.8,96.2,189.8,96.2z M189.9,101.5
			c0.1,0,0.1,0,0.1-0.1l-0.1-0.1C189.8,101.3,189.8,101.4,189.9,101.5C189.8,101.5,189.8,101.5,189.9,101.5
			C189.8,101.5,189.8,101.5,189.9,101.5z M189.9,90.4c-0.1,0-0.1,0.1-0.1,0.1c0,0,0,0,0.1,0c0,0,0,0,0.1,0L189.9,90.4
			C190,90.4,190,90.4,189.9,90.4C190,90.4,190,90.4,189.9,90.4z M190,102.1L190,102.1L190,102.1L190,102.1z M190.1,91.9L190.1,91.9
			c0,0.1,0,0.1,0,0.1c0,0,0,0,0.1,0c0,0,0.1,0,0.1-0.1c0-0.1,0-0.1,0-0.1S190.2,91.9,190.1,91.9z M190.3,93.4
			c-0.1-0.1-0.1-0.1-0.1-0.1c-0.1,0-0.1,0-0.1,0.1c0,0,0,0,0.1,0C190.2,93.4,190.2,93.4,190.3,93.4z M190.4,98.5c0-0.1,0-0.1,0-0.1
			c-0.1,0-0.1,0-0.1,0.1c0,0.1,0,0.1,0,0.1C190.3,98.5,190.3,98.5,190.4,98.5z M190.4,94.1C190.4,94.1,190.4,94.2,190.4,94.1
			c0.1,0.1,0.1,0.1,0.2,0.1c0,0,0,0,0-0.1c0,0,0,0-0.1-0.1C190.5,94,190.5,94,190.4,94.1z M190.5,91.2c-0.1,0.1,0,0.1,0.3,0.1h0.1
			c0,0,0.1,0,0.1,0c0,0,0.1-0.1,0-0.1c0,0,0,0-0.1-0.1s-0.1,0-0.3,0C190.6,91.1,190.5,91.2,190.5,91.2z M191.4,102.8
			c0,0-0.1-0.1-0.3-0.1l-0.3,0c-0.1,0-0.1,0-0.1,0.1c0,0,0,0.1,0.1,0.1c0.2,0,0.4,0,0.6,0.1c0,0,0.1,0,0.1,0
			C191.4,102.9,191.4,102.9,191.4,102.8C191.4,102.8,191.4,102.8,191.4,102.8z M190.8,99.2L190.8,99.2L190.8,99.2L190.8,99.2z
			 M191.1,99.9C191.1,100,191.1,100,191.1,99.9c0.1,0.1,0.1,0.1,0.1,0C191.2,99.9,191.2,99.9,191.1,99.9
			C191.2,99.9,191.1,99.9,191.1,99.9z M191.5,100.6c-0.1,0-0.1,0.1-0.1,0.1c0,0,0,0,0.1,0c0.1,0,0.1,0,0.1-0.1c0,0-0.1-0.1-0.1-0.1
			C191.5,100.6,191.5,100.6,191.5,100.6z M191.7,98.4L191.7,98.4L191.7,98.4L191.7,98.4z M191.8,91.2c0,0.1,0,0.1,0.1,0.1
			c0,0,0,0,0.1,0c0,0,0,0,0,0c0.1,0,0.1,0,0.1-0.1c0-0.1,0-0.1-0.1-0.1h-0.1C191.8,91.1,191.8,91.2,191.8,91.2z M192,92
			c0.1,0,0.1,0,0.1-0.1c0-0.1-0.1-0.1-0.1-0.1s-0.1,0-0.1,0.1C191.8,92,191.9,92,192,92z M192,94.1L192,94.1L192,94.1L192,94.1z
			 M192.1,100L192.1,100C192.2,99.9,192.1,99.9,192.1,100C192.1,99.9,192.1,99.9,192.1,100C192.1,99.9,192.1,99.9,192.1,100
			C192,99.9,192,99.9,192.1,100C192.1,99.9,192.1,99.9,192.1,100C192.1,99.9,192.1,100,192.1,100z M192.3,102.7
			c0-0.1-0.1-0.1-0.2-0.1c-0.1,0-0.1,0.1-0.1,0.1c0,0.1,0.1,0.1,0.1,0.1C192.3,102.9,192.3,102.9,192.3,102.7
			C192.4,102.8,192.4,102.8,192.3,102.7z M192.3,92.7L192.3,92.7C192.3,92.8,192.3,92.8,192.3,92.7
			C192.3,92.8,192.3,92.8,192.3,92.7C192.3,92.7,192.3,92.7,192.3,92.7z M192.7,101.4L192.7,101.4
			C192.7,101.5,192.7,101.5,192.7,101.4C192.8,101.5,192.8,101.5,192.7,101.4C192.8,101.4,192.8,101.4,192.7,101.4
			C192.8,101.4,192.8,101.4,192.7,101.4C192.7,101.4,192.7,101.4,192.7,101.4z M193,100.7C192.9,100.6,192.9,100.7,193,100.7l0,0.1
			L193,100.7C193.1,100.7,193.1,100.7,193,100.7C193.1,100.7,193.1,100.7,193,100.7z M193,102.9c0.1,0,0.1,0,0.1-0.1l-0.1-0.1
			l-0.1,0C192.9,102.8,192.9,102.9,193,102.9C193,102.9,193,102.9,193,102.9C193,102.9,193,102.9,193,102.9z M193.2,102.2
			c0,0-0.1-0.1-0.1,0C193.1,102.2,193.1,102.2,193.2,102.2C193.2,102.3,193.2,102.2,193.2,102.2
			C193.2,102.2,193.2,102.2,193.2,102.2z M193.6,99.8C193.6,99.9,193.6,99.9,193.6,99.8l0.1,0.1c0-0.1,0-0.1,0-0.1
			S193.6,99.8,193.6,99.8z M193.6,97L193.6,97L193.6,97L193.6,97z M193.8,103.6L193.8,103.6L193.8,103.6L193.8,103.6z M194.4,101.4
			c0,0.1,0,0.1,0.1,0.1c0.1,0,0.1,0,0.2,0c0.1,0,0.2-0.1,0.1-0.2c0-0.1-0.1-0.1-0.1-0.1C194.5,101.3,194.5,101.3,194.4,101.4
			C194.4,101.3,194.4,101.3,194.4,101.4z M194.5,102.9c0.1,0,0.1,0,0.1-0.1c0,0,0,0,0-0.1C194.5,102.7,194.5,102.7,194.5,102.9
			C194.5,102.9,194.5,102.9,194.5,102.9z M195.4,103.6c0-0.1,0-0.1-0.1-0.1c-0.1,0-0.1-0.1-0.3-0.1c0,0,0,0-0.1,0c0,0-0.1,0-0.1,0
			c0,0-0.1,0.1-0.1,0.1c0,0.1,0,0.1,0.1,0.1c0,0,0.1,0,0.2,0c0.1,0,0.2,0,0.2,0C195.3,103.7,195.4,103.7,195.4,103.6z M194.8,100.6
			C194.8,100.6,194.8,100.7,194.8,100.6c0,0.1,0.1,0.2,0.2,0.2c0.1,0,0.1,0,0.2-0.1l0-0.1c0-0.1-0.1-0.1-0.2-0.1
			C194.9,100.5,194.9,100.5,194.8,100.6C194.9,100.5,194.8,100.6,194.8,100.6z M195.1,104.3L195.1,104.3L195.1,104.3L195.1,104.3z
			 M195.5,104.9c-0.1,0-0.1,0-0.2,0.1c0,0.1,0,0.1,0.1,0.1h0.1c0,0,0.1,0,0.1-0.1c0-0.1,0-0.1,0-0.1S195.5,104.9,195.5,104.9z
			 M195.4,102.8L195.4,102.8C195.4,102.9,195.4,102.9,195.4,102.8C195.5,102.8,195.5,102.8,195.4,102.8
			C195.5,102.8,195.4,102.8,195.4,102.8z M195.9,105.7C195.9,105.7,195.9,105.7,195.9,105.7c0,0.1,0.1,0.1,0.1,0.1c0,0,0,0,0-0.1
			C196,105.7,196,105.6,195.9,105.7z M196,105c-0.1,0-0.1,0.1-0.1,0.1c0,0,0,0.1,0.1,0.1c0,0,0,0,0.1,0c0.1,0,0.2-0.1,0.1-0.2
			C196.2,105,196.2,104.9,196,105C196.1,105,196,105,196,105z M196.3,102.8L196.3,102.8L196.3,102.8c0.1,0.1,0.2,0.1,0.2,0.1l0-0.1
			C196.4,102.8,196.4,102.8,196.3,102.8C196.4,102.8,196.4,102.8,196.3,102.8z M196.7,103.6L196.7,103.6L196.7,103.6L196.7,103.6z
			 M197,104.3c0,0.1,0,0.1,0.1,0.1c0,0,0.1,0,0.2,0c0.1,0,0.1,0,0.1,0c0.1,0,0.2-0.1,0.2-0.2c0-0.1-0.1-0.1-0.2-0.1
			C197.2,104.2,197.1,104.2,197,104.3C197,104.3,197,104.3,197,104.3z"/>
		<path class="st1" d="M214.1,89c0.8,0,1.4,0,1.9,0c0.1,0,0.2,0,0.4,0c0.2,0,0.3,0,0.4,0c0.4,0,0.8,0.1,1.2,0.2
			c1.2,0.3,2.3,0.9,3.3,1.8c0.7,0.7,1.2,1.5,1.6,2.4c0.2,0.5,0.3,0.9,0.3,1.2c0,0,0,0.2,0.1,0.5c0.1,0.5,0.1,0.9,0,1.3
			c0,0.2-0.1,0.3-0.1,0.5c-0.1,0.7-0.4,1.4-0.8,2.2c-0.4,0.8-1,1.4-1.8,2c-0.3,0.2-0.4,0.3-0.4,0.4c-0.1,0.1-0.1,0.2-0.1,0.3
			c0.1,0.2,0.1,0.3,0.1,0.3c0,0.1,0.1,0.2,0.2,0.4c1.3,2.1,2,3.4,2.2,3.8c0.1,0.2,0.2,0.4,0.3,0.5c0.1,0.2,0,0.3-0.1,0.3
			c-0.1,0-0.1,0-0.2,0c-0.2,0-0.4,0-0.6,0h-1.7c-1.2,0-1.9,0-2,0c-0.1,0-0.3,0-0.6,0c-0.1,0-0.2-0.1-0.3-0.2
			c-0.1-0.1-0.2-0.3-0.5-0.7c-1-1.7-1.6-2.6-1.6-2.7c-0.1-0.2-0.2-0.4-0.4-0.6c-0.1-0.2-0.2-0.2-0.4-0.2c-0.5,0-1,0-1.5,0
			c-0.1,0-0.1,0-0.2,0.1c-0.1,0.1-0.2,0.1-0.2,0.2c0,0.1,0,0.2,0,0.2c0,0.3,0,0.6,0,0.8v2.5c0,0.2,0,0.4,0,0.5
			c0,0.1-0.1,0.2-0.2,0.2c-0.1,0-0.1,0-0.2,0.1c-0.1,0-0.3,0-0.4,0c-1,0-2.1,0-3.4,0c-0.2,0-0.4,0-0.5-0.1c-0.1,0-0.2-0.1-0.2-0.3
			s0-0.2,0-0.2c0-0.3,0-0.5,0-0.7V90.2c0-0.2,0-0.5,0-0.8c0,0,0-0.1,0-0.2c0-0.1,0.1-0.2,0.3-0.3c0.1,0,0.4,0,0.8,0L214.1,89
			L214.1,89z M209.3,105.2c0,0,0.1,0,0.2-0.1c0.2,0,0.3,0,0.3,0s0.1,0,0.1-0.1c0,0,0-0.1,0-0.1c-0.2-0.1-0.4-0.1-0.6-0.1
			c-0.1,0-0.1,0.1-0.1,0.1c0,0,0,0.1,0,0.1C209.2,105.2,209.2,105.2,209.3,105.2z M209.8,104.5c0.3,0,0.6,0,0.9-0.1c0,0,0,0,0.1,0
			c0.1,0,0.1-0.1,0.1-0.1c0-0.1-0.1-0.1-0.1-0.1c-0.2-0.1-0.4-0.1-0.6,0c-0.2,0.1-0.4,0.1-0.7,0c-0.1,0-0.2,0-0.2,0
			c-0.1,0-0.1,0-0.1,0.1c0,0.1,0,0.1,0.1,0.2c0.1,0.1,0.2,0.1,0.3,0.1L209.8,104.5L209.8,104.5z M209.2,102L209.2,102L209.2,102
			L209.2,102C209.2,102,209.2,102,209.2,102z M209.3,101.3c0,0.1,0,0.1,0.1,0.2c0.1,0,0.2,0,0.6,0.1c0.1,0,0.1,0,0.1-0.1
			c0,0,0,0-0.1,0c0,0-0.1,0-0.3,0c-0.1,0-0.2-0.1-0.2-0.1C209.5,101.3,209.4,101.3,209.3,101.3C209.3,101.3,209.3,101.3,209.3,101.3
			z M209.4,93.4C209.4,93.4,209.4,93.5,209.4,93.4c0.1,0.2,0.1,0.2,0.3,0.1c0.1,0,0.1-0.1,0.1-0.1c0,0-0.1-0.1-0.1-0.1
			c-0.1,0-0.1,0-0.2,0C209.5,93.3,209.4,93.4,209.4,93.4z M209.4,100.6L209.4,100.6L209.4,100.6L209.4,100.6z M209.5,92.7
			L209.5,92.7L209.5,92.7L209.5,92.7z M211.1,102.7c-0.3,0-0.5-0.1-0.8,0c-0.4,0-0.7,0-0.8,0c-0.1,0-0.1,0-0.1,0.1c0,0,0,0,0.1,0.1
			c0.4,0.1,0.6,0.1,0.8,0.1c0,0,0.1,0,0.4,0c0.2,0,0.3,0,0.5-0.1c0,0,0.1,0,0.1-0.1C211.2,102.8,211.2,102.8,211.1,102.7z M210,97.8
			C210,97.8,210,97.7,210,97.8c-0.1-0.1-0.2-0.1-0.3-0.1c-0.1,0-0.1,0-0.1,0c0,0-0.1,0,0,0.1c0,0,0.1,0.1,0.2,0.1
			C209.8,97.9,209.9,97.9,210,97.8C210,97.9,210,97.8,210,97.8z M209.6,91.9C209.6,91.9,209.6,91.9,209.6,91.9
			c-0.1,0.2,0,0.2,0.1,0.2c0,0,0.1,0,0.1-0.1C209.7,91.9,209.7,91.8,209.6,91.9z M209.7,103.5c-0.1,0.1,0,0.1,0,0.2
			c0.1,0,0.2,0.1,0.4,0.1c0.1,0,0.2,0,0.3-0.1c0.1,0,0.1-0.1,0.1-0.2c0,0,0-0.1-0.1-0.1c-0.1-0.1-0.2-0.1-0.3-0.1
			C209.9,103.3,209.8,103.3,209.7,103.5z M209.9,105.8C209.9,105.7,209.9,105.7,209.9,105.8C209.9,105.7,209.9,105.7,209.9,105.8
			l-0.1-0.1c-0.1,0-0.1,0,0,0.1C209.7,105.8,209.8,105.8,209.9,105.8C209.8,105.8,209.8,105.8,209.9,105.8z M209.7,98.6L209.7,98.6
			L209.7,98.6L209.7,98.6z M210.1,99.9c0-0.1-0.1-0.1-0.1-0.1c-0.1,0-0.1,0.1-0.1,0.1c0,0,0,0,0.1,0.1C210,100,210.1,100,210.1,99.9
			C210.1,99.9,210.1,99.9,210.1,99.9z M210.1,100.7C210.1,100.6,210.1,100.6,210.1,100.7c-0.1-0.1-0.2-0.1-0.2,0c0,0,0,0,0.1,0.1
			C210.1,100.8,210.1,100.7,210.1,100.7z M210.3,99.1C210.2,99.1,210.2,99.2,210.3,99.1C210.3,99.2,210.3,99.2,210.3,99.1
			L210.3,99.1C210.3,99.1,210.3,99.1,210.3,99.1z M210.3,93.3C210.3,93.3,210.2,93.3,210.3,93.3L210.3,93.3L210.3,93.3z
			 M210.5,102.1c0-0.1-0.1-0.1-0.1-0.1c-0.1,0-0.1,0-0.1,0.1c0,0.1,0,0.1,0.1,0.1C210.5,102.2,210.5,102.2,210.5,102.1z
			 M210.9,105.1c0-0.1-0.1-0.1-0.1-0.1c-0.1,0-0.1,0-0.2,0.1c0.1,0,0.2,0.1,0.2,0.1C210.8,105.2,210.8,105.2,210.9,105.1
			C210.9,105.2,210.9,105.1,210.9,105.1C211,105.1,211,105.1,210.9,105.1z M210.9,105.8C211,105.8,211,105.7,210.9,105.8
			c0-0.1-0.1-0.1-0.1-0.1c0,0,0,0-0.1,0.1c0,0,0,0.1,0.1,0.1C210.9,105.8,210.9,105.8,210.9,105.8z M210.9,98.4c0,0.1,0,0.1,0.1,0.1
			c0.1,0,0.1,0,0.1-0.1c0-0.1,0-0.1-0.1-0.1C211,98.3,210.9,98.3,210.9,98.4z M211.4,103.6c0-0.1-0.1-0.1-0.1-0.1
			c-0.1,0-0.1,0-0.2,0.1c0,0.1,0.1,0.1,0.2,0.1C211.3,103.7,211.4,103.7,211.4,103.6C211.4,103.6,211.4,103.6,211.4,103.6z
			 M211.5,97.7C211.4,97.7,211.3,97.8,211.5,97.7c0,0.1,0,0.1,0.1,0.1l0.1-0.1C211.6,97.8,211.5,97.7,211.5,97.7
			C211.5,97.7,211.5,97.7,211.5,97.7C211.5,97.7,211.5,97.7,211.5,97.7z M211.4,97.1L211.4,97.1L211.4,97.1L211.4,97.1z
			 M211.7,104.3c0-0.1-0.1-0.1-0.1-0.1s-0.1,0-0.1,0.1c0,0,0,0.1,0,0.1c0,0.1,0.1,0.1,0.1,0.1C211.6,104.5,211.7,104.4,211.7,104.3
			C211.7,104.3,211.7,104.3,211.7,104.3z M211.5,99.9L211.5,99.9C211.5,100,211.6,100,211.5,99.9C211.5,99.9,211.5,99.9,211.5,99.9z
			 M211.7,99.2L211.7,99.2L211.7,99.2L211.7,99.2z M212,100.7C212,100.7,212,100.7,212,100.7c0,0.1,0.1,0.1,0.1,0.1L212,100.7
			C212,100.7,212,100.7,212,100.7z M212.4,99.1C212.4,99.2,212.4,99.2,212.4,99.1c0.1,0.1,0.1,0.1,0.2,0.1c0,0,0.1,0,0-0.1
			c0,0,0,0-0.1-0.1C212.5,99.1,212.4,99.1,212.4,99.1z M212.7,96.2C212.7,96.2,212.7,96.2,212.7,96.2
			C212.7,96.2,212.7,96.3,212.7,96.2C212.7,96.3,212.7,96.3,212.7,96.2C212.7,96.2,212.7,96.2,212.7,96.2z M212.8,94.9
			C212.8,94.8,212.8,94.8,212.8,94.9C212.7,94.9,212.7,94.9,212.8,94.9C212.7,94.9,212.7,94.9,212.8,94.9
			C212.8,94.9,212.8,94.9,212.8,94.9C212.8,94.9,212.8,94.9,212.8,94.9z M212.8,97.8L212.8,97.8L212.8,97.8L212.8,97.8z M213.3,98.3
			c-0.1,0-0.1,0.1-0.1,0.1c0,0,0,0.1,0,0.1c0,0,0.1,0.1,0.2,0.1c0.1,0,0.2,0,0.2-0.1c0-0.1,0-0.1-0.1-0.1
			C213.4,98.4,213.4,98.3,213.3,98.3z M213.2,90.4L213.2,90.4L213.2,90.4L213.2,90.4z M213.3,96.9C213.3,97,213.2,97,213.3,96.9
			c-0.1,0.1,0,0.1,0,0.2c0,0,0.1,0,0.2,0.1c0.3,0,0.6,0,0.7-0.1v0v0C214,96.9,213.7,96.9,213.3,96.9
			C213.4,96.9,213.3,96.9,213.3,96.9C213.3,96.9,213.3,96.9,213.3,96.9z M214,101.5C214,101.5,214,101.5,214,101.5
			c0.1-0.1,0-0.1,0-0.1c-0.1,0-0.2,0-0.5,0c-0.1,0-0.1,0.1-0.1,0.1c0,0,0,0,0.1,0c0,0,0.1,0,0.2,0
			C213.8,101.5,213.9,101.5,214,101.5z M213.5,91.2L213.5,91.2c0,0.1,0,0.1,0,0.1C213.5,91.3,213.5,91.2,213.5,91.2
			C213.6,91.2,213.6,91.2,213.5,91.2C213.5,91.2,213.5,91.2,213.5,91.2C213.5,91.2,213.5,91.2,213.5,91.2z M213.8,100.7
			C213.7,100.7,213.7,100.7,213.8,100.7L213.8,100.7C213.9,100.7,213.9,100.7,213.8,100.7z M215,99.9C215,99.8,215,99.8,215,99.9
			c-0.3,0-0.6,0-0.9,0c-0.1,0-0.1,0-0.1,0.1c0,0,0.1,0,0.1,0c0,0,0.2,0,0.4,0c0.2,0,0.4,0,0.4,0c0,0,0.1,0,0.1,0
			C215,100,215.1,100,215,99.9C215.1,99.9,215.1,99.9,215,99.9z M214.3,97.7c-0.1,0-0.1,0-0.1,0.1c0,0,0,0.1,0.1,0.1
			C214.3,97.9,214.3,97.8,214.3,97.7C214.3,97.7,214.3,97.7,214.3,97.7z M214.7,99.2L214.7,99.2L214.7,99.2L214.7,99.2z M214.7,96.3
			L214.7,96.3L214.7,96.3L214.7,96.3z M214.8,98.5L214.8,98.5L214.8,98.5L214.8,98.5z M215.2,94.1C215.1,94.1,215.1,94.1,215.2,94.1
			C215.2,94.1,215.2,94.1,215.2,94.1C215.2,94.1,215.2,94.1,215.2,94.1z M215.4,97.8L215.4,97.8c-0.1-0.1-0.2-0.1-0.3,0l0.1,0.1
			C215.3,97.9,215.4,97.9,215.4,97.8C215.4,97.9,215.4,97.8,215.4,97.8z M215.2,97C215.2,97,215.2,97.1,215.2,97l0.1,0.1
			C215.3,97,215.3,97,215.2,97C215.3,97,215.3,96.9,215.2,97C215.3,96.9,215.2,97,215.2,97z M215.4,96.3c-0.1-0.1-0.1-0.1-0.1,0
			L215.4,96.3C215.3,96.4,215.3,96.3,215.4,96.3C215.4,96.3,215.4,96.3,215.4,96.3C215.4,96.3,215.4,96.3,215.4,96.3z M215.6,100.6
			C215.5,100.6,215.5,100.6,215.6,100.6C215.4,100.7,215.4,100.7,215.6,100.6L215.6,100.6C215.6,100.7,215.6,100.6,215.6,100.6z
			 M216,99.1L216,99.1L216,99.1C216,99.2,216,99.2,216,99.1C216,99.1,216,99.1,216,99.1z M216,98.4c-0.1,0.1,0,0.2,0.2,0.2
			c0.1,0,0.2,0,0.2,0c0,0,0.1,0,0.1-0.1c0-0.1,0-0.1-0.1-0.1c-0.1,0-0.1,0-0.2,0C216.1,98.4,216.1,98.4,216,98.4z M216.2,97.7
			L216.2,97.7c0,0.1,0,0.1,0,0.1c0.1,0,0.1,0,0.1,0S216.3,97.8,216.2,97.7z M216.3,97c-0.1,0.1,0,0.1,0.1,0.1c0.1,0,0.1,0,0.1-0.1
			c0,0,0-0.1,0-0.1C216.4,96.9,216.3,96.9,216.3,97z M216.4,94.1L216.4,94.1L216.4,94.1L216.4,94.1z M217,95.5
			c-0.1,0.1,0,0.1,0.1,0.1l0.1,0L217,95.5C217.1,95.5,217,95.5,217,95.5C217,95.5,217,95.5,217,95.5z M217,99.2L217,99.2L217,99.2
			L217,99.2z M217,101.4C217,101.4,217.1,101.4,217,101.4C217.1,101.4,217.1,101.4,217,101.4C217.1,101.3,217.1,101.3,217,101.4
			c0.1-0.1,0.1-0.1,0.1-0.1L217,101.4C217,101.3,217,101.3,217,101.4z M217.3,97.7L217.3,97.7c-0.2,0-0.2,0-0.2,0.1
			c0,0.1,0,0.1,0.1,0.1h0.1c0.1,0,0.1,0,0.1-0.1c0-0.1,0-0.1,0-0.1S217.4,97.7,217.3,97.7z M217.3,93.3
			C217.2,93.3,217.2,93.3,217.3,93.3c-0.1,0.1,0,0.1,0.1,0.2c0.1,0,0.2,0,0.2-0.1c0-0.1,0-0.1,0-0.1
			C217.4,93.2,217.3,93.2,217.3,93.3z M218,103.6C218,103.6,218,103.6,218,103.6c0.1-0.1,0-0.1,0-0.1c0,0-0.2,0-0.6,0
			c-0.1,0-0.1,0-0.1,0.1c0,0.1,0.1,0.1,0.3,0.1C217.7,103.6,217.9,103.6,218,103.6z M217.6,100.8c0.3,0,0.5,0,0.6,0l0.1-0.1
			l-0.1-0.1c-0.2,0-0.4-0.1-0.5-0.1c0,0-0.1,0-0.3,0c-0.1,0-0.1,0.1-0.1,0.1c0,0,0.1,0,0.1,0c0,0,0,0,0,0S217.5,100.8,217.6,100.8z
			 M217.6,99.8c-0.1,0-0.2,0-0.2,0c-0.1,0-0.1,0.1-0.1,0.1c0,0,0.1,0.1,0.1,0.1c0.4,0,0.6,0,0.6,0c0,0,0.1,0,0.1-0.1
			c0,0,0-0.1-0.1-0.1C218,99.8,217.8,99.8,217.6,99.8z M217.6,102.8C217.6,102.8,217.6,102.8,217.6,102.8c-0.2,0-0.2,0-0.3,0
			c-0.1,0.1,0,0.1,0.2,0.1c0.1,0,0.1,0,0.1,0c0.1,0,0.1,0,0.1-0.1C217.7,102.8,217.7,102.8,217.6,102.8z M218.1,98.4
			c-0.2-0.1-0.3-0.1-0.6-0.1c0,0-0.1,0-0.1,0.1c0,0,0,0.1,0,0.1c0,0,0,0.1,0.1,0.1c0.1,0,0.1,0.1,0.3,0.1c0.1,0,0.2,0,0.2,0
			C218.1,98.6,218.2,98.6,218.1,98.4C218.2,98.5,218.2,98.5,218.1,98.4z M217.6,102C217.6,102,217.5,102,217.6,102L217.6,102
			L217.6,102z M217.6,99.1C217.6,99.2,217.6,99.2,217.6,99.1c0.1,0.1,0.2,0.1,0.2,0l-0.1-0.1C217.6,99.1,217.6,99.1,217.6,99.1
			C217.6,99.1,217.6,99.1,217.6,99.1z M217.8,92L217.8,92L217.8,92L217.8,92z M217.9,96.9c-0.1,0-0.1,0.1-0.1,0.1c0,0,0,0,0.1,0
			c0.1,0.1,0.3,0.1,0.5,0c0.2,0,0.4,0,0.4,0c0,0,0.1,0,0.1-0.1c0-0.1,0-0.1-0.1-0.1c0,0-0.1,0-0.2,0c-0.1,0-0.2,0-0.2,0
			C218.2,96.9,218.1,96.9,217.9,96.9z M218,95.5C218,95.5,217.9,95.5,218,95.5c0,0.2,0,0.2,0.1,0.2c0.2,0,0.5,0,0.9,0
			c0,0,0.1,0,0.2-0.1c0.1,0,0.1-0.1,0.1-0.1c0,0,0-0.1-0.1-0.1c-0.1,0-0.3,0-0.6,0c-0.2,0-0.3,0-0.3,0C218.1,95.4,218,95.4,218,95.5
			z M218,104.3L218,104.3L218,104.3L218,104.3z M218.1,94.8c-0.1,0-0.1,0-0.1,0.1c0,0.1,0.1,0.1,0.1,0.1h0.1c0.1,0,0.1,0,0.1-0.1
			C218.4,94.8,218.3,94.8,218.1,94.8C218.2,94.8,218.1,94.8,218.1,94.8z M218.2,101.4C218.2,101.4,218.2,101.4,218.2,101.4
			C218.2,101.4,218.2,101.4,218.2,101.4C218.2,101.5,218.2,101.5,218.2,101.4C218.2,101.4,218.2,101.4,218.2,101.4
			C218.2,101.4,218.2,101.4,218.2,101.4z M219,97.8c0.1,0,0.1-0.1,0.1-0.1c0-0.1,0-0.1-0.1-0.1c0,0-0.1,0-0.1,0c-0.1,0-0.2,0-0.2,0
			c-0.1,0-0.1,0-0.3,0c-0.1,0-0.2,0-0.3,0.1c0,0-0.1,0-0.1,0.1c0,0.1,0,0.1,0.1,0.1c0,0,0.1,0,0.4,0C218.8,97.9,218.9,97.9,219,97.8
			C219,97.9,219,97.9,219,97.8z M218.3,105.1c0.1,0,0.2,0.1,0.3,0c0.1,0,0.1-0.1,0.1-0.1l-0.1-0.1c-0.1,0-0.2-0.1-0.3-0.1
			c-0.1,0-0.1,0-0.1,0.1c0,0.1,0,0.1,0,0.1S218.2,105,218.3,105.1z M218.3,92.7L218.3,92.7c0,0.1,0,0.1,0,0.1c0.3,0,0.5,0,0.6,0
			c0,0,0.1,0,0.1,0c0.1-0.1,0.1-0.1,0-0.2c0,0,0-0.1-0.1-0.1c-0.1,0-0.2,0-0.3,0C218.6,92.6,218.5,92.6,218.3,92.7
			C218.4,92.6,218.4,92.6,218.3,92.7C218.4,92.6,218.3,92.6,218.3,92.7z M218.4,104.2L218.4,104.2L218.4,104.2L218.4,104.2z
			 M218.7,105.8C218.7,105.7,218.7,105.7,218.7,105.8l-0.1-0.1C218.5,105.8,218.5,105.8,218.7,105.8
			C218.6,105.8,218.7,105.8,218.7,105.8C218.7,105.8,218.7,105.8,218.7,105.8z M219,102.9C219,102.9,219.1,102.9,219,102.9
			c0.1-0.1,0.1-0.1,0-0.1c-0.1,0-0.1,0-0.2,0c-0.1,0-0.2,0.1-0.3,0.1c0,0,0.1,0.1,0.3,0.1C218.9,102.9,219,102.9,219,102.9z
			 M219,102c-0.1,0-0.2,0-0.3,0c-0.1,0-0.1,0.1-0.1,0.1c0,0,0,0.1,0.1,0.1c0.1,0.1,0.2,0.1,0.3,0.1c0.1,0,0.1,0,0.1-0.1
			C219.1,102.1,219,102,219,102z M219.4,94.1C219.4,94.1,219.4,94.1,219.4,94.1L219.4,94.1c0-0.1-0.1-0.1-0.3-0.1
			c-0.2,0-0.3,0-0.3,0c-0.1,0-0.1,0-0.1,0c0,0.1,0,0.1,0.1,0.1c0.3,0,0.4,0,0.4,0S219.3,94.2,219.4,94.1z M218.8,101.3
			C218.8,101.4,218.8,101.4,218.8,101.3c0.1,0.1,0.1,0.2,0.2,0.1l0.1,0l0-0.1c-0.1-0.1-0.2-0.2-0.2-0.2S218.8,101.2,218.8,101.3z
			 M219,100c0.1,0,0.1-0.1,0.1-0.1c0-0.1-0.1-0.1-0.1-0.1h-0.1c-0.1,0-0.1,0.1-0.1,0.1S218.9,100,219,100C219,100,219,100,219,100z
			 M219,104.4L219,104.4c0-0.1-0.1-0.2-0.1-0.1c0,0,0,0.1,0,0.1C218.9,104.4,218.9,104.4,219,104.4C218.9,104.4,219,104.4,219,104.4
			z M219,91.2L219,91.2L219,91.2L219,91.2z M219.1,100.7C219.2,100.7,219.2,100.7,219.1,100.7L219.1,100.7
			C219.1,100.7,219.1,100.7,219.1,100.7C219.1,100.7,219.1,100.7,219.1,100.7z M219.4,103.5C219.4,103.6,219.4,103.6,219.4,103.5
			c0,0.1,0.1,0.1,0.1,0.1c0,0,0.1,0,0.1-0.1C219.6,103.5,219.6,103.5,219.4,103.5C219.4,103.5,219.4,103.5,219.4,103.5z M219.6,94.8
			c-0.1,0-0.1,0-0.1,0.1L219.6,94.8C219.7,94.9,219.7,94.9,219.6,94.8C219.7,94.8,219.7,94.8,219.6,94.8z M219.8,97.8L219.8,97.8
			L219.8,97.8c0-0.1,0-0.1,0-0.1c-0.1,0.1-0.1,0.1-0.1,0.1S219.7,97.8,219.8,97.8z M219.7,104.9L219.7,104.9L219.7,104.9
			L219.7,104.9z M219.9,104.3c-0.1,0-0.1,0-0.1,0.1c0,0,0,0,0.1,0C219.9,104.4,220,104.4,219.9,104.3
			C219.9,104.3,219.9,104.3,219.9,104.3z M219.7,95.6C219.7,95.6,219.8,95.6,219.7,95.6c0.1,0.1,0.1,0.1,0.1,0.1
			C219.9,95.6,219.9,95.6,219.7,95.6C219.8,95.6,219.8,95.6,219.7,95.6z M220.1,105.8c0-0.1,0-0.1-0.1-0.1c-0.1,0-0.1,0-0.2,0
			c-0.1,0-0.1,0.1-0.1,0.1c0,0.1,0.1,0.1,0.1,0.1C220,105.9,220,105.9,220.1,105.8C220.1,105.8,220.1,105.8,220.1,105.8z
			 M219.8,93.4L219.8,93.4C219.9,93.5,219.9,93.4,219.8,93.4C219.9,93.4,219.9,93.4,219.8,93.4C219.9,93.4,219.9,93.4,219.8,93.4
			C219.8,93.4,219.8,93.4,219.8,93.4z M219.9,99.9L219.9,99.9C219.9,99.9,219.9,99.9,219.9,99.9C219.9,100,219.9,100,219.9,99.9
			c0.1,0.1,0.1,0.1,0.1,0.1S220,99.9,219.9,99.9z M220.4,99.1c-0.1,0-0.2,0-0.2,0c-0.1,0-0.1,0.1-0.1,0.1c0,0.1,0.1,0.1,0.2,0.1
			c0.1,0,0.1,0,0.1-0.1C220.6,99.1,220.5,99.1,220.4,99.1z M220.3,94.1L220.3,94.1L220.3,94.1C220.3,94.2,220.3,94.1,220.3,94.1
			C220.3,94.1,220.3,94.1,220.3,94.1C220.3,94.1,220.3,94.1,220.3,94.1z M220.4,92.6c-0.1,0-0.1,0.1-0.1,0.1c0,0.1,0.1,0.1,0.1,0.1
			c0.1,0,0.1-0.1,0.1-0.1C220.6,92.6,220.5,92.6,220.4,92.6z M220.6,99.9L220.6,99.9L220.6,99.9L220.6,99.9z M220.7,95.6L220.7,95.6
			c-0.2,0-0.2,0-0.1,0.1C220.6,95.7,220.6,95.7,220.7,95.6C220.7,95.6,220.7,95.6,220.7,95.6C220.7,95.6,220.7,95.6,220.7,95.6z
			 M220.8,98.4c-0.1,0-0.1,0-0.1,0.1c0,0.1,0,0.1,0.1,0.1c0,0,0.1,0,0.1,0c0.1,0,0.2,0,0.3-0.1S221,98.4,220.8,98.4
			C220.8,98.4,220.8,98.4,220.8,98.4z M221.1,94.1C221.1,94.1,221,94.1,221.1,94.1c0,0.1,0.1,0.1,0.1,0.1c0,0,0.1,0,0-0.1
			C221.2,94.1,221.2,94.1,221.1,94.1C221.1,94,221.1,94.1,221.1,94.1z M221.3,96.2C221.3,96.2,221.3,96.3,221.3,96.2
			c-0.1,0.1-0.1,0.2,0,0.2c0.1,0,0.1-0.1,0.1-0.1C221.5,96.2,221.4,96.2,221.3,96.2z"/>
		<path class="st1" d="M231.4,98c0-4.2,0-6.8,0-7.8c0-0.2,0-0.5,0-0.8c0,0,0-0.1,0.1-0.2c0.1-0.1,0.1-0.2,0.2-0.2c0.1,0,0.2,0,0.3,0
			c1.3,0,2.6,0,3.8,0c0,0,0.1,0,0.3,0c0.1,0,0.2,0.1,0.2,0.3l0,0.3c0,0.1,0,0.3,0,0.7c0,0.3,0,0.9,0,1.9V94c0,0.3,0,0.5,0,0.6
			c0,0.1,0,0.1,0.1,0.1c0.1,0,0.1,0,0.2,0c0.1-0.1,0.2-0.2,0.5-0.5c0.4-0.4,1.5-1.6,3.3-3.6c0.6-0.7,1-1.1,1.1-1.2
			c0.1-0.1,0.2-0.2,0.3-0.3c0,0,0.1-0.1,0.2-0.1c0.1,0,0.3,0,0.4,0c1.9,0,3.7,0,5.4,0c0.1,0,0.2,0,0.4,0c0,0,0.1,0,0.1,0
			c0,0.1,0,0.1,0,0.2c-0.1,0.1-0.2,0.2-0.2,0.3c-0.1,0.1-0.9,1-2.6,2.9c-1.1,1.2-2,2.3-2.9,3.2c-0.2,0.2-0.3,0.4-0.4,0.5
			c0,0.1-0.1,0.2,0,0.3c0.1,0.3,0.3,0.5,0.3,0.6c0.1,0.3,0.8,1.3,1.8,3.1c1.9,3.2,3.1,5.3,3.8,6.3c0.1,0.2,0.2,0.4,0.2,0.4
			c0,0.1,0,0.2-0.1,0.2c-0.2,0-0.2,0-0.2,0c-0.1,0-0.3,0-0.4,0c-1.5,0-2.8,0-4,0c-0.3,0-0.5,0-0.7,0c-0.1,0-0.2-0.1-0.2-0.1
			c-0.1-0.1-0.1-0.1-0.1-0.2c-0.1-0.1-0.2-0.3-0.3-0.5c-2.1-3.5-3.1-5.3-3.3-5.5c0-0.1-0.1-0.2-0.3-0.4c-0.1-0.2-0.3-0.2-0.4-0.1
			c0,0,0,0,0,0c0,0,0,0,0,0c-0.5,0.6-1.1,1.2-1.8,1.9c0,0,0,0-0.1,0.1c-0.1,0.1-0.1,0.2-0.1,0.4c0,0.2,0,0.3,0,0.5
			c0,0.3,0,0.8,0,1.5c0,0.7,0,1.2,0,1.5c0,0.3,0,0.5,0,0.6c0,0.1-0.1,0.2-0.3,0.3c-0.1,0-0.2,0-0.2,0c-0.2,0-0.4,0-0.5,0
			c-1.2,0-2.3,0-3.1,0c-0.1,0-0.3,0-0.5,0c-0.2,0-0.3-0.1-0.4-0.4c0-0.1,0-0.4,0-0.7c0-0.6,0-2.1,0-4.5L231.4,98L231.4,98z
			 M232.7,94.8c-0.1,0-0.1,0-0.1,0.1c0,0,0,0,0.1,0.1c0.1,0,0.1,0,0.1-0.1C232.9,94.9,232.9,94.8,232.7,94.8
			C232.8,94.8,232.8,94.8,232.7,94.8z M232.7,93.3C232.7,93.4,232.7,93.4,232.7,93.3c0.1,0.1,0.2,0.1,0.2,0c0,0,0-0.1-0.1-0.1
			C232.8,93.3,232.7,93.3,232.7,93.3z M232.9,105.1c0.1,0,0.2,0,0.3-0.1c-0.1,0-0.2-0.1-0.2-0.1c0,0-0.1,0-0.1,0c0,0-0.1,0-0.1,0.1
			C232.8,105,232.9,105.1,232.9,105.1z M232.9,102.8L232.9,102.8L232.9,102.8L232.9,102.8z M233.3,103.5c-0.2,0-0.3-0.1-0.4,0
			c0,0,0,0-0.1,0.1c0,0.1,0,0.1,0.1,0.1c0.1,0,0.3,0,0.4-0.1L233.3,103.5C233.4,103.5,233.3,103.5,233.3,103.5z M233,91.2L233,91.2
			C233,91.3,233,91.3,233,91.2L233,91.2C233,91.2,233,91.2,233,91.2C233,91.2,233,91.2,233,91.2z M233.1,99.9L233.1,99.9
			C233,99.9,233,99.9,233.1,99.9C233.1,100,233.1,100,233.1,99.9C233.1,100,233.1,100,233.1,99.9z M233.4,102.2c0.1,0,0.1,0,0.1-0.1
			c0-0.1,0-0.1-0.1-0.1c-0.2,0-0.3,0-0.3,0c-0.1,0-0.1,0-0.1,0.1c0,0,0,0.1,0.1,0.1C233.1,102.1,233.2,102.1,233.4,102.2
			C233.4,102.2,233.4,102.2,233.4,102.2z M233.1,104.3L233.1,104.3C233.1,104.4,233.1,104.4,233.1,104.3L233.1,104.3
			C233.2,104.3,233.1,104.3,233.1,104.3z M233.1,94.1C233.1,94.1,233.1,94.2,233.1,94.1c0.2,0.1,0.2,0.1,0.2,0c0-0.1,0-0.1-0.1-0.1
			L233.1,94.1C233.2,94.1,233.1,94.1,233.1,94.1C233.1,94.1,233.1,94.1,233.1,94.1z M233.9,100.6c-0.3,0-0.5,0-0.6,0
			c0,0-0.1,0-0.1,0.1c0,0,0,0.1,0.1,0.1c0.1,0,0.1,0,0.2,0c0.1,0,0.1,0,0.1,0h0.4c0.1,0,0.1,0,0.2-0.1
			C234,100.6,233.9,100.6,233.9,100.6z M233.6,105C233.6,105,233.6,104.9,233.6,105c-0.1-0.1-0.1-0.1-0.1-0.1c0,0-0.1,0-0.1,0.1
			c0.1,0,0.1,0,0.1,0.1C233.5,105.1,233.6,105.1,233.6,105z M233.4,102.8L233.4,102.8L233.4,102.8L233.4,102.8
			C233.5,102.8,233.4,102.8,233.4,102.8C233.4,102.8,233.4,102.8,233.4,102.8z M233.6,97.8L233.6,97.8L233.6,97.8L233.6,97.8z
			 M233.8,99.9C233.7,99.9,233.7,99.9,233.8,99.9L233.8,99.9L233.8,99.9z M233.8,97c0,0.1,0,0.1,0.1,0.1c0.1,0,0.1,0,0.1,0
			C234,97,234,97,233.8,97L233.8,97z M234,101.5c0.1,0,0.1,0,0.2,0c0.1,0,0.1-0.1,0.1-0.2c0-0.1-0.1-0.1-0.1-0.1
			c-0.1,0-0.1,0-0.2,0.1c0,0-0.1,0-0.1,0.1C233.9,101.5,233.9,101.5,234,101.5z M234,91.2C234,91.3,234,91.3,234,91.2
			c0.1,0.1,0.1,0.1,0.1,0C234.2,91.2,234.2,91.1,234,91.2C234.1,91.2,234.1,91.2,234,91.2z M234.2,98.5
			C234.2,98.4,234.1,98.4,234.2,98.5C234,98.5,234,98.6,234.2,98.5L234.2,98.5C234.2,98.5,234.2,98.5,234.2,98.5z M234.2,93.4
			L234.2,93.4c-0.1-0.1-0.1-0.1-0.2,0c0,0,0,0.1,0,0.1c0.1,0,0.1,0.1,0.1,0.1S234.2,93.5,234.2,93.4z M234.2,94.8
			C234.1,94.8,234.1,94.8,234.2,94.8c-0.1,0.1-0.1,0.1,0,0.1c0.1,0,0.1,0,0.2,0c0.1,0,0.1,0,0-0.1C234.4,94.8,234.3,94.8,234.2,94.8
			z M234.4,103.4c0,0-0.1,0-0.1,0c0,0-0.1,0.1-0.1,0.1c0,0.1,0.1,0.1,0.1,0.1s0.1,0,0.1-0.1C234.5,103.5,234.5,103.5,234.4,103.4z
			 M234.4,105c0.1,0,0.1,0,0.1-0.1c0-0.1-0.1-0.1-0.1-0.1c-0.1,0-0.1,0-0.1,0.1C234.2,105,234.3,105,234.4,105
			C234.4,105,234.4,105,234.4,105z M234.8,102.8c0,0-0.1-0.1-0.3-0.1h-0.2c-0.1,0-0.1,0-0.1,0.1c0,0,0,0,0.1,0c0,0,0,0,0.1,0h0.1
			C234.7,102.9,234.8,102.9,234.8,102.8z M234.5,92.6c-0.1,0-0.1,0-0.1,0.1l0,0.1c0,0,0.1,0.1,0.2,0c0.1,0,0.1-0.1,0.1-0.1
			s0-0.1,0-0.1S234.5,92.6,234.5,92.6z M234.7,99.9c0,0.1,0,0.1,0.1,0.1l0-0.1C234.8,99.9,234.8,99.9,234.7,99.9
			C234.7,99.8,234.7,99.8,234.7,99.9C234.7,99.8,234.7,99.9,234.7,99.9z M234.8,102.1L234.8,102.1l-0.1,0L234.8,102.1
			C234.8,102.2,234.8,102.2,234.8,102.1z M235,97L235,97c0,0.1,0,0.1,0,0.1C235,97.1,235.1,97.1,235,97L235,97
			C235.1,97,235,97,235,97C235,97,235,97,235,97z M235,99.2C235,99.2,235,99.2,235,99.2h0.1H235L235,99.2
			C235,99.2,235,99.2,235,99.2C235,99.2,235,99.2,235,99.2C235,99.2,235,99.2,235,99.2L235,99.2L235,99.2
			C235,99.2,235,99.2,235,99.2C235,99.2,235,99.2,235,99.2C235,99.2,235,99.2,235,99.2C235,99.2,234.9,99.2,235,99.2z M235.2,103.6
			c0,0,0-0.1,0-0.1c0,0-0.1,0-0.1,0C235,103.6,235,103.6,235.2,103.6C235.1,103.6,235.1,103.6,235.2,103.6z M235.4,101.4
			c-0.1,0-0.2,0-0.2,0c0,0-0.1,0-0.1,0s0,0,0.1,0c0,0,0,0,0.1,0C235.3,101.4,235.3,101.4,235.4,101.4z M235.6,99.9
			C235.6,99.9,235.6,99.9,235.6,99.9L235.6,99.9C235.6,100,235.6,99.9,235.6,99.9C235.6,99.9,235.6,99.9,235.6,99.9z M236.1,96.3
			c0,0.1,0,0.1,0.1,0.1c0.1,0,0.3,0,0.4,0c0,0,0.2-0.1,0.4-0.2c-0.4,0-0.6,0-0.6-0.1C236.3,96.2,236.2,96.2,236.1,96.3
			C236.1,96.2,236.1,96.2,236.1,96.3z M237.1,97C237.1,97,237.1,97,237.1,97C237.1,97,237.1,97,237.1,97L237.1,97
			C237.2,97,237.1,97,237.1,97z M238,96.2C238,96.2,237.9,96.2,238,96.2c0,0.1,0.1,0.1,0.1,0.1c0,0,0.1,0,0.1,0c0,0,0-0.1,0-0.1
			C238.1,96.2,238.1,96.2,238,96.2z M238,97.7L238,97.7L238,97.7L238,97.7C238,97.8,238,97.7,238,97.7C238,97.7,238,97.7,238,97.7z
			 M238.5,96.9c-0.2,0-0.3,0-0.4,0c-0.1,0-0.1,0.1-0.1,0.1c0,0.1,0.1,0.1,0.1,0.1c0,0,0.1,0,0.2,0c0.4,0,0.7,0,1.1,0
			c0.3,0,0.4,0,0.4,0c0,0,0.1,0,0.2,0c0.1,0,0.2,0,0.2,0c0.1,0,0.2,0,0.3,0c0.1,0,0.1,0,0.1-0.1c0-0.1,0-0.1-0.1-0.2
			c-0.1-0.1-0.3-0.1-0.4-0.1C239.7,97,239.1,97,238.5,96.9z M238.9,98.5c0-0.1,0-0.1-0.1-0.1c-0.3,0-0.5,0-0.6,0.1h0
			c0.1,0.1,0.3,0.2,0.4,0.2c0.1,0,0.1,0,0.2,0C238.9,98.6,238.9,98.6,238.9,98.5C238.9,98.6,238.9,98.5,238.9,98.5z M238.7,95.7
			L238.7,95.7L238.7,95.7L238.7,95.7z M238.7,97.8L238.7,97.8L238.7,97.8L238.7,97.8z M238.9,99.2C238.9,99.2,238.9,99.2,238.9,99.2
			C238.9,99.2,238.8,99.1,238.9,99.2L238.9,99.2C238.8,99.2,238.8,99.2,238.9,99.2C238.8,99.2,238.8,99.2,238.9,99.2z M238.9,94.7
			c-0.1,0-0.1,0.1-0.1,0.1c0,0.1,0,0.1,0.1,0.1c0,0,0.1,0,0.1,0c0.1,0,0.1-0.1,0.1-0.1c0,0,0-0.1,0-0.1
			C239.1,94.7,239,94.7,238.9,94.7z M239.3,97.8c0.1,0,0.1,0,0.1-0.1c0-0.1,0-0.1,0-0.1C239.4,97.7,239.3,97.7,239.3,97.8
			C239.3,97.8,239.3,97.8,239.3,97.8z M240.1,99.3c0.1,0,0.3,0,0.3,0c0,0,0,0,0-0.1c0,0,0-0.1,0-0.1c-0.1-0.1-0.3-0.1-0.6,0
			c0,0-0.1,0,0,0.1c0,0,0,0.1,0.1,0.1C239.8,99.2,239.9,99.2,240.1,99.3z M240,98.5c0,0.1,0,0.1,0.1,0.1l0-0.1
			C240.1,98.5,240.1,98.4,240,98.5C240.1,98.4,240,98.4,240,98.5C240,98.4,240,98.4,240,98.5z M240,97.8
			C240.1,97.8,240.1,97.8,240,97.8C240.1,97.7,240.1,97.7,240,97.8L240,97.8z M240.1,96.2C240.1,96.3,240.1,96.3,240.1,96.2
			c0,0.1,0.1,0.2,0.2,0.1c0.1,0,0.1-0.1,0.1-0.1c0,0,0-0.1,0-0.1C240.2,96.1,240.1,96.1,240.1,96.2z M240.5,93.3
			c-0.2,0-0.3,0-0.2,0.1c0,0,0.1,0.1,0.2,0.1c0.1,0,0.1,0,0.1-0.1C240.6,93.3,240.5,93.3,240.5,93.3z M240.6,100L240.6,100
			C240.6,99.9,240.6,99.9,240.6,100c-0.1-0.1-0.1-0.1-0.1-0.1c0,0,0,0,0,0c-0.1,0-0.1,0-0.1,0c0,0,0,0.1,0,0.1
			c0,0.1,0.1,0.1,0.2,0.1C240.6,100,240.6,100,240.6,100C240.6,100,240.6,100,240.6,100z M240.6,95.7c0-0.1,0-0.1,0-0.2
			c-0.1,0-0.1,0-0.1,0.1C240.5,95.7,240.5,95.7,240.6,95.7C240.6,95.7,240.6,95.7,240.6,95.7z M240.7,94.9L240.7,94.9
			c-0.1-0.1-0.2-0.1-0.2-0.1c0,0,0,0.1,0,0.1C240.6,94.9,240.6,95,240.7,94.9C240.6,95,240.7,94.9,240.7,94.9z M240.7,94.2
			C240.7,94.1,240.7,94.1,240.7,94.2c-0.1-0.1-0.1-0.1-0.1,0L240.7,94.2C240.6,94.2,240.7,94.2,240.7,94.2z M240.7,92.7
			c0,0,0,0.1,0.2,0C240.8,92.7,240.8,92.7,240.7,92.7C240.7,92.7,240.7,92.7,240.7,92.7z M241,100.7C241,100.7,241,100.7,241,100.7
			c-0.1-0.1-0.1-0.1-0.2-0.1c0,0,0,0,0,0.1c0,0,0,0,0.1,0.1C240.9,100.8,240.9,100.8,241,100.7z M240.9,97.8c0,0.1,0.1,0.1,0.2,0.1
			c0.1,0,0.1,0,0.1-0.1s0-0.1-0.1-0.1C241,97.6,241,97.6,240.9,97.8C240.9,97.7,240.9,97.8,240.9,97.8z M241.2,92.7c0,0-0.1,0-0.2,0
			C241,92.7,241.1,92.7,241.2,92.7C241.1,92.7,241.1,92.7,241.2,92.7z M241,96.3C241.1,96.3,241.1,96.3,241,96.3L241,96.3
			C241,96.2,241,96.2,241,96.3C241,96.2,241,96.3,241,96.3C241,96.3,241,96.3,241,96.3z M241.1,102.1L241.1,102.1L241.1,102.1
			L241.1,102.1z M241.3,99.2C241.3,99.1,241.2,99.1,241.3,99.2c-0.1-0.1-0.1-0.1-0.1,0C241.1,99.2,241.2,99.3,241.3,99.2
			C241.2,99.2,241.2,99.2,241.3,99.2z M241.2,95.6L241.2,95.6C241.2,95.6,241.2,95.6,241.2,95.6C241.2,95.6,241.2,95.6,241.2,95.6
			C241.2,95.5,241.2,95.5,241.2,95.6C241.2,95.5,241.2,95.5,241.2,95.6z M241.6,94.8C241.6,94.8,241.6,94.8,241.6,94.8
			C241.6,94.8,241.6,94.8,241.6,94.8z M241.6,100.5L241.6,100.5L241.6,100.5z M241.7,93.4C241.7,93.4,241.7,93.4,241.7,93.4
			L241.7,93.4h0.1C241.8,93.3,241.8,93.3,241.7,93.4C241.8,93.3,241.7,93.3,241.7,93.4z M241.9,91.9
			C241.9,91.9,241.9,91.9,241.9,91.9C241.9,92,241.9,92,241.9,91.9L241.9,91.9C241.9,91.9,241.9,91.9,241.9,91.9z M243.1,100.6
			c0,0-0.2,0-0.6,0c-0.1,0-0.3,0-0.6,0c0.1,0.1,0.1,0.1,0.1,0.1c0.1,0.1,0.1,0.1,0.2,0.1c0.4,0.1,0.7,0.1,0.9,0.1
			C243.1,100.8,243.2,100.8,243.1,100.6C243.2,100.6,243.1,100.6,243.1,100.6z M242.5,102.9c0.1,0,0.1,0,0.1-0.1c0,0,0,0-0.1,0
			c-0.1,0-0.1,0-0.2,0c0,0-0.1,0-0.1,0c0,0-0.1,0-0.1,0c-0.1,0-0.1,0-0.2,0.1c-0.1,0,0,0.1,0.3,0.1
			C242.4,102.9,242.5,102.9,242.5,102.9z M242.1,91.2c-0.1,0.1,0,0.1,0,0.1c0,0,0,0,0.1-0.1C242.2,91.2,242.1,91.1,242.1,91.2
			C242.1,91.1,242.1,91.1,242.1,91.2z M242.3,99.1L242.3,99.1l-0.1,0C242.2,99.2,242.2,99.2,242.3,99.1
			C242.2,99.2,242.2,99.2,242.3,99.1C242.3,99.2,242.3,99.2,242.3,99.1C242.3,99.2,242.3,99.2,242.3,99.1z M242.4,99.8
			C242.4,99.8,242.3,99.8,242.4,99.8c-0.2,0-0.2,0.1-0.2,0.1c0,0.1,0,0.1,0.1,0.1c0.2,0,0.3,0,0.5-0.1c0.1,0,0.1-0.1,0.1-0.1
			c0,0,0,0-0.1-0.1c0,0-0.1,0-0.1,0C242.6,99.8,242.4,99.8,242.4,99.8z M242.3,92.6C242.2,92.6,242.2,92.6,242.3,92.6
			c0,0.2,0,0.2,0.1,0.2c0,0,0,0,0-0.1C242.4,92.6,242.3,92.5,242.3,92.6z M242.8,93.3C242.7,93.3,242.6,93.3,242.8,93.3
			C242.7,93.4,242.8,93.4,242.8,93.3C242.8,93.4,242.8,93.4,242.8,93.3z M242.8,91.9c0,0.1,0,0.1,0.2,0.1c0.1,0,0.2,0,0.2,0
			c0,0,0.1,0,0.1,0c0.1,0,0.1-0.1,0.1-0.1c0-0.1-0.1-0.1-0.1-0.1c0,0,0,0-0.1,0c0,0,0,0-0.1,0c0,0-0.1,0-0.1,0
			C242.9,91.8,242.8,91.9,242.8,91.9z M242.8,91.3L242.8,91.3L242.8,91.3L242.8,91.3z M243.1,90.4C243.1,90.4,243.1,90.4,243.1,90.4
			c0,0.1,0,0.1,0,0.1c0,0,0.2,0,0.6,0c0,0,0.1,0,0.1,0c0-0.1,0-0.1-0.1-0.1c0,0-0.1,0-0.3,0L243.1,90.4
			C243.2,90.4,243.1,90.4,243.1,90.4z M243.7,103.5L243.7,103.5L243.7,103.5L243.7,103.5C243.7,103.5,243.7,103.5,243.7,103.5
			C243.7,103.5,243.7,103.5,243.7,103.5z M243.8,91.2C243.7,91.2,243.7,91.2,243.8,91.2L243.8,91.2L243.8,91.2z M243.8,102
			C243.7,102,243.7,102.1,243.8,102C243.8,102.2,243.8,102.2,243.8,102C243.9,102.1,243.9,102.1,243.8,102z M244.4,91.2L244.4,91.2
			L244.4,91.2L244.4,91.2z"/>
		<circle class="st1" cx="175" cy="105.9" r="2.6"/>
		<circle class="st1" cx="175" cy="105.9" r="2.6"/>
		<circle class="st1" cx="204.1" cy="105.9" r="2.6"/>
		<circle class="st1" cx="227.6" cy="105.9" r="2.6"/>
		<circle class="st1" cx="252.6" cy="105.9" r="2.6"/>
	</g>
</g>
</svg>
