<svg xmlns="http://www.w3.org/2000/svg" width="27.266" height="27.266" viewBox="0 0 27.266 27.266">
  <path id="Icon_awesome-facebook-square" data-name="Icon awesome-facebook-square" d="M24.345,2.25H2.921A2.921,2.921,0,0,0,0,5.171V26.595a2.921,2.921,0,0,0,2.921,2.921h8.353v-9.27H7.44V15.883h3.834V12.558c0-3.783,2.252-5.872,5.7-5.872a23.229,23.229,0,0,1,3.379.295v3.713h-1.9a2.182,2.182,0,0,0-2.46,2.357v2.833h4.186l-.669,4.363H15.992v9.27h8.353a2.921,2.921,0,0,0,2.921-2.921V5.171A2.921,2.921,0,0,0,24.345,2.25Z" transform="translate(0 -2.25)" fill="#202460" opacity="0.48"/>
</svg>
