<svg xmlns="http://www.w3.org/2000/svg" width="26.703" height="26.702" viewBox="0 0 26.703 26.702">
  <path id="Icon_metro-instagram" data-name="Icon metro-instagram" d="M24.84,1.928H7A4.446,4.446,0,0,0,2.571,6.361V24.2A4.446,4.446,0,0,0,7,28.63H24.84A4.446,4.446,0,0,0,29.273,24.2V6.361A4.446,4.446,0,0,0,24.84,1.928ZM11.119,13.61h9.607a5.085,5.085,0,1,1-9.607,0Zm14.817,0V23.624a1.674,1.674,0,0,1-1.669,1.669H7.577a1.674,1.674,0,0,1-1.669-1.669V13.61h2.61a7.588,7.588,0,1,0,14.806,0h2.61Zm0-5.842A.837.837,0,0,1,25.1,8.6H23.432a.837.837,0,0,1-.834-.834V6.1a.837.837,0,0,1,.834-.834H25.1a.837.837,0,0,1,.834.834Z" transform="translate(-2.571 -1.928)" fill="#202460" opacity="0.48"/>
</svg>
