<svg xmlns="http://www.w3.org/2000/svg" width="33.239" height="23.371" viewBox="0 0 33.239 23.371">
  <path id="Icon_awesome-youtube" data-name="Icon awesome-youtube" d="M33.595,8.157A4.177,4.177,0,0,0,30.656,5.2c-2.592-.7-12.986-.7-12.986-.7s-10.394,0-12.986.7A4.177,4.177,0,0,0,1.745,8.157a43.813,43.813,0,0,0-.695,8.052,43.813,43.813,0,0,0,.695,8.052,4.114,4.114,0,0,0,2.939,2.91c2.592.7,12.986.7,12.986.7s10.394,0,12.986-.7a4.114,4.114,0,0,0,2.939-2.91,43.813,43.813,0,0,0,.695-8.052,43.813,43.813,0,0,0-.695-8.052ZM14.27,21.151V11.267l8.687,4.942L14.27,21.151Z" transform="translate(-1.05 -4.5)" fill="#fff"/>
</svg>
