<svg xmlns="http://www.w3.org/2000/svg" width="341.457" height="1260.432" viewBox="0 0 341.457 1260.432">
  <g id="Group_52" data-name="Group 52" transform="translate(-98.692 -81.57)">
    <rect id="Rectangle_163" data-name="Rectangle 163" width="30.524" height="117.009" transform="matrix(-0.391, 0.921, -0.921, -0.391, 320.135, 254.579)" fill="#fff"/>
    <rect id="Rectangle_155" data-name="Rectangle 155" width="30.524" height="117.009" transform="translate(402.81 499.979) rotate(30)" fill="#fff"/>
    <rect id="Rectangle_156" data-name="Rectangle 156" width="30.524" height="117.009" transform="matrix(-0.309, -0.951, 0.951, -0.309, 264.176, 803.953)" fill="#fff"/>
    <rect id="Rectangle_157" data-name="Rectangle 157" width="30.524" height="117.009" transform="translate(260.986 1183.459) rotate(-83)" fill="#fff"/>
    <rect id="Rectangle_158" data-name="Rectangle 158" width="20.093" height="77.023" transform="translate(252.534 153.948) rotate(160)" fill="#fff"/>
    <rect id="Rectangle_176" data-name="Rectangle 176" width="15.732" height="44.318" transform="translate(151.768 722.248) rotate(160)" fill="#fff"/>
    <rect id="Rectangle_168" data-name="Rectangle 168" width="20.093" height="77.023" transform="matrix(-0.848, -0.53, 0.53, -0.848, 233.571, 1066.321)" fill="#fff"/>
    <rect id="Rectangle_161" data-name="Rectangle 161" width="20.093" height="77.023" transform="translate(236.832 437.494) rotate(-110)" fill="#fff"/>
    <rect id="Rectangle_169" data-name="Rectangle 169" width="20.093" height="77.023" transform="translate(142.801 854.961) rotate(34)" fill="#fff"/>
    <rect id="Rectangle_159" data-name="Rectangle 159" width="9.191" height="58.127" transform="translate(155.549 318.791) rotate(77)" fill="#fff"/>
    <rect id="Rectangle_170" data-name="Rectangle 170" width="9.191" height="58.127" transform="matrix(0.995, 0.105, -0.105, 0.995, 158.258, 1123.987)" fill="#fff"/>
    <rect id="Rectangle_160" data-name="Rectangle 160" width="9.191" height="38.504" transform="translate(404.067 698.58) rotate(167)" fill="#fff"/>
    <rect id="Rectangle_166" data-name="Rectangle 166" width="44.803" height="45.045" transform="translate(164.794 558.13) rotate(167)" fill="#fff"/>
    <rect id="Rectangle_162" data-name="Rectangle 162" width="12.098" height="58.127" transform="translate(422.942 342.035) rotate(167)" fill="#fff"/>
    <rect id="Rectangle_171" data-name="Rectangle 171" width="12.098" height="58.127" transform="translate(336.221 1342.002) rotate(-166)" fill="#fff"/>
    <rect id="Rectangle_167" data-name="Rectangle 167" width="12.098" height="58.127" transform="matrix(0.259, 0.966, -0.966, 0.259, 437.018, 301.712)" fill="#fff"/>
    <rect id="Rectangle_172" data-name="Rectangle 172" width="12.098" height="58.127" transform="matrix(-0.208, 0.978, -0.978, -0.208, 367.069, 1312.464)" fill="#fff"/>
    <rect id="Rectangle_164" data-name="Rectangle 164" width="30.524" height="117.009" transform="matrix(-0.839, 0.545, -0.545, -0.839, 325.657, 694.042)" fill="#fff"/>
    <circle id="Ellipse_48" data-name="Ellipse 48" cx="22" cy="22" r="22" transform="translate(107.692 1290.16)" fill="#fff"/>
    <circle id="Ellipse_49" data-name="Ellipse 49" cx="22.5" cy="22.5" r="22.5" transform="translate(98.692 125.16)" fill="#fff"/>
    <g id="Group_47" data-name="Group 47" transform="translate(268.066 912.326) rotate(-30)">
      <path id="Rectangle_173" data-name="Rectangle 173" d="M11.992,0h0A11.992,11.992,0,0,1,23.983,11.992V23.256a0,0,0,0,1,0,0H0a0,0,0,0,1,0,0V11.992A11.992,11.992,0,0,1,11.992,0Z" transform="translate(0)" fill="#fff"/>
      <path id="Rectangle_174" data-name="Rectangle 174" d="M11.992,0h0A11.992,11.992,0,0,1,23.983,11.992V23.983a0,0,0,0,1,0,0H0a0,0,0,0,1,0,0V11.992A11.992,11.992,0,0,1,11.992,0Z" transform="translate(35.611 10.901) rotate(90)" fill="#fff"/>
      <rect id="Rectangle_175" data-name="Rectangle 175" width="19.623" height="15.989" transform="translate(0 18.896)" fill="#fff"/>
    </g>
    <rect id="Rectangle_227" data-name="Rectangle 227" width="30.524" height="117.009" transform="matrix(-0.391, 0.921, -0.921, -0.391, 435.135, 1057.579)" fill="#fff"/>
  </g>
</svg>
